<svg xmlns="http://www.w3.org/2000/svg" xmlns:xlink="http://www.w3.org/1999/xlink" width="200" height="194.919" viewBox="0 0 200 194.919">
    <defs>
        <linearGradient id="linear-gradient" x1="14.249" x2="15.191" y1=".177" y2=".177" gradientUnits="objectBoundingBox">
            <stop offset="0" stop-color="#21633c"/>
            <stop offset="1" stop-color="#3aa668"/>
        </linearGradient>
        <linearGradient id="linear-gradient-2" x1="10.043" x2="11.245" y1=".613" y2=".613" gradientUnits="objectBoundingBox">
            <stop offset="0" stop-color="#159957"/>
            <stop offset="1" stop-color="#155799"/>
        </linearGradient>
        <linearGradient id="linear-gradient-3" x1="9.261" x2="10.357" y1=".826" y2=".826" xlink:href="#linear-gradient"/>
        <linearGradient id="linear-gradient-4" x1="-.04" x2=".236" y1=".155" y2=".332" xlink:href="#linear-gradient-2"/>
        <linearGradient id="linear-gradient-5" x1="0" x2="1" y1=".5" y2=".5" xlink:href="#linear-gradient-2"/>
        <linearGradient id="linear-gradient-6" x2="1" y1=".5" y2=".5" gradientUnits="objectBoundingBox">
            <stop offset="0" stop-color="#40447e"/>
            <stop offset="1" stop-color="#3c3b6b"/>
        </linearGradient>
        <linearGradient id="linear-gradient-7" x1="-.04" x2=".237" y1=".155" y2=".331" xlink:href="#linear-gradient-2"/>
        <linearGradient id="linear-gradient-8" x1="0" x2="1" y1=".5" y2=".5" xlink:href="#linear-gradient-2"/>
        <linearGradient id="linear-gradient-9" x1="0" x2="1" y1=".5" y2=".5" xlink:href="#linear-gradient-6"/>
        <linearGradient id="linear-gradient-10" x1="0" x2="1" y1=".5" y2=".5" xlink:href="#linear-gradient-6"/>
        <linearGradient id="linear-gradient-11" x1="-.04" x2=".237" y1=".155" y2=".331" xlink:href="#linear-gradient-2"/>
        <linearGradient id="linear-gradient-12" x1="0" x2="1" y1=".5" y2=".5" xlink:href="#linear-gradient-2"/>
        <linearGradient id="linear-gradient-13" x1=".001" x2="1" y1=".5" y2=".5" xlink:href="#linear-gradient-6"/>
        <linearGradient id="linear-gradient-14" x1="-.04" x2=".237" y1=".155" y2=".332" xlink:href="#linear-gradient-2"/>
        <linearGradient id="linear-gradient-16" x1="0" x2="1" y1=".5" y2=".5" xlink:href="#linear-gradient-6"/>
        <linearGradient id="linear-gradient-17" x2="1" y1=".5" y2=".5" gradientUnits="objectBoundingBox">
            <stop offset="0" stop-color="#311944"/>
            <stop offset="1" stop-color="#893976"/>
        </linearGradient>
        <linearGradient id="linear-gradient-19" x1=".78" x2="-.177" y1="-.462" y2="2.769" gradientUnits="objectBoundingBox">
            <stop offset="0" stop-color="#ffc444"/>
            <stop offset="1" stop-color="#f36f56"/>
        </linearGradient>
        <linearGradient id="linear-gradient-20" x1="6.138" x2="6.668" y1="1.59" y2="1.59" gradientUnits="objectBoundingBox">
            <stop offset="0" stop-color="#ffc444"/>
            <stop offset=".31" stop-color="#fba94a"/>
            <stop offset="1" stop-color="#f36f56"/>
        </linearGradient>
        <linearGradient id="linear-gradient-21" x1="22.828" x2="23.758" y1="15.423" y2="15.423" xlink:href="#linear-gradient-20"/>
        <linearGradient id="linear-gradient-22" x1="26.466" x2="27.376" y1="16.004" y2="16.004" xlink:href="#linear-gradient-20"/>
        <linearGradient id="linear-gradient-23" x1="36.403" x2="37.271" y1="17.306" y2="17.306" xlink:href="#linear-gradient-20"/>
        <linearGradient id="linear-gradient-24" x1="34.514" x2="35.544" y1="16.119" y2="16.119" xlink:href="#linear-gradient-20"/>
        <linearGradient id="linear-gradient-25" x1="50.83" x2="52.067" y1="17.023" y2="17.023" xlink:href="#linear-gradient-20"/>
        <linearGradient id="linear-gradient-26" x1="7.002" x2="7.23" y1="1.592" y2="1.592" xlink:href="#linear-gradient-20"/>
        <linearGradient id="linear-gradient-27" x2="1" y1=".5" y2=".5" gradientUnits="objectBoundingBox">
            <stop offset="0" stop-color="#e38ddd"/>
            <stop offset="1" stop-color="#9571f6"/>
        </linearGradient>
        <linearGradient id="linear-gradient-28" x1="14.914" x2="15.014" y1="13.371" y2="15.004" xlink:href="#linear-gradient-27"/>
        <linearGradient id="linear-gradient-29" x1="12.852" x2="14.071" y1="6.073" y2="8.845" xlink:href="#linear-gradient-27"/>
        <linearGradient id="linear-gradient-30" x2="1" y1=".5" y2=".5" gradientUnits="objectBoundingBox">
            <stop offset="0" stop-color="#b7de68"/>
            <stop offset="1" stop-color="#9c3"/>
        </linearGradient>
        <linearGradient id="linear-gradient-31" x1="10.475" x2="11.425" y1="15.288" y2="15.288" xlink:href="#linear-gradient-30"/>
        <linearGradient id="linear-gradient-32" x1="8.72" x2="9.902" y1="5.574" y2="5.574" xlink:href="#linear-gradient-30"/>
        <linearGradient id="linear-gradient-33" x1="14.529" x2="19.51" y1="6.51" y2="4.587" xlink:href="#linear-gradient-19"/>
        <linearGradient id="linear-gradient-34" x1="0" x2="1" y1=".5" y2=".5" xlink:href="#linear-gradient-30"/>
        <linearGradient id="linear-gradient-35" x1="15.133" x2="15.982" y1="16.379" y2="16.379" xlink:href="#linear-gradient-30"/>
        <linearGradient id="linear-gradient-36" x1="0" x2="1" y1=".5" y2=".5" xlink:href="#linear-gradient-27"/>
        <linearGradient id="linear-gradient-37" x1="20.894" x2="22.171" y1="8.951" y2="8.951" xlink:href="#linear-gradient-27"/>
        <linearGradient id="linear-gradient-38" x1="0" x2="1" y1=".5" y2=".5" xlink:href="#linear-gradient-30"/>
        <linearGradient id="linear-gradient-39" x1="12.29" x2="13.207" y1="9.417" y2="9.417" xlink:href="#linear-gradient-30"/>
        <linearGradient id="linear-gradient-40" x1="31.869" x2="31.83" y1="26.352" y2="29.723" xlink:href="#linear-gradient-19"/>
        <linearGradient id="linear-gradient-41" x1=".477" x2=".555" y1="1.506" y2="-1.696" gradientUnits="objectBoundingBox">
            <stop offset="0" stop-color="#aa80f9"/>
            <stop offset="1" stop-color="#6165d7"/>
        </linearGradient>
        <linearGradient id="linear-gradient-42" x1=".208" x2=".894" y1=".496" y2=".511" gradientUnits="objectBoundingBox">
            <stop offset="0" stop-color="#ebeff2"/>
            <stop offset="1" stop-color="#fff"/>
        </linearGradient>
        <linearGradient id="linear-gradient-44" x1=".248" x2=".663" y1=".336" y2=".612" xlink:href="#linear-gradient-42"/>
        <linearGradient id="linear-gradient-45" x1="0" x2="1" y1=".5" y2=".5" xlink:href="#linear-gradient-42"/>
        <linearGradient id="linear-gradient-46" x1="0" x2="1" y1=".5" y2=".5" xlink:href="#linear-gradient-42"/>
        <linearGradient id="linear-gradient-47" x1="0" x2="1" y1=".5" y2=".5" xlink:href="#linear-gradient-42"/>
        <linearGradient id="linear-gradient-48" x1="0" x2="1" y1=".5" y2=".5" xlink:href="#linear-gradient-42"/>
        <linearGradient id="linear-gradient-49" x1=".461" x2=".586" y1="1.297" y2="-1.443" xlink:href="#linear-gradient-42"/>
        <linearGradient id="linear-gradient-50" x1="0" x2="1" y1=".5" y2=".5" xlink:href="#linear-gradient-17"/>
        <linearGradient id="linear-gradient-51" x2="1" y1=".5" y2=".5" gradientUnits="objectBoundingBox">
            <stop offset="0" stop-color="#ff9085"/>
            <stop offset="1" stop-color="#fb6fbb"/>
        </linearGradient>
        <linearGradient id="linear-gradient-53" x1="0" x2="1" y1=".5" y2=".5" xlink:href="#linear-gradient-19"/>
        <linearGradient id="linear-gradient-54" x1="-.416" x2=".839" y1=".5" y2=".5" xlink:href="#linear-gradient-19"/>
        <linearGradient id="linear-gradient-57" x1=".641" x2="-.421" y1=".148" y2="2.372" xlink:href="#linear-gradient-19"/>
        <linearGradient id="linear-gradient-58" x1=".342" x2="1.168" y1=".665" y2="-.105" xlink:href="#linear-gradient-51"/>
        <linearGradient id="linear-gradient-59" x1=".294" x2=".908" y1=".71" y2=".142" xlink:href="#linear-gradient-51"/>
        <linearGradient id="linear-gradient-60" x1=".386" x2="1.092" y1=".647" y2="-.008" xlink:href="#linear-gradient-51"/>
        <linearGradient id="linear-gradient-61" x1="-4.523" x2="-4.969" y1="-2.98" y2="-2.177" xlink:href="#linear-gradient"/>
        <linearGradient id="linear-gradient-62" x1="-11.66" x2="-11.66" y1="-6.154" y2="-3.327" xlink:href="#linear-gradient"/>
        <style>
            .cls-3{opacity:.8}.cls-4{fill:#fff}.cls-10{fill:#c2c2c2}.cls-12{fill:url(#linear-gradient-8)}.cls-18{fill:#999}.cls-21{fill:url(#linear-gradient-17)}.cls-34{opacity:.3}.cls-42{fill:url(#linear-gradient-38)}.cls-46{fill:#d8dee8}.cls-49{fill:#e6e6e6}
        </style>
    </defs>
    <g id="KlikGO_Illustrations-07" transform="translate(-.003 .001)">
        <g id="Layer_2" transform="translate(.003 -.001)">
            <g id="Illustration">
                <path id="Path_4409" fill="#f4f7fa" d="M166.988 194c-15.359 4.942-20.738-11.3-57.969-20.823-47.061-12.041-65.232 7.613-85.618-7.128-28.168-20.36-31.171-79.926-7.553-118.097 1.3-2.1 26.588-41.7 68.427-47.17.984-.129 1.719-.2 2.362-.27 6.226-.659 44.809-4.139 76.269 22.219a95.391 95.391 0 0 1 18.471 20.958C213.973 94.1 200.353 183.27 166.988 194z" transform="translate(-.003 .001)"/>
                <path id="Path_4410" fill="url(#linear-gradient)" d="M958.389 441.766l.107-.011c5.793-.562 12.6-3 16.139-7.88a12.662 12.662 0 0 0 2.5-8.736 18.457 18.457 0 0 0-1.275-5.575 16.662 16.662 0 0 0-3.392-4.894 27.045 27.045 0 0 0-2.475-2.228c-2.477-1.982-7.713-4.309-6.614-8.322.664-2.426 3.125-4.456 4.588-6.417 3.128-4.193 4.778-9.492 3.458-14.707-1.036-4.1-4.656-7.476-8.265-9.47-14.69-8.114-11.041-29.618-27.317-23.753s-15.55 23.443-5.252 37.346c3.448 4.654 7.378 9.306 10.218 14.37 2.234 3.987 1.427 7.358-1.4 10.8-1.519 1.849-4.017 3.492-5.227 5.519-2.7 4.529-4.307 10.308-2.068 15.333 2.221 4.985 7.659 7.652 12.859 8.41a55.281 55.281 0 0 0 13.416.215z" transform="translate(-858.311 -324.265)"/>
                <g id="Group_4383" class="cls-3" transform="translate(81.06 44.66)">
                    <path id="Path_4411" d="M1173.44 703.45a.351.351 0 0 0 .2-.545c-.12-.174-12.062-17.657-10.048-34.691 2.047-17.313-9.218-32.334-9.333-32.484a.354.354 0 1 0-.562.429c.112.148 11.205 14.949 9.193 31.971-2.045 17.3 10.048 35 10.17 35.177a.351.351 0 0 0 .38.143z" class="cls-4" transform="translate(-1153.626 -635.592)"/>
                </g>
                <path id="Path_4412" fill="url(#linear-gradient-2)" d="M447.151 162.044a45.6 45.6 0 0 0-2.8-6.788 53.477 53.477 0 0 1-6.043-22.425c-.294-6.369 1.5-13.094 1.953-19.473a82.342 82.342 0 0 0-.507-13.879c-.969-9.8-3.22-21.458-10.138-29-3.2-3.489-8.854-5.226-13.561-4.555-6.11.869-12.148 4.089-14.132 10.245-2.728 8.463 2.262 20.052-6 26.329-12.658 9.614-11.724 24.211-.379 34.2 3.7 3.254 8.167 6.543 10.865 10.763s-.891 9.31-2.379 13.388c-1.4 3.827-3 8.279-1.371 12.287 2.74 6.762 12.285 11.888 18.761 14.176 6.267 2.214 13.733 3.407 19.56-.552 8.773-5.96 8.995-15.845 6.171-24.716z" transform="translate(-359.55 -61.165)"/>
                <g id="Group_4384" class="cls-3" transform="translate(57.912 36.281)">
                    <path id="Path_4413" d="M837.023 602.835a.325.325 0 0 1-.241-.281c-.065-.6-6.512-60.7-12.583-85.818a.325.325 0 1 1 .632-.152c6.082 25.164 12.533 85.3 12.6 85.9a.326.326 0 0 1-.406.351z" class="cls-4" transform="translate(-824.19 -516.334)"/>
                </g>
                <path id="Path_4414" fill="url(#linear-gradient-3)" d="M171.47 1126.927c1.43.165 2.864.3 4.29.435 3.986.385 9.037.43 11.354-3.525.66-1.124.637-3.451.824-4.751a33.175 33.175 0 0 0 .374-4 20.434 20.434 0 0 0-.644-5.455c-.781-3.106-1.951-5.6-4.961-7.039a34.227 34.227 0 0 0-7.1-2.362c-12.923-2.924-13.291-7.956-17.751-19.662s-54.933-7.834-31.578 16.993c0 0 3.487 3.827 19.284 6.043 2.889.405 6.493 1.114 8.4 3.548 3.357 4.293-2.628 9.972.913 13.737 2.064 2.2 5.912 3.687 8.719 4.536a44.775 44.775 0 0 0 7.876 1.502z" transform="translate(-111.7 -998.749)"/>
                <g id="Group_4385" class="cls-3" transform="translate(22.586 85.78)">
                    <path id="Path_4415" d="M368.556 1260.129a.324.324 0 0 1-.221-.2c-.051-.132-5.283-13.274-16.109-18.88-4.235-2.192-7.53-5.486-10.717-8.671-5.374-5.37-10.449-10.443-19.762-10.948a.325.325 0 0 1 .035-.65c9.562.518 14.967 5.917 20.187 11.138 3.151 3.149 6.41 6.407 10.556 8.553 11.042 5.72 16.361 19.087 16.413 19.221a.325.325 0 0 1-.385.434z" class="cls-4" transform="translate(-321.438 -1220.783)"/>
                </g>
                <path id="Path_4416" fill="url(#linear-gradient-4)" d="M693.873 2464.466c0 2.948-1.816 5.337-4.056 5.337s-4.056-2.389-4.056-5.337 1.816-5.336 4.056-5.336 4.056 2.389 4.056 5.336z" transform="translate(-637.575 -2286.337)"/>
                <path id="Path_4417" fill="url(#linear-gradient-5)" d="M709.954 2465.177c0 2.947-1.816 5.336-4.057 5.336s-4.056-2.389-4.056-5.336 1.816-5.337 4.056-5.337 4.057 2.389 4.057 5.337z" transform="translate(-652.525 -2286.997)"/>
                <path id="Path_4418" fill="url(#linear-gradient-6)" d="M738.77 2507.727a1.764 1.764 0 1 1-1.7-2.237 2.024 2.024 0 0 1 1.7 2.237z" transform="translate(-683.699 -2329.439)"/>
                <path id="Path_4419" d="M743.49 2437.288v5.859a1.558 1.558 0 0 0 1.558 1.558 1.557 1.557 0 0 0 1.258-.639l5.27-7.217z" class="cls-10" transform="translate(-691.248 -2265.622)"/>
                <path id="Path_4420" fill="url(#linear-gradient-7)" d="M1311.984 2397.866c0 2.951-1.816 5.34-4.056 5.34s-4.057-2.389-4.057-5.34 1.816-5.336 4.057-5.336 4.056 2.389 4.056 5.336z" transform="translate(-1212.253 -2224.417)"/>
                <path id="Path_4421" d="M1328.074 2398.53c0 2.947-1.816 5.337-4.057 5.337s-4.056-2.389-4.056-5.337 1.816-5.34 4.056-5.34 4.057 2.393 4.057 5.34z" class="cls-12" transform="translate(-1227.212 -2225.03)"/>
                <path id="Path_4422" fill="url(#linear-gradient-9)" d="M1356.89 2441.136a1.764 1.764 0 1 1-1.7-2.236 2.024 2.024 0 0 1 1.7 2.236z" transform="translate(-1258.386 -2267.528)"/>
                <path id="Path_4423" d="M1361.61 2370.7v5.86a1.558 1.558 0 0 0 1.558 1.558 1.557 1.557 0 0 0 1.258-.64l5.27-7.216z" class="cls-10" transform="translate(-1265.935 -2203.711)"/>
                <path id="Path_4424" d="M720.774 1002.441a1.064 1.064 0 0 1-.117-2.121l51.435-5.8a7.472 7.472 0 0 0 5.887-5.41l20.166-87.948a10.364 10.364 0 0 1 9.295-7.649l15.645-.932a1.064 1.064 0 1 1 .126 2.124l-15.636.932a8.232 8.232 0 0 0-7.378 6.077l-20.166 87.948a9.622 9.622 0 0 1-7.643 6.965l-51.494 5.807a.974.974 0 0 1-.12.007z" class="cls-10" transform="translate(-669.138 -829.864)"/>
                <path id="Path_4425" d="M1050.158 1307.658a1.065 1.065 0 0 1-1.022-.773l-12.112-42.382a1.064 1.064 0 1 1 2.046-.585l12.112 42.382a1.065 1.065 0 0 1-1.023 1.357z" class="cls-10" transform="translate(-964.118 -1174.39)"/>
                <path id="Path_4426" d="M1287.916 1287.752a1.063 1.063 0 0 1-1.046-.878l-7.471-41.982a1.064 1.064 0 1 1 2.095-.373l7.471 41.982a1.063 1.063 0 0 1-.861 1.233 1.008 1.008 0 0 1-.188.017z" class="cls-10" transform="translate(-1189.486 -1156.256)"/>
                <path id="Path_4427" d="M1496.321 1274.047h-.045a1.063 1.063 0 0 1-1.018-1.107l1.724-41.538a1.043 1.043 0 0 1 1.107-1.019 1.064 1.064 0 0 1 1.018 1.107l-1.724 41.538a1.064 1.064 0 0 1-1.062 1.019z" class="cls-10" transform="translate(-1390.191 -1143.927)"/>
                <path id="Path_4428" d="M781.718 1329.5a1.065 1.065 0 0 1-1.008-.726l-14.224-42.4a1.064 1.064 0 1 1 2.017-.677l14.221 42.4a1.065 1.065 0 0 1-.67 1.347 1.076 1.076 0 0 1-.336.056z" class="cls-10" transform="translate(-712.576 -1194.68)"/>
                <path id="Path_4429" fill="url(#linear-gradient-10)" d="M2220.451 881a1.36 1.36 0 0 1-.177-.008l-35-2.877a2.128 2.128 0 1 1 .351-4.241l35 2.878a2.128 2.128 0 0 1-.171 4.248z" transform="translate(-2029.906 -812.461)"/>
                <path id="Path_4430" fill="url(#linear-gradient-11)" d="M1216.533 2561.567c0 2.951-1.816 5.34-4.057 5.34s-4.056-2.389-4.056-5.34 1.816-5.337 4.056-5.337 4.057 2.39 4.057 5.337z" transform="translate(-1123.51 -2376.614)"/>
                <path id="Path_4431" fill="url(#linear-gradient-12)" d="M1232.644 2562.24c0 2.947-1.816 5.337-4.057 5.337s-4.057-2.389-4.057-5.337 1.816-5.34 4.057-5.34 4.057 2.4 4.057 5.34z" transform="translate(-1138.488 -2377.237)"/>
                <path id="Path_4432" fill="url(#linear-gradient-13)" d="M1261.4 2604.836a1.765 1.765 0 1 1-1.7-2.237 2.024 2.024 0 0 1 1.7 2.237z" transform="translate(-1169.606 -2419.726)"/>
                <path id="Path_4433" d="M1266.15 2534.4v5.859a1.558 1.558 0 0 0 1.558 1.558 1.559 1.559 0 0 0 1.258-.639l5.27-7.217z" class="cls-18" transform="translate(-1177.183 -2355.909)"/>
                <path id="Path_4434" fill="url(#linear-gradient-14)" d="M1751.644 2507.95c0 2.947-1.816 5.336-4.057 5.336s-4.057-2.389-4.057-5.336 1.816-5.34 4.057-5.34 4.057 2.39 4.057 5.34z" transform="translate(-1621.02 -2326.762)"/>
                <path id="Path_4435" d="M1767.774 2508.66c0 2.948-1.816 5.337-4.057 5.337s-4.056-2.389-4.056-5.337 1.816-5.34 4.056-5.34 4.057 2.393 4.057 5.34z" class="cls-12" transform="translate(-1636.016 -2327.422)"/>
                <path id="Path_4436" fill="url(#linear-gradient-16)" d="M1796.59 2551.238a1.765 1.765 0 1 1-1.7-2.238 2.024 2.024 0 0 1 1.7 2.238z" transform="translate(-1667.19 -2369.892)"/>
                <path id="Path_4437" d="M1801.31 2480.809v5.859a1.558 1.558 0 0 0 1.558 1.558 1.558 1.558 0 0 0 1.258-.639l5.27-7.217z" class="cls-18" transform="translate(-1674.74 -2306.084)"/>
                <path id="Path_4438" d="M473.287 1213.69a1.064 1.064 0 0 1-.075-2.126l91.606-6.594a1.15 1.15 0 0 1 .255.013l37.927 6.459a1.065 1.065 0 0 1-.358 2.1l-37.8-6.438-91.478 6.585z" class="cls-10" transform="translate(-439.034 -1120.3)"/>
                <path id="Path_4439" d="M899.7 1835.2a1.056 1.056 0 0 1-.163-.013l-37.318-5.725-56.775 5.465a1.064 1.064 0 0 1-.2-2.119l56.906-5.481a1.058 1.058 0 0 1 .263.008l37.452 5.745a1.064 1.064 0 0 1-.16 2.116z" class="cls-10" transform="translate(-747.761 -1698.927)"/>
                <path id="Path_4440" d="M815.32 1161.889l51.407-4.419v43.379z" class="cls-21" transform="translate(-758.031 -1076.139)"/>
                <path id="Path_4441" d="M1546.92 1157.47l28.4 9.107-28.4 7.826z" class="cls-21" transform="translate(-1438.224 -1076.139)"/>
                <path id="Path_4442" fill="url(#linear-gradient-19)" d="M1546.2 1086.95l14.2-5.33 28.233 8.636-14.032 5.8z" transform="translate(-1437.555 -1005.619)"/>
                <path id="Path_4443" fill="url(#linear-gradient-20)" d="M1300.142 629.849c-7.009 22.848-10.323 39-16.5 37.109a3.494 3.494 0 0 1-1.358-.8c-1.568-1.455-2.486-4.522-2.771-8.748a51.349 51.349 0 0 1-.036-5.692c.108-2.41.356-5.037.739-7.835.255-1.849.492-3.794.872-5.779.623-3.3 1.5-6.76 2.244-10.411V627.668l1.7-5.544a73.471 73.471 0 0 1 2.962-8.442.691.691 0 0 1 .028-.07c.126-.41.261-.814.408-1.209.013-.042.031-.086.047-.126.249-.691.524-1.363.807-2.025.034-.084.07-.164.1-.246l.724-1.693.046-.112c1.374-3.288 2.8-6.332 4.243-9.074.962-1.834 1.934-3.531 2.9-5.075 4.356-6.956 8.609-10.791 11.718-9.837a2.2 2.2 0 0 1 .26.095c5.698 2.399-2.224 23.017-9.133 45.539z" transform="translate(-1189.518 -543.027)"/>
                <path id="Path_4444" fill="url(#linear-gradient-21)" d="M1500.728 730.67c-.469 1.532-3.36 2.01-6.453 1.061a11.038 11.038 0 0 1-1.476-.566c.962-1.834 1.934-3.531 2.9-5.075.095.025.189.054.281.083 3.093.948 5.22 2.962 4.748 4.497z" opacity="0.4" transform="translate(-1387.907 -675.07)"/>
                <path id="Path_4445" fill="url(#linear-gradient-22)" d="M1407.972 933.409c-.47 1.532-3.352 1.982-6.444 1.033-.184-.056-.38-.07-.558-.141.694-1.866 1.436-3.678 2.147-5.361l.09.028c3.093.95 5.236 2.906 4.765 4.441z" opacity="0.4" transform="translate(-1302.53 -863.667)"/>
                <path id="Path_4446" fill="url(#linear-gradient-23)" d="M1340.321 1131.777c-.4 1.32-2.61 1.856-5.191 1.372V1133.124l1.655-5.4c2.415 1.049 3.943 2.729 3.536 4.053z" opacity="0.4" transform="translate(-1241.316 -1048.489)"/>
                <path id="Path_4447" fill="url(#linear-gradient-24)" d="M1296.405 1357.509c-.427 1.39-2.84 1.911-5.6 1.29.255-1.849.492-3.794.872-5.779 3.081.952 5.198 2.958 4.728 4.489z" opacity="0.4" transform="translate(-1200.11 -1257.949)"/>
                <path id="Path_4448" fill="url(#linear-gradient-25)" d="M1283.259 1550.953c-.328 1.067-1.827 1.622-3.745 1.539a51.349 51.349 0 0 1-.036-5.692c2.557 1.033 4.201 2.784 3.781 4.153z" opacity="0.4" transform="translate(-1189.518 -1438.113)"/>
                <path id="Path_4449" fill="url(#linear-gradient-26)" d="M1338.1 632.985c-7.009 22.848-10.323 39-16.5 37.109a3.494 3.494 0 0 1-1.358-.8c1.069-1.763 2.711-3.919 4.531-6.508 3.68-5.242 8.761-19.674 10.431-31.452s7.75-29.006 10.8-37.762a17.314 17.314 0 0 0 1.237-6.127c5.686 2.4-2.236 23.018-9.141 45.54z" opacity="0.4" transform="translate(-1227.472 -546.163)"/>
                <path id="Path_4450" fill="url(#linear-gradient-27)" d="M1422.7 1357a7.546 7.546 0 0 0 .048 2.434 2.8 2.8 0 0 0 .995 2.038 2.243 2.243 0 0 0 .471.27 2.639 2.639 0 0 1 .572.219c.267.195.381.611.592.864a2.937 2.937 0 0 0 2 1.046 1.692 1.692 0 0 1 .562.108 3 3 0 0 1 .516.405 1.73 1.73 0 0 0 1.086.371 4 4 0 0 0 1.115-.2c.426-.126.85-.255 1.275-.382s.851-.246 1.271-.383a2.483 2.483 0 0 0 .959-.517 2.529 2.529 0 0 0 .552-1 1.293 1.293 0 0 1 .281-.492 1.14 1.14 0 0 1 .514-.211 3.732 3.732 0 0 0 1.929-1.022 2.254 2.254 0 0 0 .582-1.835c-.009-.058-.022-.116-.036-.173a.326.326 0 0 0 .156-.181 3.316 3.316 0 0 0-1.206-3.7 5.782 5.782 0 0 0-1.026-.492c-.342-.151-.507-.492-.752-.755a1.967 1.967 0 0 0-1.918-.412 1.673 1.673 0 0 1-.935-.05c-.351-.15-.662-.386-1.013-.539a1.883 1.883 0 0 0-1.124-.145 8.121 8.121 0 0 1-1.024.244 4.671 4.671 0 0 1-1.147-.247 3.864 3.864 0 0 0-1.054-.06 3.7 3.7 0 0 0-2.053.794 2.308 2.308 0 0 0-.715.949 2.391 2.391 0 0 0-.125.582.885.885 0 0 1-.141.492 5.39 5.39 0 0 1-.437.41 2.531 2.531 0 0 0-.361.463 3.178 3.178 0 0 0-.409 1.107z" transform="translate(-1322.653 -1257.179)"/>
                <path id="Path_4451" fill="url(#linear-gradient-28)" d="M1423.6 1397.42c.67 1.26 1.476 2.459 2.134 3.733a5.138 5.138 0 0 0 1.861 1.625 2.9 2.9 0 0 0 2.539.1c1.616-.6 2.626-2.076 4.443-2.282a9.17 9.17 0 0 1 3.518.245 2.261 2.261 0 0 1-.591 1.762 3.721 3.721 0 0 1-1.929 1.022 1.234 1.234 0 0 0-.514.211 1.146 1.146 0 0 0-.281.492 1.979 1.979 0 0 1-1.511 1.518c-.422.141-.847.256-1.271.383s-.849.256-1.275.382a3.872 3.872 0 0 1-1.115.2 1.729 1.729 0 0 1-1.086-.371 3 3 0 0 0-.516-.406 1.706 1.706 0 0 0-.562-.108 2.937 2.937 0 0 1-2-1.046c-.211-.254-.325-.67-.592-.864a2.819 2.819 0 0 0-.573-.219 2.261 2.261 0 0 1-.47-.27 2.8 2.8 0 0 1-.995-2.038 7.549 7.549 0 0 1-.048-2.434 3.18 3.18 0 0 1 .411-1.1 2.531 2.531 0 0 1 .361-.463.392.392 0 0 1 .062-.072z" opacity="0.3" transform="translate(-1322.719 -1299.229)"/>
                <path id="Path_4452" fill="url(#linear-gradient-29)" d="M1366.238 1211.554a4.547 4.547 0 0 0-2.658-1.53 2.67 2.67 0 0 0-1.024-2.857 3.929 3.929 0 0 0-3.926-.162 4.678 4.678 0 0 0-5.848 5.982 3.073 3.073 0 0 0-2.085 2.08 3.258 3.258 0 0 0 1.17 3.431 19.386 19.386 0 0 0 1.664 1.1 6.717 6.717 0 0 1 1.457 1.454 4.524 4.524 0 0 0 3.7 1.627 4.439 4.439 0 0 0 3.174-1.677 3.593 3.593 0 0 0 2.563.334 4.162 4.162 0 0 0 2.811-2.228 7.326 7.326 0 0 0-.998-7.554z" transform="translate(-1255.676 -1121.78)"/>
                <path id="Path_4453" fill="url(#linear-gradient-30)" d="M1448.476 1085.146a7.437 7.437 0 0 0 3.513-1.616c1.034-1.03.859-3.113 1.279-3.64s1.657-.9 2.464-1.9c1.17-1.44 1.554-3.423.708-4.638-.363-.523-1.426-1.362-1.281-2.13a4.2 4.2 0 0 0 1.2-3.419 5.82 5.82 0 0 0-4.9-5.458c-.723-.422-.632-2.043-2.524-2.825s-3.081.422-3.771.022a9.141 9.141 0 0 0-4.044-1.455 6.942 6.942 0 0 0-5.294 2.432 7.548 7.548 0 0 0-.919 1.265c-.11.187-.141.255-.351.264-.254.012-.5.008-.758.035a6.761 6.761 0 0 0-2.8.8 6.107 6.107 0 0 0-2.749 4.677c-.105 1.637 1.535 4.567 1.362 5.059s-1.865 2.09-1.788 4.05a6.276 6.276 0 0 0 3.591 5.642c.995.481 3.741 1.117 4.467 1.6s.583 2.811 1.721 3.848c1.236 1.124 2.59 1.048 4.487.508 1.027-.292 1.646-.156 2.494-.86a3.427 3.427 0 0 0 3.085-1.041c.363-.358.141-1.126.808-1.22z" transform="translate(-1327.487 -983.74)"/>
                <g id="Group_4386" class="cls-34" transform="translate(100.331 74.348)">
                    <path id="Path_4454" fill="url(#linear-gradient-31)" d="M1551.768 1064.839c-2.6-.375-4.488 1.8-6.908 2.1s-3-2.869-4.329-4.5a3.509 3.509 0 0 0-1.714-1.354 6.155 6.155 0 0 0-2.937-.051 6.245 6.245 0 0 1 .422-.511 6.943 6.943 0 0 1 5.294-2.433 9.079 9.079 0 0 1 4.044 1.455c.689.4 1.88-.8 3.771-.022s1.8 2.4 2.524 2.825a5.766 5.766 0 0 1 4.778 4.581l-.154-.117a9.27 9.27 0 0 0-4.791-1.973z" transform="translate(-1528.291 -1058.087)"/>
                    <path id="Path_4455" fill="url(#linear-gradient-32)" d="M1431.048 1117.464a5.547 5.547 0 0 1 1.913-.674c-1.022.865-2.471 2.01-1.793 3.241 1.124 2.059 3.488 3.354 4.158 5.782.685 2.589-1.861 4.208-3.935 5.172a1.225 1.225 0 0 0-.537 1.722 5.944 5.944 0 0 0 4.216 3.737c4.533.933 8.822-.351 13.405-.65 1.214-.11 2.273.773 3.193 1.464.432-.384.849-.782 1.256-1.191a3.872 3.872 0 0 1-.875 2.038 7.433 7.433 0 0 1-3.513 1.616c-.664.092-.445.862-.815 1.223a3.428 3.428 0 0 1-3.085 1.041c-.849.7-1.468.568-2.494.86-1.9.54-3.251.614-4.487-.508-1.138-1.034-1-3.362-1.721-3.848s-3.472-1.12-4.467-1.6a6.273 6.273 0 0 1-3.591-5.642c-.077-1.96 1.616-3.56 1.788-4.05s-1.467-3.422-1.362-5.059a6.093 6.093 0 0 1 2.746-4.674z" transform="translate(-1427.874 -1112.665)"/>
                </g>
                <path id="Path_4456" fill="url(#linear-gradient-33)" d="M1509.294 1205.781c6.675 5.35 8.579 14.974 8.579 14.974l6.216-3.889c-8.513-9.773-6.528-13.809-6.6-17.983 0 0-.518-1.016-.877.15a17.371 17.371 0 0 0-.025 5.884c-2.01-2.976-1.695-5.576-2.393-6.372-.238-.271-.9-.195-.9-.195a52.2 52.2 0 0 0 4.79 14.615s-4.266-7.4-6.662-9.074c-.448-.3-.757.079-.4.787a22.8 22.8 0 0 1 2.31 3.451c-2.142-1.853-2.5-2.3-3.255-2.928s-1.127-.124-.783.58z" transform="translate(-1403.123 -1114.138)"/>
                <path id="Path_4457" fill="url(#linear-gradient-34)" d="M1703.423 1184.585a2.234 2.234 0 0 0 1.606-1.858 4.606 4.606 0 0 0-.713-3.174 4.786 4.786 0 0 0-5.068-2.05 1.957 1.957 0 0 0-1.55-1.074 1.841 1.841 0 0 0-1.532.632 3.5 3.5 0 0 0-1.011.093 1.957 1.957 0 0 0-1.509 1.757 3.358 3.358 0 0 0-1.8 2.936 2.86 2.86 0 0 0 .667 2.3c.252.245.59.3.621.676a3.449 3.449 0 0 0 .211 1.054 3.185 3.185 0 0 0 1.447 1.578 2.863 2.863 0 0 0 .9.3 10.107 10.107 0 0 1 1.124.013 2.257 2.257 0 0 1 .538.376 2.272 2.272 0 0 0 1.523.435 4.156 4.156 0 0 0 1.9-.672 5.205 5.205 0 0 0 2.646-3.322z" transform="translate(-1572.958 -1093.762)"/>
                <path id="Path_4458" fill="url(#linear-gradient-35)" d="M1693.742 1243.223c.317.338.78.949 1.008.765 2.082-1.781 4.767-.516 7.093-.074 1.368.242 2.089-1.251 2.486-2.267a7.815 7.815 0 0 0 .484-1.546 4.172 4.172 0 0 1 .113 1.827 2.231 2.231 0 0 1-1.606 1.858 5.178 5.178 0 0 1-2.653 3.319 4.151 4.151 0 0 1-1.9.672 2.273 2.273 0 0 1-1.523-.435 2.257 2.257 0 0 0-.538-.376 10.087 10.087 0 0 0-1.124-.013 2.864 2.864 0 0 1-.9-.3 3.185 3.185 0 0 1-1.447-1.578 3.544 3.544 0 0 1-.211-1.054c-.031-.38-.369-.431-.621-.676a2.859 2.859 0 0 1-.667-2.3c0-.06.01-.12.018-.181.661.779 1.273 1.581 1.988 2.359z" opacity="0.3" transform="translate(-1572.856 -1152.963)"/>
                <path id="Path_4459" fill="url(#linear-gradient-36)" d="M1376.526 1234.687a8.682 8.682 0 0 0-2.483-1.28 3.212 3.212 0 0 0-2.6-.11 2.654 2.654 0 0 0-.529.328 3.165 3.165 0 0 1-.533.458c-.342.164-.825.051-1.194.125a3.377 3.377 0 0 0-2.15 1.452 1.969 1.969 0 0 1-.417.51 3.446 3.446 0 0 1-.691.3 1.986 1.986 0 0 0-.968.894 4.4 4.4 0 0 0-.406 1.234q-.159.748-.311 1.5c-.1.5-.216.993-.307 1.492a2.827 2.827 0 0 0 0 1.251 2.927 2.927 0 0 0 .708 1.1 1.36 1.36 0 0 1 .337.554 1.39 1.39 0 0 1-.066.632 4.3 4.3 0 0 0-.023 2.5 2.578 2.578 0 0 0 1.535 1.59c.064.022.129.042.195.058a.374.374 0 0 0 .1.256 3.8 3.8 0 0 0 4.39.8 6.378 6.378 0 0 0 1.054-.767 2.947 2.947 0 0 1 1.173-.346c.866-.221 1.182-.942 1.462-1.711a1.889 1.889 0 0 1 .562-.913c.344-.274.75-.458 1.1-.727a2.161 2.161 0 0 0 .759-1.054 8.887 8.887 0 0 1 .313-1.167 5.365 5.365 0 0 1 .876-1.024 4.415 4.415 0 0 0 .637-1.034 4.25 4.25 0 0 0 .32-2.506 2.644 2.644 0 0 0-.567-1.24 2.73 2.73 0 0 0-.519-.444 1.029 1.029 0 0 1-.422-.415 6.178 6.178 0 0 1-.176-.665 2.842 2.842 0 0 0-.271-.618 3.637 3.637 0 0 0-.888-1.013z" transform="translate(-1268.031 -1146.422)"/>
                <path id="Path_4460" fill="url(#linear-gradient-37)" d="M1365.944 1253.58a3.4 3.4 0 0 0 .692-.3 1.949 1.949 0 0 0 .416-.51 3.416 3.416 0 0 1 1.628-1.3l-.168.267a1.926 1.926 0 0 0-.2.507c-.736 1.335-2.067 2.84-1.331 4.2.351.743 1.361 1.06 1.751 1.757.663 1 .251 2.3.479 3.466.118.843-.037 1.839.935 2.2a7.787 7.787 0 0 0 5 .074 2.572 2.572 0 0 0-.336.683c-.281.773-.6 1.49-1.462 1.711a2.948 2.948 0 0 0-1.173.346 6.492 6.492 0 0 1-1.054.767 3.8 3.8 0 0 1-4.391-.8.374.374 0 0 1-.1-.256c-.066-.017-.131-.036-.195-.058a2.584 2.584 0 0 1-1.535-1.59 4.285 4.285 0 0 1 .023-2.5 1.4 1.4 0 0 0 .066-.632 1.371 1.371 0 0 0-.337-.554 2.9 2.9 0 0 1-.708-1.1 2.943 2.943 0 0 1 0-1.251c.091-.5.2-.995.307-1.492s.205-1 .311-1.5a4.447 4.447 0 0 1 .406-1.234 1.986 1.986 0 0 1 .976-.901z" transform="translate(-1268.049 -1163.534)"/>
                <path id="Path_4461" d="M1521.893 1109.692a4.723 4.723 0 0 0-3.015.984 2.762 2.762 0 0 0-2.906-1.188 4.068 4.068 0 0 0-2.84 2.907 5.009 5.009 0 0 0-2.153 2.657 4.957 4.957 0 0 0 2.709 5.978 3.18 3.18 0 0 0 .157 3.042 3.377 3.377 0 0 0 3.448 1.476 19.356 19.356 0 0 0 2-.517 6.963 6.963 0 0 1 2.126-.115 4.677 4.677 0 0 0 3.808-1.714 4.585 4.585 0 0 0 .906-3.6 3.706 3.706 0 0 0 2.03-1.739 4.313 4.313 0 0 0 .233-3.7 7.58 7.58 0 0 0-6.503-4.471z" class="cls-42" transform="translate(-1404.588 -1031.468)"/>
                <path id="Path_4462" fill="url(#linear-gradient-39)" d="M1512.147 1138.6c.684 1.692 2.627 1.968 4.3 1.934 1.95-.1 2.752 1.993 4.3 2.913a.736.736 0 0 0 .935-.044c1.335-1.428 1-3.355.794-5.172-.148-.721.422-1.221 1.133-1.45a2 2 0 0 1 1.648.625 5.618 5.618 0 0 0 .44-5.874 6.989 6.989 0 0 1 2.679 3.179 4.319 4.319 0 0 1-.233 3.7 3.715 3.715 0 0 1-2.03 1.739 4.581 4.581 0 0 1-.906 3.6 4.677 4.677 0 0 1-3.808 1.715 6.94 6.94 0 0 0-2.126.115 19.5 19.5 0 0 1-2 .517 3.367 3.367 0 0 1-3.448-1.476 3.18 3.18 0 0 1-.157-3.042 4.953 4.953 0 0 1-2.709-5.978 4.884 4.884 0 0 1 1.155-1.866 6.827 6.827 0 0 0 .033 4.865z" opacity="0.3" transform="translate(-1404.571 -1052.022)"/>
                <path id="Path_4463" fill="url(#linear-gradient-40)" d="M1638.238 1457.687c-.872-.726-6.413 1.723-6.216 3.889s7.934-2.454 6.216-3.889z" transform="translate(-1517.342 -1355.141)"/>
                <path id="Path_4464" fill="url(#linear-gradient-41)" d="M1075.221 839.824l-18.091-.114v-3.453a.629.629 0 0 1 .691-.574l16.723.632a.651.651 0 0 1 .678.588z" transform="translate(-982.85 -776.962)"/>
                <path id="Path_4465" d="M1078.05 839.8l-18.11-.853v-2.716a.629.629 0 0 1 .691-.574l16.741.632a.651.651 0 0 1 .678.589z" class="cls-46" transform="translate(-985.463 -776.934)"/>
                <path id="Path_4466" d="M1204.091 1068.388l-17.711.984v-48.25l17.711-1.362z" class="cls-46" transform="translate(-1103.018 -948.106)"/>
                <path id="Path_4467" fill="url(#linear-gradient-42)" d="M1198.247 1103.513c-4.522 1.145 2.558 7.015-1.438 8.242-3.172.974-2.794-7.861-5.7-5.353-2.941 2.54.963 10.118 2.942 15.933 1.961 5.767 2.064 14.092-3.839 12.632a12.141 12.141 0 0 1-3.865-1.667v13.772l17.711-.984v-40.614a5.7 5.7 0 0 0-5.811-1.961z" transform="translate(-1102.99 -1025.806)"/>
                <path id="Path_4468" d="M951.967 1040.327l-17.7-3.67-.026-48.137 17.727 3.557z" class="cls-42" transform="translate(-868.595 -919.061)"/>
                <path id="Path_4469" fill="url(#linear-gradient-44)" d="M952.637 889.421l-17.727-3.7 8.94-7.782z" transform="translate(-869.218 -816.251)"/>
                <g id="Group_4387" class="cls-34" transform="translate(65.692 61.689)">
                    <path id="Path_4470" d="M943.85 877.94l-8.94 7.782 10.535-5.7z" class="cls-49" transform="translate(-934.91 -877.94)"/>
                </g>
                <path id="Path_4471" d="M934.51 1451.325l.006 11.262 17.7 3.671v-13.74c-2.726-2.226-4.042-4.6-8.811-5.737-3.29-.781-6.542 1.828-8.895 4.544z" class="cls-46" transform="translate(-868.846 -1344.991)"/>
                <path id="Path_4472" fill="url(#linear-gradient-45)" d="M967.528 1268.023v.019l2.881 1.961v1.507l-2.881.509v.019l4.626 1.194v1.58l-7.492-1.968v-1.672l4.375-.754v-.02l-4.378-2.958v-1.712l7.5 1.811v1.621z" transform="translate(-896.877 -1176.792)"/>
                <path id="Path_4473" fill="url(#linear-gradient-46)" d="M972.125 1220.847l-7.5-1.778v-1.8l7.495 1.738z" transform="translate(-896.85 -1131.737)"/>
                <path id="Path_4474" fill="url(#linear-gradient-47)" d="M964.59 1148.322l6.024 1.343v-3.014l1.476.316v4.746l-7.5-1.706z" transform="translate(-896.812 -1066.079)"/>
                <path id="Path_4475" fill="url(#linear-gradient-48)" d="M964.541 1034.046l3.177.656v-.019l-3.177-2.785V1030l3.557 3.222 3.942-1.857v1.938l-3.561 1.535v.02l3.562.735v1.671l-7.5-1.582z" transform="translate(-896.766 -957.626)"/>
                <path id="Path_4476" fill="url(#linear-gradient-49)" d="M1060.86 879.29h18.046l8.485 9.87-17.654 1.516z" transform="translate(-986.318 -817.506)"/>
                <path id="Path_4477" d="M1069.723 890.6l-8.863-11.312 1.089 3.294z" class="cls-49" transform="translate(-986.318 -817.506)"/>
                <path id="Path_4478" fill="url(#linear-gradient-50)" d="M1318.876 1062.032a.854.854 0 0 0-.55-.487 1.443 1.443 0 0 0-1.542.769c-1.405 2.426-.141 8.422-.141 8.422h.946c-.488-4.372.553-6.513 1.251-7.824a1.2 1.2 0 0 0 .036-.88z" transform="translate(-1223.643 -986.918)"/>
                <path id="Path_4479" fill="url(#linear-gradient-51)" d="M1205.441 1165.786a57.752 57.752 0 0 1-1.274 6.043 17.052 17.052 0 0 1-3.057 6.384c-2.331 2.74-4.663 1.216-9.934 1.216-3.389 0-4.479-1.463-6.3-4.009-2.065-2.881-4.642-5.3-5.455-8.88-.744-3.276.5-6.928 3.3-7.8.816-1.02 1.764-.7 2.834-.656.828.037 1.616.006 2.381.023a15.3 15.3 0 0 0 5.382-.736c2.759-.92 9.011-2.443 11.161.547 1.465 2.034 1.352 5.551.962 7.868z" transform="translate(-1096.349 -1074.918)"/>
                <path id="Path_4480" fill="url(#linear-gradient-51)" d="M1204.167 1206.018a17.052 17.052 0 0 1-3.057 6.384c-2.331 2.74-4.663 1.216-9.934 1.216-3.389 0-4.479-1.463-6.3-4.009-2.065-2.881-4.642-5.3-5.455-8.88-.744-3.276.5-6.928 3.3-7.8s-3.456 8.471 2.829 10.245 6.741 8.9 12.317 5.806a31.258 31.258 0 0 1 6.3-2.962z" opacity="0.3" transform="translate(-1096.349 -1109.108)"/>
                <path id="Path_4481" fill="#fff" d="M1421.464 1182.278s-5.069-.859-3.548 2.8 5.677 7.167 7.1 4.651-.616-6.506-3.552-7.451z" opacity="0.5" transform="translate(-1318.02 -1099.122)"/>
                <path id="Path_4482" fill="url(#linear-gradient-53)" d="M1261.059 1332.2l-52.229 4.95v-45.538l47.455-4.116 4.638-.4z" transform="translate(-1123.891 -1196.651)"/>
                <path id="Path_4483" fill="url(#linear-gradient-54)" d="M842.431 1229.619v45.487l-26.651-6.471-1.04-48.275 1.093.165z" transform="translate(-757.492 -1134.61)"/>
                <path id="Path_4484" fill="url(#linear-gradient-53)" d="M1261.059 1332.2l-52.229 4.95v-2.593a16.566 16.566 0 0 1 3.443-1.1c4.052-.862 11.292.642 13.822-3.572 3.25-5.42.462-12.367 6.925-16.073 3.05-1.749 6.684-1.606 10.044-2.034 2.868-.368 5.538-1.156 7.488-3.894 3.129-4.406 3.356-10.13 4.158-15.282a16.764 16.764 0 0 1 1.591-5.106l4.633-.4z" opacity="0.5" transform="translate(-1123.891 -1196.651)"/>
                <path id="Path_4485" fill="url(#linear-gradient-53)" d="M843.305 1272.773v2.65l-26.651-6.471-.974-48.252c1.386 3 1.724 6.626 1.934 9.956.422 6.666 3.132 13.022 8.981 15.043q1.153.4 2.327.86c5.98 2.372 11.855 6.205 12.152 14.483.178 4.872.626 8.61 2.231 11.731z" opacity="0.4" transform="translate(-758.366 -1134.926)"/>
                <path id="Path_4486" fill="url(#linear-gradient-57)" d="M698.088 1229.568l-15.759 11.97-22.869-11.638 10.9-9.541z" transform="translate(-613.123 -1134.61)"/>
                <path id="Path_4487" fill="url(#linear-gradient-58)" d="M1794.625 1692.45a8.877 8.877 0 0 0-1.9-3 7.338 7.338 0 0 0-3-1.791 11.823 11.823 0 0 0-8.929.754c-3.373 1.884-4.542 4.126-4.768 6.535a8.728 8.728 0 0 0 1.792 6.233 8.459 8.459 0 0 0 2.507 2.194 8.606 8.606 0 0 0 3.4 1.013c4.137.4 9.8-.747 11.3-5.259a9.889 9.889 0 0 0-.402-6.679z" transform="translate(-1651.199 -1568.571)"/>
                <path id="Path_4488" fill="url(#linear-gradient-59)" d="M1793.861 1709.486c-.819-.41-.737-1.557-1.393-2.048-1.31-.984-3.113.164-4.67.327-2.7.246-4.919-1.476-6.394-3.523-1.229-1.72-.41-3.935.164-5.817a7.817 7.817 0 0 1 .539-1.275 10.149 10.149 0 0 0-1.325.592c-3.373 1.884-4.542 4.126-4.768 6.535a8.727 8.727 0 0 0 1.792 6.233 8.456 8.456 0 0 0 2.507 2.194 8.606 8.606 0 0 0 3.4 1.013c3.771.368 8.8-.556 10.807-4.139a1.917 1.917 0 0 1-.659-.092z" opacity="0.25" transform="translate(-1651.18 -1577.898)"/>
                <path id="Path_4489" fill="url(#linear-gradient-60)" d="M1858.068 1692.451a8.875 8.875 0 0 0-1.9-3 7.338 7.338 0 0 0-3-1.791 11.958 11.958 0 0 0-7.6.162 7.825 7.825 0 0 0-.539 1.275c-.573 1.885-1.393 4.1-.164 5.817 1.476 2.048 3.687 3.769 6.394 3.523 1.556-.164 3.359-1.311 4.67-.328.656.492.573 1.639 1.393 2.048a1.913 1.913 0 0 0 .665.093 6.536 6.536 0 0 0 .492-1.12 9.9 9.9 0 0 0-.411-6.679z" transform="translate(-1714.641 -1568.572)"/>
                <path id="Path_4490" fill="url(#linear-gradient-61)" d="M1847.82 1662.793a4.689 4.689 0 0 1 2.511-.978c1.96-.141 2.594.658 2.594.658s.232-.32-1.216-1.862a3.578 3.578 0 0 1-.691-3.532 9.3 9.3 0 0 0 1.045 2.437c.653.944 1.729.783 2.154 2.223a2.183 2.183 0 0 0 .573-1.83 4.693 4.693 0 0 1 .109-2.238 5.33 5.33 0 0 0 1.066 2.119c.9 1.152-.085 2.565-.4 2.969a2.125 2.125 0 0 1 2.2.092c1.341.708 3.5-.783 3.5-.783s-1.042 1.561-2.244 1.743a5.275 5.275 0 0 1-3.666-.16s-.438.308 1.115 1.5-.058 3.066-.058 3.066a3.74 3.74 0 0 0-1.14-2.661c-1.125-.842-1.591-1.278-1.591-1.278s-2.7.422-2.424 2.178a7.708 7.708 0 0 0 .923 2.162s-2.253-.847-2.135-2.439 2.128-2.7 2.128-2.7a5.129 5.129 0 0 0-1.939-.74 10.909 10.909 0 0 0-2.414.054z" transform="translate(-1717.981 -1540.644)"/>
                <path id="Path_4491" fill="url(#linear-gradient-62)" d="M1931.34 1679.354s2.393-3.99 5.411-4.734a1.137 1.137 0 0 1 .594 1.245s-3.638 1.622-4.933 3.671c-.53.776-1.072-.182-1.072-.182z" transform="translate(-1795.633 -1556.951)"/>
                <path id="Path_4492" d="M504.506 1308.637a1.078 1.078 0 0 1-.309-.046l-31.128-9.451a1.065 1.065 0 0 1 .618-2.038l30.926 9.391 98.192-9.562a1.064 1.064 0 0 1 .207 2.118l-98.4 9.582c-.037.005-.072.007-.106.006z" class="cls-18" transform="translate(-439.126 -1205.797)"/>
                <path id="Path_4493" d="M935.275 1475.271a1.064 1.064 0 0 1-.961-.609l-18.89-39.87a1.064 1.064 0 1 1 1.922-.913l18.571 39.2 66.92-6.363a1.064 1.064 0 1 1 .2 2.119l-67.662 6.433a.419.419 0 0 1-.1.003z" class="cls-18" transform="translate(-851.005 -1332.561)"/>
                <path id="Path_4494" d="M523.432 1350.249a1.072 1.072 0 0 1-.261-.032l-26.693-6.7a1.063 1.063 0 0 1-.674-.521l-23.324-42.618a1.064 1.064 0 0 1 1.867-1.021l23.1 42.21 26.242 6.588a1.064 1.064 0 0 1-.258 2.1z" class="cls-18" transform="translate(-439.16 -1207.539)"/>
                <path id="Path_4495" d="M625.489 1527.9a1.07 1.07 0 0 1-.3-.043l-29.315-8.6a1.064 1.064 0 1 1 .6-2.038l29.122 8.536 86.562-7.553a1.064 1.064 0 1 1 .185 2.12l-86.762 7.567a.608.608 0 0 1-.092.011z" class="cls-18" transform="translate(-553.238 -1410.559)"/>
                <path id="Path_4496" d="M744.5 1752.794a1.073 1.073 0 0 1-.287-.039l-28.084-7.87a1.064 1.064 0 1 1 .573-2.049l27.9 7.815 75.169-6.576a1.064 1.064 0 1 1 .185 2.119l-75.359 6.594a.816.816 0 0 1-.097.006z" class="cls-18" transform="translate(-665.091 -1620.337)"/>
                <path id="Path_4497" d="M1222.333 1448.892a1.065 1.065 0 0 1-1.019-.761l-12.046-40.417a1.064 1.064 0 1 1 2.038-.608l12.047 40.417a1.066 1.066 0 0 1-1.02 1.369z" class="cls-18" transform="translate(-1124.246 -1307.496)"/>
                <path id="Path_4498" d="M1475.916 1424.3a1.065 1.065 0 0 1-1.047-.879l-7.225-40.948a1.064 1.064 0 1 1 2.1-.37l7.226 40.948a1.065 1.065 0 0 1-.863 1.232 1.119 1.119 0 0 1-.191.017z" class="cls-18" transform="translate(-1364.503 -1284.174)"/>
                <path id="Path_4499" d="M1755.314 1403.795a1.063 1.063 0 0 1-1.061-1l-2.276-40.657a1.064 1.064 0 1 1 2.124-.12l2.277 40.659a1.063 1.063 0 0 1-1 1.124c-.023-.006-.043-.006-.064-.006z" class="cls-18" transform="translate(-1628.872 -1265.377)"/>
                <path id="Path_4500" d="M1988.075 1372.2h-.057a1.064 1.064 0 0 1-1.007-1.117l2.167-41.308a1.064 1.064 0 1 1 2.124.111l-2.166 41.308a1.064 1.064 0 0 1-1.061 1.006z" class="cls-18" transform="translate(-1847.391 -1235.374)"/>
                <path id="Path_4501" d="M812.716 1438.485a1.064 1.064 0 0 1-.959-.6l-19.471-40.47a1.065 1.065 0 1 1 1.92-.923l19.471 40.473a1.062 1.062 0 0 1-.958 1.526z" class="cls-18" transform="translate(-736.518 -1297.803)"/>
                <path id="Path_4502" d="M642.915 1387.511a1.062 1.062 0 0 1-.953-.588l-20.669-41.4a1.064 1.064 0 0 1 1.9-.951l20.667 41.4a1.063 1.063 0 0 1-.95 1.539z" class="cls-18" transform="translate(-577.534 -1249.545)"/>
                <path id="Path_4503" d="M757.935 1044.706a1.07 1.07 0 0 1-.392-.074l-37.126-7.55a1.064 1.064 0 1 1 .784-1.978l36.874 7.452 46.45-5.675a8.159 8.159 0 0 0 6.9-5.952l25.463-92.44a10.378 10.378 0 0 1 9.239-7.582l13.51-.984a1.064 1.064 0 1 1 .154 2.123l-13.51.98a8.248 8.248 0 0 0-7.343 6.025l-25.463 92.443a10.279 10.279 0 0 1-8.69 7.5l-46.72 5.707a.964.964 0 0 1-.13.005z" class="cls-18" transform="translate(-669.172 -864.578)"/>
            </g>
        </g>
    </g>
</svg>
