<svg xmlns="http://www.w3.org/2000/svg" xmlns:xlink="http://www.w3.org/1999/xlink" width="200" height="133.678" viewBox="0 0 200 133.678">
    <defs>
        <linearGradient id="linear-gradient" x1=".368" x2=".852" y1="-.126" y2=".922" gradientUnits="objectBoundingBox">
            <stop offset="0" stop-color="#159957"/>
            <stop offset="1" stop-color="#155799"/>
        </linearGradient>
        <linearGradient id="linear-gradient-2" x1=".975" x2=".502" y1="-.475" y2="-.212" xlink:href="#linear-gradient"/>
        <linearGradient id="linear-gradient-5" x1="-5.232" x2="-4.798" y1="-1.408" y2=".624" gradientUnits="objectBoundingBox">
            <stop offset="0" stop-color="#ffc444"/>
            <stop offset="1" stop-color="#f36f56"/>
        </linearGradient>
        <linearGradient id="linear-gradient-6" x1="-5.011" x2="-6.5" y1="-1.636" y2="2.802" gradientUnits="objectBoundingBox">
            <stop offset="0" stop-color="#21633c"/>
            <stop offset="1" stop-color="#3aa668"/>
        </linearGradient>
        <linearGradient id="linear-gradient-7" x1="-5.841" x2="-5.157" y1=".091" y2="1.603" gradientUnits="objectBoundingBox">
            <stop offset="0" stop-color="#ff9085"/>
            <stop offset="1" stop-color="#fb6fbb"/>
        </linearGradient>
        <linearGradient id="linear-gradient-8" x2="1" y1=".5" y2=".5" gradientUnits="objectBoundingBox">
            <stop offset="0" stop-color="#b7de68"/>
            <stop offset="1" stop-color="#9c3"/>
        </linearGradient>
        <linearGradient id="linear-gradient-9" x1="-9.059" x2="-8.092" y1="-.017" y2="1.976" xlink:href="#linear-gradient-8"/>
        <clipPath id="clip-path">
            <path id="Path_4391" d="M1152.91 91.6c6.71-2.8 16.095-7.926 23.063-17.518 9.138-12.585 6.09-21.811 15.618-45.34 6.025-14.877 10.379-25.2 20.052-27.976 7.582-2.175 17.518.544 21.832 6.8 3.585 5.2 3.7 13.453 2.632 18.915-.869 4.451-2.566 7.284-.976 10.393 1.626 3.179 4.768 2.9 6.452 5.432 3.415 5.139-3.493 15.35-4.608 17-12.419 18.359-36.1 25.017-46.464 27.8a134.3 134.3 0 0 1-37.601 4.494z" class="cls-1" transform="translate(-1152.91 -.028)"/>
        </clipPath>
        <clipPath id="clip-path-2">
            <path id="Path_4396" d="M1325.49 528.033c11.36 9.775 26.969 20.423 45.268 25.231 4.67 1.227 33.519 8.809 37.851-4.541 1.526-4.7-1.279-8.031.665-14.364 2.3-7.5 7.713-7.635 14.929-13.3 4.3-3.38 16.9-13.269 14.294-26.885-1.56-8.135-8.481-17.234-15.759-20.923-10.675-5.412-20.027 1.87-35.654 14.518-13.852 11.212-14.988 15.884-25.094 23.753-7.5 5.845-19.11 12.792-36.5 16.511z" class="cls-2" transform="translate(-1325.49 -471.443)"/>
        </clipPath>
        <clipPath id="clip-path-3">
            <path id="Path_4403" fill="none" d="M90.122 257.575c-2.566 9.176-4.8 18.619-7.331 27.873-5.4.663-11.76 1.312-13.233-5.295-2.05-9.185-18.265-12.087-25.858-11.953-9.4.161-29.75-1.379-26.015-14.689 3.108-11.081 9.417-16.676-3.1-23.078s-17.797-15.686-12.551-27.44c5.52-12.37-7.043-28.3 4.344-36.525 19.841-14.333 36.628 20.271 36.08 39.619s9.83 14.74 22.4 18.022c17.158 4.481 3.379 20.721 9.924 28 5.129 5.712 8.935 4.473 15.34 5.466z" transform="translate(-.018 -163.081)"/>
        </clipPath>
        <style>
            .cls-1{fill:url(#linear-gradient)}.cls-2{fill:url(#linear-gradient-2)}.cls-5{opacity:.5}.cls-6{fill:#fff}.cls-11{fill:#fcfdfe}
        </style>
    </defs>
    <g id="KlikGO_Illustrations-06" transform="translate(-39.462 -51.208)">
        <g id="Layer_2" transform="translate(39.462 51.208)">
            <g id="Illustration">
                <path id="Path_4386" d="M1152.91 91.6c6.71-2.8 16.095-7.926 23.063-17.518 9.138-12.585 6.09-21.811 15.618-45.34 6.025-14.877 10.379-25.2 20.052-27.976 7.582-2.175 17.518.544 21.832 6.8 3.585 5.2 3.7 13.453 2.632 18.915-.869 4.451-2.566 7.284-.976 10.393 1.626 3.179 4.768 2.9 6.452 5.432 3.415 5.139-3.493 15.35-4.608 17-12.419 18.359-36.1 25.017-46.464 27.8a134.3 134.3 0 0 1-37.601 4.494z" class="cls-1" transform="translate(-1077.55 -.028)"/>
                <g id="Group_4377" clip-path="url(#clip-path)" transform="translate(75.36)">
                    <g id="Group_4376" class="cls-5" transform="translate(-7.071 -3.347)">
                        <path id="Path_4387" d="M1044.73 45.306v-.34a99.062 99.062 0 0 0 26.416-3.372c11.318-3.222 19.646-8.659 24.755-16.161 4-5.874 5.942-12.779 8.628-22.335a133.974 133.974 0 0 0 3.711-18.168c.959-6.45 1.716-11.544 4.974-18.125a55.6 55.6 0 0 1 14.477-17.976l.218.261a55.264 55.264 0 0 0-14.39 17.866c-3.235 6.533-3.987 11.6-4.943 18.023a134.064 134.064 0 0 1-3.721 18.21c-1.332 4.737-2.484 8.824-3.815 12.518a43.626 43.626 0 0 1-4.861 9.918c-5.155 7.569-13.548 13.052-24.943 16.3a99.315 99.315 0 0 1-26.506 3.381z" class="cls-6" transform="translate(-1044.73 51.17)"/>
                        <path id="Path_4388" d="M1829.623 119.122a40.608 40.608 0 0 1-3.314-6.072 38.409 38.409 0 0 1-3.16-12.586 40.491 40.491 0 0 1 2.258-16.364l.322.112a40.16 40.16 0 0 0-2.24 16.227 38.943 38.943 0 0 0 10.087 23.17 60.377 60.377 0 0 1 26.453-20.3 43.567 43.567 0 0 1 13.422-3.039v.34a43.231 43.231 0 0 0-13.32 3.023 60.106 60.106 0 0 0-26.408 20.34l-.116.154-.138-.131a32.457 32.457 0 0 1-3.846-4.874z" class="cls-6" transform="translate(-1772.169 -75.258)"/>
                        <path id="Path_4389" d="M1518.42 489l.163-.3a70.956 70.956 0 0 1 7.5 4.887c6.63 4.937 9.4 8.924 10.555 11.4a109.518 109.518 0 0 1 6.2 17.437c8.9.564 21.21-7.309 29.993-14.032a191.087 191.087 0 0 0 17.207-14.984l.241.24a191.654 191.654 0 0 1-17.241 15.015 102.8 102.8 0 0 1-15.526 10.066c-5.847 2.962-10.834 4.317-14.82 4.028l-.124-.009-.029-.12a108.829 108.829 0 0 0-6.21-17.5c-1.139-2.437-3.876-6.37-10.445-11.265a70.536 70.536 0 0 0-7.464-4.863z" class="cls-6" transform="translate(-1487.457 -453.411)"/>
                        <path id="Path_4390" d="M1499.15 864.361l.261-.216a18.869 18.869 0 0 0 6.714-10.775 24.525 24.525 0 0 0-.458-11.147 42.231 42.231 0 0 0-5.472-12.276l.279-.2a42.633 42.633 0 0 1 5.526 12.39 24.905 24.905 0 0 1 .458 11.3 19.126 19.126 0 0 1-6.567 10.747 98.606 98.606 0 0 0 18.187 2.018c9.961.22 24.72-.911 38.468-7.556l26.678-12.9.148.307-26.674 12.9c-13.812 6.676-28.63 7.812-38.631 7.59a96.317 96.317 0 0 1-18.582-2.1z" class="cls-6" transform="translate(-1469.447 -772.168)"/>
                    </g>
                </g>
                <path id="Path_4392" d="M1325.49 528.033c11.36 9.775 26.969 20.423 45.268 25.231 4.67 1.227 33.519 8.809 37.851-4.541 1.526-4.7-1.279-8.031.665-14.364 2.3-7.5 7.713-7.635 14.929-13.3 4.3-3.38 16.9-13.269 14.294-26.885-1.56-8.135-8.481-17.234-15.759-20.923-10.675-5.412-20.027 1.87-35.654 14.518-13.852 11.212-14.988 15.884-25.094 23.753-7.5 5.845-19.11 12.792-36.5 16.511z" class="cls-2" transform="translate(-1238.849 -440.629)"/>
                <g id="Group_4379" clip-path="url(#clip-path-2)" transform="translate(86.641 30.814)">
                    <g id="Group_4378" class="cls-5" transform="translate(-51.213 -8.141)">
                        <path id="Path_4393" d="M542 373.863l.277-.2a108.751 108.751 0 0 0 20.043 21.6 85.385 85.385 0 0 0 15.566 10.062 71.317 71.317 0 0 0 29.426 7.5 83.887 83.887 0 0 0 28.937-4.348c21.711-7.079 39.3-20.9 50.236-31.253 7.582-7.177 13.319-17.378 17.053-30.32l.327.095c-3.745 13-9.517 23.253-17.145 30.471-10.96 10.374-28.594 24.231-50.364 31.33a84.213 84.213 0 0 1-29.056 4.36 71.636 71.636 0 0 1-29.566-7.531 85.325 85.325 0 0 1-15.628-10.1A109.179 109.179 0 0 1 542 373.863z" class="cls-6" transform="translate(-542 -346.9)"/>
                        <path id="Path_4394" d="M2390.261 464.244l-.009-.146a74.431 74.431 0 0 1 1.182-16.172c1.5-8.277 5.123-19.847 13.844-27.967l.231.249c-8.649 8.054-12.245 19.544-13.739 27.77a74.779 74.779 0 0 0-1.188 15.949c35.245 3.068 47.521-17.279 50.444-23.6a3.219 3.219 0 0 1 .143-.292l.287.182c-.015.023-.065.135-.12.252-2.952 6.377-15.35 26.938-50.93 23.779z" class="cls-6" transform="translate(-2269.386 -415.184)"/>
                        <path id="Path_4395" d="M1987.52 410.914l.011-.078a83.639 83.639 0 0 1 3.359-13.064 104.774 104.774 0 0 1 14.426-28.2l14.732-20.16.275.2-14.731 20.16a104.529 104.529 0 0 0-14.381 28.107 85.186 85.186 0 0 0-3.333 12.927 74.15 74.15 0 0 0 18.162 15.3 43.042 43.042 0 0 0 14.881 5.405 30.964 30.964 0 0 0 10.04-.048 17.569 17.569 0 0 0 3.686-1.013l.139.311c-.054.024-5.426 2.37-13.892 1.09a43.322 43.322 0 0 1-15.008-5.44 74.537 74.537 0 0 1-18.317-15.442z" class="cls-6" transform="translate(-1893.033 -349.246)"/>
                    </g>
                </g>
                <path id="Path_4397" fill="url(#linear-gradient-5)" d="M72.184 282.3a11.417 11.417 0 0 0 4.668-2.693c3.572-4.951 10.86-13.788 10.214-20.21-.11-1.1-5.066-1.914-5.8-2.894-3.033-1.288-4.165-1.547-6.447-4.187-6.737-7.8 7.239-23.539-9.972-28.158-12.607-3.382-22.943 1.341-22.4-18.035S26.206 152.179 6.363 166.5c-11.388 8.22 1.177 24.158-4.344 36.526-5.248 11.753.027 21.032 12.55 27.437s6.2 11.988 3.1 23.079c-3.726 13.323 16.592 14.814 26.032 14.7 7.599-.086 27.017 4.812 28.483 14.058z" transform="translate(-.002 -152.457)"/>
                <g id="Group_4381" clip-path="url(#clip-path-3)" transform="translate(.001 10.658)">
                    <g id="Group_4380" opacity="0.8" transform="translate(-2.581 -2.706)">
                        <path id="Path_4398" d="M243.217 231.328a111.5 111.5 0 0 1-29.2-18.587A115.472 115.472 0 0 1 192.373 187c-11.712-18.876-18.517-41.455-19.683-65.3l.257-.012c2.46 50.321 28.768 91.22 70.374 109.4z" class="cls-11" transform="translate(-158.823 -121.69)"/>
                        <path id="Path_4399" d="M235.47 1567.662l-.09-.241c11.672-4.373 31.46-5.3 44.109-2.065l-.065.25c-12.604-3.224-32.324-2.306-43.954 2.056z" class="cls-11" transform="translate(-217.415 -1469.186)"/>
                        <path id="Path_4400" d="M1005.627 1123.957c-5.265-4.371-8.118-11.222-8.479-20.363a77.326 77.326 0 0 1 3.109-22.935l.248.065a76.964 76.964 0 0 0-3.1 22.858c.358 9.064 3.179 15.852 8.386 20.174z" class="cls-11" transform="translate(-929.354 -1017.976)"/>
                        <path id="Path_4401" d="M-7.473 925.229c-9.322-8.586-22.54-10.439-31.987-10.482v-.258c9.492.043 22.778 1.909 32.16 10.55z" class="cls-11" transform="translate(39.46 -862.668)"/>
                        <path id="Path_4402" d="M265.11 185.853c-1.643-14.38 6.116-27.413 10.887-33.9l.208.152c-4.749 6.46-12.472 19.431-10.84 33.721z" class="cls-11" transform="translate(-244.992 -149.972)"/>
                    </g>
                </g>
                <path id="Path_4404" fill="url(#linear-gradient-6)" d="M479.177 427.714c-8.224-9.379-13.057-20.9-13.057-33.189 0-29.456 27.765-54.174 63.531-55.255 36.582-1.107 67.754 22.7 69.353 53.678v.031q.029.577.045 1.157v.169c.008.38.014.76.014 1.141a48.205 48.205 0 0 1-.283 5.219c-.079.724-.175 1.454-.288 2.178q-.339 2.172-.871 4.283-.265 1.056-.578 2.092-.208.692-.437 1.377c-3.579 10.728-10.876 20.028-20.595 26.968q-.31.222-.624.44a67.814 67.814 0 0 1-10.812 6.12c-.24.109-.482.216-.724.323q-2.543 1.116-5.21 2.047-1.143.4-2.3.762-.776.243-1.56.469-1.177.34-2.371.643-.8.2-1.6.388a78.767 78.767 0 0 1-21.16 1.9q-.814-.035-1.621-.088c-.157-.01-.312-.024-.469-.035-.384-.027-.767-.054-1.149-.086-.17-.014-.339-.032-.508-.047-.371-.034-.741-.065-1.111-.107l-.474-.053c-.383-.043-.765-.087-1.146-.135l-.406-.054c-.409-.054-.816-.11-1.222-.17l-.31-.047q-.669-.1-1.333-.213l-.181-.031q-.748-.131-1.489-.271h-.008a75.793 75.793 0 0 1-12.016-3.334l.014-.013a71.171 71.171 0 0 1-6.558-2.811c-5.77-3.345-12.648-6.974-20.486-15.446z" transform="translate(-435.652 -317.061)"/>
                <path id="Path_4405" fill="url(#linear-gradient-7)" d="M393.2 391.4c0 29.455 27.765 54.557 63.531 56.135 37.559 1.656 69.418-23.03 69.418-55.215s-31.858-57.32-69.418-56.18c-35.764 1.084-63.531 25.802-63.531 55.26z" transform="translate(-367.498 -314.135)"/>
                <path id="Path_4406" fill="url(#linear-gradient-8)" d="M393.2 391.4c0 29.455 27.765 54.557 63.531 56.135 37.559 1.656 69.418-23.03 69.418-55.215s-31.858-57.32-69.418-56.18c-35.764 1.084-63.531 25.802-63.531 55.26z" transform="translate(-367.498 -314.135)"/>
                <path id="Path_4407" d="M787.235 764.614c2.692-7.669 9.406-13.172 17.343-13.269 10.481-.126 19.087 9.206 19.087 20.845 0-11.639 8.706-21.178 19.585-21.309 8.449-.1 15.747 5.491 18.706 13.5 11.342 28.911-38.291 54.277-38.291 54.277s-46.55-26.868-36.43-54.044z" class="cls-6" transform="translate(-734.432 -701.799)"/>
                <g id="Group_4382" opacity="0.3" transform="translate(65.79 43.058)">
                    <path id="Path_4408" fill="url(#linear-gradient-9)" d="M1014 734.36c7.876-16.086-.086-31.486 10.581-41.935 11-10.77 25.528-.61 41.485-9.522 6.259-3.5 13.279-10.231 18.539-24.144 9.22 9.627 14.749 21.832 14.749 35.124 0 32.185-31.859 56.868-69.418 55.215a77.414 77.414 0 0 1-23.443-4.673A34.3 34.3 0 0 0 1014 734.36z" transform="translate(-1006.49 -658.76)"/>
                </g>
            </g>
        </g>
    </g>
</svg>
