<svg xmlns="http://www.w3.org/2000/svg" width="14" height="11.2" viewBox="0 0 14 11.2">
    <path fill="#cbcbcb" d="M13.65 7.7h-.35V5.335a1.05 1.05 0 0 0-.308-.742l-2.186-2.185a1.05 1.05 0 0 0-.742-.308H9.1V1.05A1.05 1.05 0 0 0 8.05 0h-7A1.05 1.05 0 0 0 0 1.05v7A1.05 1.05 0 0 0 1.05 9.1h.35a2.1 2.1 0 0 0 4.2 0h2.8a2.1 2.1 0 0 0 4.2 0h1.05a.351.351 0 0 0 .35-.35v-.7a.351.351 0 0 0-.35-.35zM3.5 10.15A1.05 1.05 0 1 1 4.55 9.1a1.05 1.05 0 0 1-1.05 1.05zm7 0a1.05 1.05 0 1 1 1.05-1.05 1.05 1.05 0 0 1-1.05 1.05zm1.75-4.55H9.1V3.15h.965l2.185 2.185z"/>
</svg>
