<svg xmlns="http://www.w3.org/2000/svg" width="16" height="16" viewBox="0 0 16 16">
    <defs>
        <style>
            .cls-1{fill:#fc0}
        </style>
    </defs>
    <g id="Group_4435" transform="translate(-309 -15003)">
        <circle id="Ellipse_80" cx="8" cy="8" r="8" class="cls-1" transform="translate(309 15003)"/>
        <circle id="Ellipse_81" cx="7" cy="7" r="7" fill="#d89e00" transform="translate(310 15004)"/>
        <path id="Union_2" d="M6.737 6.738H0a6.7 6.7 0 0 1 1.356-4.055 2.284 2.284 0 0 0 4.3-1.08.243.243 0 1 0-.486 0 1.8 1.8 0 0 1-3.47.663A6.783 6.783 0 0 1 3.368.9 6.68 6.68 0 0 1 6.737 0v6.738zM0 0a6.685 6.685 0 0 1 3.368.9A6.783 6.783 0 0 0 1.7 2.266a1.8 1.8 0 0 1-.129-.666.243.243 0 1 0-.486 0 2.279 2.279 0 0 0 .272 1.08A6.7 6.7 0 0 0 0 6.738z" class="cls-1" transform="translate(313.632 15007.631)"/>
    </g>
</svg>
