<svg xmlns="http://www.w3.org/2000/svg" xmlns:xlink="http://www.w3.org/1999/xlink" width="200" height="198.721" viewBox="0 0 200 198.721">
    <defs>
        <linearGradient id="linear-gradient" x2="1" y1=".5" y2=".5" gradientUnits="objectBoundingBox">
            <stop offset="0" stop-color="#159957"/>
            <stop offset="1" stop-color="#155799"/>
        </linearGradient>
        <linearGradient id="linear-gradient-2" x1="-.457" x2=".342" y1=".246" y2="1.455" gradientUnits="objectBoundingBox">
            <stop offset="0" stop-color="#159957"/>
            <stop offset=".64" stop-color="#155799"/>
        </linearGradient>
        <linearGradient id="linear-gradient-4" x1="-7.94" x2="-8.42" y1="1.334" y2="2.352" xlink:href="#linear-gradient"/>
        <linearGradient id="linear-gradient-5" x1="4.791" x2="5.48" y1="-.398" y2=".562" gradientUnits="objectBoundingBox">
            <stop offset="0" stop-color="#ffc444"/>
            <stop offset="1" stop-color="#f36f56"/>
        </linearGradient>
        <linearGradient id="linear-gradient-6" x1="1.16" x2=".346" y1=".829" y2=".448" gradientUnits="objectBoundingBox">
            <stop offset="0" stop-color="#444b8c"/>
            <stop offset="1" stop-color="#26264f"/>
        </linearGradient>
        <linearGradient id="linear-gradient-7" x1="-7.488" x2="-4.543" y1="3.814" y2="3.874" xlink:href="#linear-gradient-6"/>
        <linearGradient id="linear-gradient-8" x1=".001" x2="1.001" y1=".5" y2=".5" gradientUnits="objectBoundingBox">
            <stop offset="0" stop-color="#ffc26a"/>
            <stop offset=".99" stop-color="#f39f47"/>
        </linearGradient>
        <linearGradient id="linear-gradient-9" x1="0" x2="1" y1=".5" y2=".5" xlink:href="#linear-gradient-5"/>
        <linearGradient id="linear-gradient-10" x1=".976" x2=".251" y1=".064" y2=".703" xlink:href="#linear-gradient-5"/>
        <linearGradient id="linear-gradient-11" x1="1.179" x2=".714" y1=".677" y2=".551" xlink:href="#linear-gradient-5"/>
        <linearGradient id="linear-gradient-12" x1="1.294" x2=".517" y1=".657" y2=".521" xlink:href="#linear-gradient-5"/>
        <linearGradient id="linear-gradient-13" x1=".384" x2=".693" y1="-.783" y2="2.635" xlink:href="#linear-gradient-5"/>
        <linearGradient id="linear-gradient-14" x1="1.297" x2=".627" y1=".759" y2=".535" xlink:href="#linear-gradient-5"/>
        <linearGradient id="linear-gradient-15" x1="1.493" x2=".376" y1=".737" y2=".495" xlink:href="#linear-gradient-5"/>
        <linearGradient id="linear-gradient-16" x1=".473" x2=".661" y1=".196" y2="2.282" xlink:href="#linear-gradient-5"/>
        <clipPath id="clip-path">
            <path id="Path_4614" d="M209.677 425.24l14.072-3.625s3.625-10.542-1.577-13.351-3.21-12.934-2.774-18.455c1.183-14.978-15.006-13.619-15.023-32.991 0-5.152 1.709-14.978-2.638-19.084-4.949-4.675-8.562-.09-11.744-4-4.974-6.111-13.044-8.3-17.855-2.014-4.749 6.207 1.021 18.558 15.363 28.492 9.482 8.29 9.63 10.771 8.884 16.815-.523 4.233-4.561 15.261 1.185 19.664s10.137 9.162 7.923 13.942c-3.366 7.277 4.184 14.607 4.184 14.607z" class="cls-1" transform="translate(-170.506 -327.947)"/>
        </clipPath>
        <clipPath id="clip-path-2">
            <path id="Path_4624" d="M112.243 700.063l-16.788 5.262s-5.86-7.621-3.651-14.989c4.508-15.032-8.972-17.93-14.437-19.99-8.241-3.1-14.148-9.434-5.435-15.727s-5.791-18.307-19.822-21.4c-13.73-3.03-16.268-29.185 14.052-25.357 18.108 2.286 20.889 19.852 24.4 28.389s16.793 5.172 15.687 17.293c-.942 10.354-6.1 19.3 1.4 23.865s10.298 11.438 4.594 22.654z" class="cls-2" transform="translate(-42.328 -607.477)"/>
        </clipPath>
        <clipPath id="clip-path-3">
            <path id="Path_4631" d="M263.3 1061.023l16.369.371c1.006-2.3 2.321-6.542-1.08-7.675-4.728-1.572-4.588-9.969-3.189-12.9 1.731-3.626 5.589-12.152-1.682-14.7-6.053-2.12-10.392-2.251-10.58-10.134s-4.333-12.924-11.484-12.674c-7.526.264-13.377-9.922-19.635-6.767-10.9 5.5-1.716 23.137 11.17 28.56s5.262 9.891 4.71 16.322c-.749 8.778 11.2 7.262 14.225 10.813 2.387 2.791 1.816 6.514 1.176 8.784z" class="cls-1" transform="translate(-227.184 -995.944)"/>
        </clipPath>
        <style>
            .cls-1{fill:none}.cls-2{fill:url(#linear-gradient)}.cls-6{opacity:.5}.cls-7{fill:#fcfdfe}.cls-10{fill:#beb8f2}.cls-18{fill:#d8dee8}.cls-20{fill:#fff}.cls-27{fill:#9c3}
        </style>
    </defs>
    <g id="KlikGO_Illustrations-10" transform="translate(-4.321 .002)">
        <g id="Layer_2" transform="translate(4.321 -.002)">
            <g id="Illustration">
                <path id="Path_4604" fill="#f4f7fa" d="M175.918 170.9a76.247 76.247 0 0 1-13.43 10.9c-34.781 23.224-74.541 16.531-86.833 14.242-19.832-3.691-36.573-6.295-50.957-19.29C-7.989 147.228-6.4 85.629 18.576 47.471c2.962-4.522 27.9-41.489 67.743-46.7.975-.127 1.7-.2 2.339-.268 6.164-.653 44.361-4.1 75.506 22a92.91 92.91 0 0 1 18.286 20.748c24.331 37.573 24.407 95.763-6.532 127.649z" transform="translate(.019 .002)"/>
                <path id="Path_4605" fill="url(#linear-gradient-2)" d="M205.5 410.635c-1.936 4.182-.094 8.365 1.681 11.181a4.154 4.154 0 0 1 1.095.223c3.852.942 5.658.46 9.574.743a18.835 18.835 0 0 0 4.353-.894l1.865-.643s3.31-10.174-1.892-12.982-3.21-12.934-2.774-18.455c1.183-14.978-15.006-13.619-15.023-32.991 0-5.152 1.709-14.978-2.638-19.084-4.949-4.675-8.562-.09-11.744-4-4.974-6.111-13.044-8.3-17.855-2.014-4.749 6.207 1.021 18.558 15.363 28.492 9.482 8.29 9.63 10.771 8.884 16.815-.523 4.233-4.561 15.261 1.185 19.664s10.136 9.167 7.926 13.945z" transform="translate(-154.442 -297.053)"/>
                <g id="Group_4423" clip-path="url(#clip-path)" transform="translate(16.064 30.894)">
                    <g id="Group_4422" class="cls-6" transform="translate(-3.439 -1.515)">
                        <path id="Path_4606" d="M182.739 408.379l.283-.036c-.212-1.7-.447-3.419-.7-5.1a180.468 180.468 0 0 0-8.786-35.105 145.127 145.127 0 0 0-12.283-25.7 121.208 121.208 0 0 0-12.768-17.36 97.156 97.156 0 0 0-10.027-9.825c-.593-.5-1.225-.976-1.843-1.438-.818-.614-1.664-1.25-2.418-1.942l-.2.212c.764.7 1.616 1.342 2.439 1.961.611.459 1.243.934 1.83 1.428a96.965 96.965 0 0 1 10 9.8 120.436 120.436 0 0 1 12.742 17.316 144.817 144.817 0 0 1 12.26 25.653 180.5 180.5 0 0 1 8.773 35.049c.251 1.672.486 3.385.698 5.087z" class="cls-7" transform="translate(-134 -311.87)"/>
                        <path id="Path_4607" d="M453.984 431.611l.261-.121c-5.253-11.2-.641-31.877-.593-32.085l-.283-.064c-.045.208-4.679 20.986.615 32.27z" class="cls-7" transform="translate(-421.545 -391.1)"/>
                        <path id="Path_4608" d="M435.09 949.766l.274-.094c-2.68-8.025-17.7-14.225-17.856-14.282l-.108.267c.151.066 15.054 6.211 17.69 14.109z" class="cls-7" transform="translate(-390.703 -876.653)"/>
                        <path id="Path_4609" d="M615.384 919.091l.283-.041c-.8-5.464 1.041-13.344 5.17-22.184.208-.445.208-.445.2-.5l-.283.038.143-.019-.139-.036c-.01.031-.089.2-.18.394-4.153 8.891-5.997 16.827-5.194 22.348z" class="cls-7" transform="translate(-569.87 -841.291)"/>
                        <path id="Path_4610" d="M538.993 1228.039l.261-.122c-2.561-5.517-11.318-7.7-11.406-7.717l-.068.283c.087.017 8.71 2.163 11.213 7.556z" class="cls-7" transform="translate(-490.685 -1134.633)"/>
                        <path id="Path_4611" d="M653.337 1198.708c1.086-4.784 3.58-9.412 7.63-14.15l-.219-.188c-4.078 4.774-6.594 9.443-7.689 14.274z" class="cls-7" transform="translate(-604.163 -1102.178)"/>
                        <path id="Path_4612" d="M254.056 328.457l.253-.137a81.128 81.128 0 0 1-5.96-15.528c-.161-.565-.219-.766-.251-.832l-.259.126c.024.051.116.377.233.785a81.407 81.407 0 0 0 5.984 15.586z" class="cls-7" transform="translate(-237.116 -311.952)"/>
                        <path id="Path_4613" d="M213.97 539.281l.2-.205c-4.6-4.53-17.514-4.385-18.061-4.377v.288c.138-.002 13.345-.152 17.861 4.294z" class="cls-7" transform="translate(-190.259 -513.706)"/>
                    </g>
                </g>
                <path id="Path_4615" d="M112.243 700.063l-16.788 5.262s-5.86-7.621-3.651-14.989c4.508-15.032-8.972-17.93-14.437-19.99-8.241-3.1-14.148-9.434-5.435-15.727s-5.791-18.307-19.822-21.4c-13.73-3.03-16.268-29.185 14.052-25.357 18.108 2.286 20.889 19.852 24.4 28.389s16.793 5.172 15.687 17.293c-.942 10.354-6.1 19.3 1.4 23.865s10.298 11.438 4.594 22.654z" class="cls-2" transform="translate(-38.339 -550.251)"/>
                <g id="Group_4425" clip-path="url(#clip-path-2)" transform="translate(3.989 57.226)">
                    <path id="Path_4616" fill="url(#linear-gradient-4)" d="M112.243 700.063l-16.788 5.262s-5.86-7.621-3.651-14.989c4.508-15.032-8.972-17.93-14.437-19.99-8.241-3.1-13.254-8.881-6.656-15.717 7.464-7.733-4.57-18.318-18.6-21.414-13.73-3.03-16.268-29.185 14.052-25.357 18.108 2.286 20.889 19.852 24.4 28.389s16.793 5.172 15.687 17.293c-.942 10.354-6.1 19.3 1.4 23.865s10.297 11.442 4.593 22.658z" transform="translate(-42.328 -607.477)"/>
                    <g id="Group_4424" class="cls-6" transform="translate(-4.396 -2.096)">
                        <path id="Path_4617" d="M63.194 808.013l-.369.045c-.028-.228-2.92-23.08-12.623-44.864-8.938-20.069-25.648-43.318-54.5-40.1l-.041-.368a43.433 43.433 0 0 1 34.322 10.7c7.931 6.819 14.85 16.785 20.564 29.62 9.717 21.843 12.618 44.741 12.647 44.967z" class="cls-10" transform="translate(4.34 -709.499)"/>
                        <path id="Path_4618" d="M283.656 612.909l-.366.066c-2.213-12.162-11.884-27.39-11.981-27.546l.313-.2c.098.154 9.809 15.446 12.034 27.68z" class="cls-10" transform="translate(-245.343 -585.23)"/>
                        <path id="Path_4619" d="M93.887 806.765A30.945 30.945 0 0 0 69.5 810.2l-.217-.3a31.332 31.332 0 0 1 24.7-3.5z" class="cls-10" transform="translate(-62.345 -784.592)"/>
                        <path id="Path_4620" d="M311.183 1184.922c-9.2-15.468-33.212-12.442-33.442-12.393l-.1-.357c.222-.07 24.581-3.045 33.863 12.561z" class="cls-10" transform="translate(-251.077 -1116.635)"/>
                        <path id="Path_4621" d="M606.846 1017.932l-.369.037c-1.13-11.429 8.2-22.459 8.29-22.569l.283.242c-.098.108-9.32 11.025-8.204 22.29z" class="cls-10" transform="translate(-548.85 -956.761)"/>
                        <path id="Path_4622" d="M572.62 1507.209c-2.55-6.344-13.45-8.583-13.56-8.605l.073-.364c.456.094 11.21 2.3 13.831 8.831z" class="cls-10" transform="translate(-505.986 -1412.232)"/>
                        <path id="Path_4623" d="M692.328 1374.388l-.368.05c-.725-5.357 5.181-13.431 7.127-16.083.274-.377.512-.7.542-.765l.339.153a8.656 8.656 0 0 1-.581.832c-1.921 2.625-7.761 10.605-7.059 15.813z" class="cls-10" transform="translate(-626.311 -1284.832)"/>
                    </g>
                </g>
                <path id="Path_4625" fill="url(#linear-gradient-5)" d="M263.788 1056.187l.188.088a37.059 37.059 0 0 0 13.273 3.268l3.028-.021c.909-2.371 1.349-4.789-1.7-5.8-4.729-1.572-4.588-9.969-3.189-12.9 1.731-3.626 5.589-12.152-1.682-14.7-6.052-2.12-10.392-2.251-10.58-10.134s-4.333-12.924-11.484-12.674c-7.526.264-13.377-9.922-19.635-6.767-10.9 5.5-1.714 23.137 11.171 28.56s5.262 9.891 4.71 16.322c-.749 8.778 11.2 7.262 14.225 10.813a7.172 7.172 0 0 1 1.675 3.945z" transform="translate(-205.775 -902.124)"/>
                <g id="Group_4427" clip-path="url(#clip-path-3)" transform="translate(21.403 93.821)">
                    <g id="Group_4426" class="cls-6" transform="translate(-2.865 1.857)">
                        <path id="Path_4626" d="M272.846 1076.481l.35-.06c-4.432-25.558-21.246-48.84-43.88-60.76l-.166.314c22.54 11.869 39.283 35.054 43.696 60.506z" class="cls-7" transform="translate(-226.1 -1015.66)"/>
                        <path id="Path_4627" d="M654.68 1340.245l.355.009c.276-10.19 9.215-17.9 9.305-17.974l-.23-.27c-.091.077-9.149 7.884-9.43 18.235z" class="cls-7" transform="translate(-611.544 -1293.151)"/>
                        <path id="Path_4628" d="M458.96 1503.958l.316-.16c-4.66-9.225-23.4-11.021-23.585-11.038l-.032.353c.187.017 18.729 1.795 23.301 10.845z" class="cls-7" transform="translate(-413.156 -1447.816)"/>
                        <path id="Path_4629" d="M517.877 1090.71l.329-.132c-3.058-7.608 2.167-19.044 2.217-19.159l-.322-.149c-.054.116-5.338 11.691-2.224 19.44z" class="cls-7" transform="translate(-486.739 -1066.031)"/>
                        <path id="Path_4630" d="M216.919 1112.924l.194-.3c-7.824-5.106-20.219-2.738-20.343-2.713l.068.348c.123-.022 12.38-2.359 20.081 2.665z" class="cls-7" transform="translate(-196.77 -1100.519)"/>
                    </g>
                </g>
                <path id="Path_4632" fill="url(#linear-gradient-6)" d="M679.94 158.946v151.177c0 2.31-2.139 2.806-4.565 2.88l-83.133 6.431-1.26.038a4.387 4.387 0 0 1-4.7-4.2V152.991a4.387 4.387 0 0 1 4.7-4.2l1.709.052 83.438 9.261c2.426.07 3.811-1.468 3.811.842z" transform="translate(-531.049 -134.769)"/>
                <path id="Path_4633" fill="url(#linear-gradient-7)" d="M707.429 158.946v151.177a4.479 4.479 0 0 1-4.407 4.333l-84.549 5.015a4.388 4.388 0 0 1-4.7-4.2v-162.28a4.388 4.388 0 0 1 4.7-4.2l84.55 5.826a4.478 4.478 0 0 1 4.406 4.329z" transform="translate(-555.95 -134.769)"/>
                <path id="Path_4634" fill="url(#linear-gradient-8)" d="M1105.792 230.083a1.474 1.474 0 0 1-1.57 1.43 1.578 1.578 0 0 1-1.571-1.519 1.474 1.474 0 0 1 1.571-1.43 1.578 1.578 0 0 1 1.57 1.519z" transform="translate(-998.776 -207.031)"/>
                <path id="Path_4635" fill="url(#linear-gradient-9)" d="M753.635 276.711l-77.811-5.365a3.042 3.042 0 0 0-3.3 3.079v146.557a3.059 3.059 0 0 0 3.3 3.094l77.811-4.993a3.2 3.2 0 0 0 2.848-3.247V279.971a3.216 3.216 0 0 0-2.848-3.26z" transform="translate(-609.171 -245.775)"/>
                <g id="Group_4428" opacity="0.3" transform="translate(63.358 25.561)">
                    <path id="Path_4636" d="M722.135 382.421c-1.319-16.547 8.551-23.268 4.793-38.266-4.655-18.586-22.669-19.749-28.845-38.152-2.371-7.065-3.309-17.69 3.475-32.884l-25.705-1.772a3.042 3.042 0 0 0-3.3 3.079v146.556a3.059 3.059 0 0 0 3.3 3.094l69.536-4.464c-17.442-13.867-22.444-27.027-23.254-37.191z" class="cls-18" transform="translate(-672.556 -271.336)"/>
                </g>
                <path id="Path_4637" fill="url(#linear-gradient-10)" d="M772.342 297.263l-77.811-5.232a1.251 1.251 0 0 0-1.352 1.264V439.6a1.258 1.258 0 0 0 1.352 1.271l77.811-4.863a1.318 1.318 0 0 0 1.172-1.335V298.6a1.322 1.322 0 0 0-1.172-1.337z" transform="translate(-627.878 -264.517)"/>
                <path id="Path_4638" d="M877.581 493.657c-14.6-.117-26.771-12.7-26.771-28.04s12.17-27.13 26.771-26.3c14.225.813 25.536 13.365 25.536 28s-11.304 26.455-25.536 26.34z" class="cls-18" transform="translate(-770.66 -397.897)"/>
                <path id="Path_4639" d="M919.551 485.328c0 13.67-10.535 24.647-23.817 24.519-13.606-.132-24.884-11.821-24.884-26.105s11.282-25.238 24.884-24.484c13.282.736 23.817 12.401 23.817 26.07z" class="cls-20" transform="translate(-788.812 -415.961)"/>
                <path id="Path_4640" d="M840.709 1123.8l-59.536.067a3.077 3.077 0 0 0-3.054 3.093 3.049 3.049 0 0 0 3.054 3.069l59.536-.39a2.848 2.848 0 0 0 2.732-2.93 2.825 2.825 0 0 0-2.732-2.909z" class="cls-20" transform="translate(-704.817 -1017.935)"/>
                <path id="Path_4641" d="M945.855 1245.828l-48.659.574a3.072 3.072 0 0 0-3 3.094 2.968 2.968 0 0 0 3 3.008l48.662-.838a2.887 2.887 0 0 0 2.732-2.959 2.793 2.793 0 0 0-2.735-2.879z" class="cls-20" transform="translate(-809.962 -1128.468)"/>
                <path id="Path_4642" d="M781.2 1259.44a3.009 3.009 0 0 1-3.054-3.036 3.116 3.116 0 0 1 3.054-3.125 3.015 3.015 0 0 1 3.037 3.036 3.117 3.117 0 0 1-3.037 3.125z" class="cls-20" transform="translate(-704.843 -1135.217)"/>
                <path id="Path_4643" d="M945.855 1356.224l-48.659 1.044a3.108 3.108 0 0 0-3 3.123 2.934 2.934 0 0 0 3 2.98l48.662-1.307a2.921 2.921 0 0 0 2.732-2.985 2.762 2.762 0 0 0-2.735-2.855z" class="cls-20" transform="translate(-809.962 -1228.464)"/>
                <path id="Path_4644" d="M781.2 1375.936a2.975 2.975 0 0 1-3.054-3.007 3.154 3.154 0 0 1 3.054-3.155 2.976 2.976 0 0 1 3.037 3.007 3.155 3.155 0 0 1-3.037 3.155z" class="cls-20" transform="translate(-704.843 -1240.737)"/>
                <path id="Path_4645" d="M945.855 1466.628l-48.659 1.513a3.146 3.146 0 0 0-3 3.152 2.9 2.9 0 0 0 3 2.95l48.662-1.777a2.956 2.956 0 0 0 2.732-3.015 2.729 2.729 0 0 0-2.735-2.823z" class="cls-20" transform="translate(-809.962 -1328.467)"/>
                <path id="Path_4646" d="M781.2 1492.427a2.941 2.941 0 0 1-3.054-2.978 3.191 3.191 0 0 1 3.054-3.184 2.942 2.942 0 0 1 3.037 2.979 3.194 3.194 0 0 1-3.037 3.183z" class="cls-20" transform="translate(-704.842 -1346.254)"/>
                <path id="Path_4647" d="M945.828 1577.029l-48.662 1.978a3.183 3.183 0 0 0-3 3.181 2.865 2.865 0 0 0 3 2.92l48.662-2.244a2.991 2.991 0 0 0 2.732-3.038 2.693 2.693 0 0 0-2.732-2.797z" class="cls-20" transform="translate(-809.935 -1428.467)"/>
                <path id="Path_4648" d="M781.2 1608.926a2.907 2.907 0 0 1-3.054-2.948 3.229 3.229 0 0 1 3.054-3.213 2.908 2.908 0 0 1 3.037 2.949 3.23 3.23 0 0 1-3.037 3.212z" class="cls-20" transform="translate(-704.845 -1451.778)"/>
                <path id="Path_4649" fill="url(#linear-gradient-11)" d="M1179.167 739.006a1.341 1.341 0 0 0 1.21-2.384c-.032-.016-.064-.029-.094-.042a7.731 7.731 0 0 0 .255-1.1h.105a1.392 1.392 0 0 0 1.225-1.424 1.188 1.188 0 0 0-1.282-1.2.592.592 0 0 0-.107.016 7.048 7.048 0 0 0-.3-1.049c.032-.019.063-.039.094-.06a1.4 1.4 0 0 0 .424-1.833 1.184 1.184 0 0 0-1.726-.327c-.03.022-.058.044-.087.068a6.337 6.337 0 0 0-.77-.719c.019-.032.039-.064.056-.1.334-.659.771-1.377.158-1.677-1.413-.691-2.026-.1-2.355.56-.018.034-.033.069-.047.1a6.224 6.224 0 0 0-1.036-.2v-.11c-.014-.725.2-1.117-.5-1.13-1.519-.03-2.031.629-2.016 1.354a1.111 1.111 0 0 0 .008.112 7 7 0 0 0-1.023.377.946.946 0 0 0-.051-.094 1.184 1.184 0 0 0-1.726-.327 1.4 1.4 0 0 0-.423 1.833c.018.03.038.058.058.087a7.684 7.684 0 0 0-.737.855.95.95 0 0 0-.094-.053 1.341 1.341 0 0 0-1.21 2.384c.031.016.064.029.094.042a7.611 7.611 0 0 0-.255 1.1h-.105a1.4 1.4 0 0 0-1.23 1.424 1.185 1.185 0 0 0 1.283 1.2.7.7 0 0 0 .107-.015 7.052 7.052 0 0 0 .3 1.048c-.032.019-.064.039-.094.06a1.4 1.4 0 0 0-.424 1.833 1.735 1.735 0 0 0 2.143.458c.03-.022-.359-.175-.331-.2a6.329 6.329 0 0 0 .77.719c-.02.032-.039.065-.056.1a1.239 1.239 0 1 0 2.2 1.118c.018-.035.032-.069.047-.1a6.224 6.224 0 0 0 1.036.2v.111a1.185 1.185 0 0 0 1.283 1.2 1.39 1.39 0 0 0 1.225-1.423.554.554 0 0 0-.008-.112 7.1 7.1 0 0 0 1.022-.377c.016.032.033.064.052.094a1.183 1.183 0 0 0 1.725.327 1.4 1.4 0 0 0 .424-1.833c-.018-.03-.039-.058-.058-.087a7.667 7.667 0 0 0 .736-.854c.044.016.073.034.105.05zm-7.58.094a4.87 4.87 0 1 1 6.195-2.3 4.679 4.679 0 0 1-6.195 2.3z" transform="translate(-1055.875 -657.971)"/>
                <path id="Path_4650" fill="url(#linear-gradient-12)" d="M1242.945 748.539a1.392 1.392 0 0 0 1.225-1.424 1.188 1.188 0 0 0-1.282-1.2.593.593 0 0 0-.107.016 7.035 7.035 0 0 0-.3-1.049c.032-.019.063-.039.094-.06.594-.415 1.328-1.421.909-1.978-.794-1.057-1.616-.6-2.211-.184-.03.022-.058.044-.087.068a6.325 6.325 0 0 0-.77-.719c.019-.032.039-.064.056-.1a1.383 1.383 0 0 0 .078-1.089q-.86 1.513-1.7 3.041a4.757 4.757 0 0 1 1.225 6 4.861 4.861 0 0 1-4.6 2.74c-.081.209-.16.42-.246.627-.235.565-.5 1.114-.769 1.665.168.032.336.057.506.074v.111c.015.724.455 1.34 1.712 1.273.7-.037.816-.772.8-1.5a.554.554 0 0 0-.008-.112 7.091 7.091 0 0 0 1.022-.377c.016.032.033.064.052.094a1.81 1.81 0 0 0 2.2.434c.6-.414.309-1.343-.051-1.941-.018-.03-.039-.058-.058-.087a7.673 7.673 0 0 0 .736-.854.988.988 0 0 0 .094.052 1.341 1.341 0 0 0 1.211-2.384c-.032-.016-.064-.029-.094-.042a7.732 7.732 0 0 0 .255-1.1.9.9 0 0 0 .108.005z" transform="translate(-1118.178 -671.033)"/>
                <path id="Path_4651" fill="url(#linear-gradient-13)" d="M1186.195 739.123a1.341 1.341 0 0 0 1.211-2.384c-.031-.016-.064-.029-.094-.042a7.6 7.6 0 0 0 .255-1.1h.105a1.4 1.4 0 0 0 1.23-1.424 1.185 1.185 0 0 0-1.283-1.2.6.6 0 0 0-.107.016 7.048 7.048 0 0 0-.3-1.049c.032-.019.064-.039.094-.06a1.4 1.4 0 0 0 .423-1.833 1.184 1.184 0 0 0-1.725-.327c-.031.022-.059.044-.088.068a6.319 6.319 0 0 0-.77-.719q.03-.046.056-.094a1.238 1.238 0 1 0-2.2-1.117c-.018.034-.032.069-.047.1a6.217 6.217 0 0 0-1.036-.2 1.071 1.071 0 0 0 0-.11 1.185 1.185 0 0 0-1.283-1.2 1.39 1.39 0 0 0-1.225 1.423.554.554 0 0 0 .008.112 7.023 7.023 0 0 0-1.022.377q-.025-.05-.051-.094a1.184 1.184 0 0 0-1.726-.327 1.4 1.4 0 0 0-.424 1.833c.018.03.039.058.059.087a7.575 7.575 0 0 0-.737.854.988.988 0 0 0-.094-.052 1.341 1.341 0 0 0-1.211 2.384c.032.016.064.029.094.042a7.716 7.716 0 0 0-.255 1.1h-.105a1.391 1.391 0 0 0-1.225 1.424 1.188 1.188 0 0 0 1.282 1.2.591.591 0 0 0 .107-.016 7.035 7.035 0 0 0 .3 1.049c-.032.019-.063.039-.094.06a1.4 1.4 0 0 0-.424 1.833 1.184 1.184 0 0 0 1.726.327c.03-.022.058-.044.087-.068a6.325 6.325 0 0 0 .77.719c-.019.032-.039.065-.056.1a1.239 1.239 0 1 0 2.2 1.118c.018-.035.033-.069.047-.1a6.224 6.224 0 0 0 1.036.2v.111a1.184 1.184 0 0 0 1.282 1.2 1.4 1.4 0 0 0 1.23-1.423.5.5 0 0 0-.008-.112 7.116 7.116 0 0 0 1.023-.377 1.022 1.022 0 0 0 .051.094 1.184 1.184 0 0 0 1.726.327 1.4 1.4 0 0 0 .424-1.833c-.019-.03-.039-.058-.059-.087a7.777 7.777 0 0 0 .737-.854c.025.011.055.029.086.044zm-7.58.094a4.869 4.869 0 1 1 6.2-2.3 4.678 4.678 0 0 1-6.201 2.3z" transform="translate(-1062.249 -658.015)"/>
                <path id="Path_4652" fill="url(#linear-gradient-14)" d="M938.017 564.6a2.2 2.2 0 0 0 1.983-3.9 1.641 1.641 0 0 0-.156-.069 12.653 12.653 0 0 0 .417-1.8 1.518 1.518 0 0 0 .173-.007 2.29 2.29 0 0 0 2.014-2.332 1.941 1.941 0 0 0-2.1-1.966c-.059.006-.118.015-.175.025a11.533 11.533 0 0 0-.487-1.719c.053-.031.1-.062.155-.094a2.292 2.292 0 0 0 .694-3 1.94 1.94 0 0 0-2.826-.536c-.05.035-.094.073-.143.111a10.3 10.3 0 0 0-1.26-1.178c.032-.052.063-.106.094-.161.547-1.079 1.263-2.261.259-2.747-2.322-1.13-3.319-.163-3.862.916-.028.056-.053.112-.076.17a10.208 10.208 0 0 0-1.7-.324c0-.059.007-.12.006-.181-.024-1.187.328-1.829-.813-1.851-2.487-.049-3.326 1.036-3.3 2.219 0 .061.007.122.012.183a11.526 11.526 0 0 0-1.675.622c-.025-.054-.053-.105-.083-.157a1.941 1.941 0 0 0-2.826-.536 2.293 2.293 0 0 0-.694 3c.03.05.063.094.094.143a12.525 12.525 0 0 0-1.206 1.4 1.64 1.64 0 0 0-.15-.089 2.2 2.2 0 0 0-1.983 3.9c.052.026.1.048.157.07a12.519 12.519 0 0 0-.418 1.8 1.493 1.493 0 0 0-.172.007 2.292 2.292 0 0 0-2.015 2.332 1.941 1.941 0 0 0 2.1 1.966c.059-.006.118-.015.176-.025a11.527 11.527 0 0 0 .481 1.722c-.052.031-.1.062-.155.094a2.292 2.292 0 0 0-.694 3 2.849 2.849 0 0 0 3.511.754c.05-.035-.587-.283-.541-.325a10.377 10.377 0 0 0 1.26 1.178c-.032.052-.063.106-.094.161a2.029 2.029 0 1 0 3.607 1.832c.028-.056.053-.112.076-.169a10.3 10.3 0 0 0 1.7.323c0 .06-.007.12-.006.181a1.942 1.942 0 0 0 2.1 1.966 2.291 2.291 0 0 0 2.014-2.333c0-.061-.007-.122-.012-.183a11.526 11.526 0 0 0 1.675-.622 1.689 1.689 0 0 0 .084.157 1.941 1.941 0 0 0 2.826.536 2.292 2.292 0 0 0 .694-3c-.03-.05-.063-.094-.094-.143a12.526 12.526 0 0 0 1.206-1.4 1.632 1.632 0 0 0 .148.079zm-12.418.158c-3.616-1.837-4.936-6.5-2.948-10.416s6.532-5.6 10.149-3.768 4.936 6.5 2.949 10.416-6.532 5.6-10.149 3.764z" transform="translate(-829.668 -492.702)"/>
                <path id="Path_4653" fill="url(#linear-gradient-15)" d="M1042.332 580.3a2.291 2.291 0 0 0 2.014-2.332 1.941 1.941 0 0 0-2.1-1.966c-.059.006-.118.015-.175.025a11.541 11.541 0 0 0-.487-1.719c.053-.031.1-.062.156-.094.972-.681 2.175-2.327 1.489-3.239-1.3-1.73-2.65-.982-3.622-.3-.05.035-.094.073-.143.111a10.307 10.307 0 0 0-1.26-1.178c.032-.052.063-.105.094-.161a2.261 2.261 0 0 0 .127-1.784q-1.408 2.478-2.775 4.981a7.785 7.785 0 0 1 2 9.833 7.959 7.959 0 0 1-7.536 4.489c-.132.343-.262.688-.4 1.028-.384.922-.822 1.826-1.26 2.732.275.052.552.094.829.122 0 .06-.007.12-.006.181.024 1.187.745 2.195 2.8 2.086 1.14-.06 1.336-1.266 1.311-2.449 0-.061-.007-.122-.012-.183a11.531 11.531 0 0 0 1.675-.622 1.666 1.666 0 0 0 .084.157 2.962 2.962 0 0 0 3.6.711c.972-.681.506-2.2-.083-3.178-.03-.05-.063-.094-.094-.143a12.519 12.519 0 0 0 1.206-1.4 1.666 1.666 0 0 0 .149.086 2.2 2.2 0 0 0 1.983-3.9 1.652 1.652 0 0 0-.156-.069 12.671 12.671 0 0 0 .417-1.8 1.445 1.445 0 0 1 .175-.025z" transform="translate(-931.566 -514.185)"/>
                <path id="Path_4654" fill="url(#linear-gradient-16)" d="M949.3 564.714a2.2 2.2 0 0 0 1.984-3.906c-.052-.025-.1-.048-.157-.069a12.786 12.786 0 0 0 .418-1.8 1.511 1.511 0 0 0 .172-.007 2.292 2.292 0 0 0 2.015-2.332 1.941 1.941 0 0 0-2.1-1.966c-.06.006-.118.015-.176.025a11.6 11.6 0 0 0-.487-1.719c.053-.03.1-.062.155-.094a2.291 2.291 0 0 0 .694-3 1.94 1.94 0 0 0-2.826-.536c-.049.035-.094.073-.142.11a10.307 10.307 0 0 0-1.261-1.177c.032-.053.063-.106.094-.162a2.029 2.029 0 1 0-3.607-1.832c-.028.056-.053.113-.076.17a10.208 10.208 0 0 0-1.7-.323c0-.06.006-.121 0-.181a1.938 1.938 0 0 0-2.1-1.966 2.3 2.3 0 0 0-2.015 2.332c0 .062.007.122.012.183a11.588 11.588 0 0 0-1.674.622c-.026-.053-.053-.106-.084-.156a1.939 1.939 0 0 0-2.826-.536 2.292 2.292 0 0 0-.694 3c.03.051.063.094.094.143a12.709 12.709 0 0 0-1.207 1.4 1.5 1.5 0 0 0-.149-.086 2.2 2.2 0 0 0-1.983 3.9c.052.026.1.048.157.07a12.5 12.5 0 0 0-.418 1.8c-.057 0-.114 0-.172.006a2.292 2.292 0 0 0-2.015 2.333 1.939 1.939 0 0 0 2.1 1.965 1.015 1.015 0 0 0 .176-.025 11.606 11.606 0 0 0 .486 1.719c-.052.03-.1.062-.154.094a2.292 2.292 0 0 0-.694 3 1.94 1.94 0 0 0 2.826.536c.05-.035.094-.073.143-.11a10.308 10.308 0 0 0 1.261 1.177c-.032.053-.064.105-.094.162a2.03 2.03 0 1 0 3.608 1.832c.028-.057.053-.113.076-.17a10.214 10.214 0 0 0 1.7.323 1.656 1.656 0 0 0 0 .181 1.941 1.941 0 0 0 2.1 1.966 2.292 2.292 0 0 0 2.015-2.332 1.654 1.654 0 0 0-.013-.183 11.6 11.6 0 0 0 1.675-.622c.026.053.053.106.084.156a1.94 1.94 0 0 0 2.826.536 2.292 2.292 0 0 0 .694-3c-.03-.05-.063-.094-.094-.143a12.711 12.711 0 0 0 1.21-1.4 1.52 1.52 0 0 0 .143.092zm-12.417.157c-3.617-1.836-4.937-6.5-2.948-10.416s6.532-5.6 10.148-3.768 4.937 6.5 2.948 10.415-6.531 5.605-10.152 3.769z" transform="translate(-839.876 -492.697)"/>
                <path id="Path_4655" d="M552.433 213.564s-42.572-61.692-.983-110.719l-10.65-1.913 33.027-9.772-9.881 26.518-4.25-8.318s-31.222 30.387-7.263 104.204z" class="cls-27" transform="translate(-482.985 -82.572)"/>
                <path id="Path_4656" d="M934.69 1169.907s68.014 12.254 93.344-41.34l5.663 8.217-4.373-31.454-18.5 18.4 8.6.4s-13.624 37.785-84.734 45.777z" class="cls-27" transform="translate(-846.638 -1001.205)"/>
            </g>
        </g>
    </g>
</svg>
