<svg xmlns="http://www.w3.org/2000/svg" xmlns:xlink="http://www.w3.org/1999/xlink" width="100" height="99.36" viewBox="0 0 100 99.36">
    <defs>
        <linearGradient id="linear-gradient" x2="1" y1=".5" y2=".5" gradientUnits="objectBoundingBox">
            <stop offset="0" stop-color="#159957"/>
            <stop offset="1" stop-color="#155799"/>
        </linearGradient>
        <linearGradient id="linear-gradient-2" x1="-.228" x2=".571" y1="-.325" y2=".884" gradientUnits="objectBoundingBox">
            <stop offset="0" stop-color="#159957"/>
            <stop offset=".64" stop-color="#155799"/>
        </linearGradient>
        <linearGradient id="linear-gradient-4" x1="13.692" x2="13.212" y1="-1.22" y2="-.203" xlink:href="#linear-gradient"/>
        <linearGradient id="linear-gradient-5" x1="3.734" x2="4.424" y1="-.026" y2=".933" gradientUnits="objectBoundingBox">
            <stop offset="0" stop-color="#ffc444"/>
            <stop offset="1" stop-color="#f36f56"/>
        </linearGradient>
        <linearGradient id="linear-gradient-6" x1="1.209" x2=".353" y1=".822" y2=".447" gradientUnits="objectBoundingBox">
            <stop offset="0" stop-color="#444b8c"/>
            <stop offset="1" stop-color="#26264f"/>
        </linearGradient>
        <linearGradient id="linear-gradient-7" x1="1.981" x2="5.133" y1="-.968" y2="-.908" xlink:href="#linear-gradient-6"/>
        <linearGradient id="linear-gradient-8" x1="0" x2="1" y1=".5" y2=".5" xlink:href="#linear-gradient-5"/>
        <linearGradient id="linear-gradient-9" x2="1" y1=".5" y2=".5" gradientUnits="objectBoundingBox">
            <stop offset="0" stop-color="#ffc26a"/>
            <stop offset=".99" stop-color="#f39f47"/>
        </linearGradient>
        <linearGradient id="linear-gradient-10" x1="0" x2="1" y1=".5" y2=".5" xlink:href="#linear-gradient-9"/>
        <linearGradient id="linear-gradient-11" x1="0" x2="1" y1=".5" y2=".5" xlink:href="#linear-gradient-9"/>
        <linearGradient id="linear-gradient-12" x1=".312" x2=".446" y1="-.274" y2=".312" gradientUnits="objectBoundingBox">
            <stop offset="0" stop-color="#21633c"/>
            <stop offset="1" stop-color="#3aa668"/>
        </linearGradient>
        <clipPath id="clip-path">
            <path id="Path_4286" d="M797.374 807.881l6.753-1.739s1.739-5.059-.757-6.407-1.54-6.207-1.331-8.856c.568-7.191-7.2-6.535-7.21-15.832 0-2.472.82-7.188-1.265-9.158-2.375-2.244-4.109-.043-5.636-1.919-2.386-2.933-6.26-3.984-8.568-.966-2.279 2.978.49 8.908 7.373 13.673 4.551 3.978 4.62 5.169 4.263 8.069-.251 2.031-2.188 7.324.569 9.437s4.863 4.4 3.8 6.691c-1.613 3.491 2.009 7.007 2.009 7.007z" class="cls-1" transform="translate(-778.578 -761.192)"/>
        </clipPath>
        <clipPath id="clip-path-2">
            <path id="Path_4296" d="M645.292 1169.388l-8.057 2.525s-2.814-3.657-1.752-7.193c2.163-7.213-4.308-8.6-6.928-9.592-3.955-1.49-6.79-4.528-2.608-7.548s-2.779-8.785-9.512-10.271c-6.589-1.456-7.807-14.007 6.744-12.17 8.689 1.1 10.024 9.527 11.711 13.623s8.059 2.482 7.528 8.3c-.454 4.968-2.928 9.263.674 11.452s4.937 5.486 2.2 10.874z" class="cls-2" transform="translate(-611.741 -1124.956)"/>
        </clipPath>
        <clipPath id="clip-path-3">
            <path id="Path_4303" d="M869.632 1661.72l7.855.178c.483-1.1 1.114-3.14-.518-3.682-2.269-.755-2.2-4.784-1.53-6.189.831-1.74 2.682-5.83-.807-7.052-2.9-1.018-4.987-1.08-5.077-4.863s-2.079-6.2-5.511-6.082c-3.613.126-6.42-4.762-9.422-3.247-5.231 2.64-.824 11.1 5.36 13.706s2.526 4.747 2.262 7.833c-.359 4.212 5.372 3.485 6.828 5.189a4.525 4.525 0 0 1 .56 4.209z" class="cls-1" transform="translate(-852.301 -1630.49)"/>
        </clipPath>
        <style>
            .cls-1{fill:none}.cls-2{fill:url(#linear-gradient)}.cls-3{fill:#f4f7fa}.cls-6{opacity:.5}.cls-7{fill:#fcfdfe}.cls-10{fill:#beb8f2}.cls-18{fill:#d8dee8}.cls-22{fill:#fff}
        </style>
    </defs>
    <g id="KlikGO_Illustrations-01" transform="translate(-489.716 -451.007)">
        <g id="Illustration" transform="translate(489.716 451.007)">
            <path id="Path_4276" d="M586.684 540.459a38.258 38.258 0 0 1-6.715 5.451c-17.391 11.612-37.27 8.265-43.417 7.121-9.916-1.846-18.287-3.148-25.479-9.645-16.342-14.764-15.547-45.564-3.06-64.643 1.481-2.262 13.949-20.744 33.87-23.348.486-.064.851-.1 1.169-.134 3.082-.326 22.18-2.05 37.753 11a46.467 46.467 0 0 1 9.143 10.374c12.168 18.784 12.206 47.879-3.264 63.824z" class="cls-3" transform="translate(-498.716 -455.007)"/>
            <path id="Path_4277" fill="url(#linear-gradient-2)" d="M795.368 800.873c-.929 2.007-.044 4.014.806 5.365a1.976 1.976 0 0 1 .525.107 22.548 22.548 0 0 0 4.595.357 9.088 9.088 0 0 0 2.089-.429l.9-.309s1.589-4.881-.908-6.23-1.54-6.207-1.331-8.856c.568-7.191-7.2-6.535-7.21-15.832 0-2.472.82-7.188-1.265-9.158-2.375-2.244-4.109-.043-5.636-1.919-2.386-2.933-6.26-3.984-8.568-.966-2.279 2.978.49 8.908 7.373 13.673 4.551 3.978 4.62 5.169 4.263 8.069-.251 2.031-2.188 7.324.569 9.437s4.86 4.396 3.798 6.691z" transform="translate(-768.856 -750.555)"/>
            <g id="Group_4282" clip-path="url(#clip-path)" transform="translate(9.722 10.636)">
                <g id="Group_4281" class="cls-6" transform="translate(-1.65 -.726)">
                    <path id="Path_4278" d="M754.468 786.612l.139-.017c-.1-.817-.215-1.64-.336-2.446a86.6 86.6 0 0 0-4.217-16.846 69.634 69.634 0 0 0-5.9-12.335 58.2 58.2 0 0 0-6.129-8.33 46.447 46.447 0 0 0-4.812-4.714c-.285-.24-.591-.469-.884-.69-.393-.295-.8-.6-1.16-.932l-.093.1c.367.337.775.644 1.171.941.293.22.6.448.878.685a46.636 46.636 0 0 1 4.8 4.7 58.123 58.123 0 0 1 6.114 8.311 69.633 69.633 0 0 1 5.884 12.311 86.43 86.43 0 0 1 4.21 16.82c.12.803.233 1.63.335 2.442z" class="cls-7" transform="translate(-731.08 -740.3)"/>
                    <path id="Path_4279" d="M1145.337 869.586l.125-.059c-2.521-5.372-.307-15.3-.285-15.4l-.135-.031c-.023.104-2.242 10.075.295 15.49z" class="cls-7" transform="translate(-1129.772 -850.147)"/>
                    <path id="Path_4280" d="M1108.329 1558.6l.132-.045c-1.285-3.852-8.5-6.824-8.569-6.854l-.052.128c.072.03 7.223 2.979 8.489 6.771z" class="cls-7" transform="translate(-1087.03 -1523.513)"/>
                    <path id="Path_4281" d="M1357.326 1511.763l.137-.02c-.382-2.623.5-6.4 2.481-10.646.1-.213.1-.213.1-.239l-.139.018.07-.009-.067-.017c0 .015-.042.1-.086.189-1.996 4.267-2.882 8.076-2.496 10.724z" class="cls-7" transform="translate(-1335.486 -1474.43)"/>
                    <path id="Path_4282" d="M1248.851 1926.081l.125-.058c-1.229-2.648-5.431-3.693-5.474-3.7l-.033.134c.043.007 4.181 1.037 5.382 3.624z" class="cls-7" transform="translate(-1225.67 -1881.258)"/>
                    <path id="Path_4283" d="M1406.624 1882.59a15.907 15.907 0 0 1 3.66-6.791l-.1-.09a16.051 16.051 0 0 0-3.69 6.85z" class="cls-7" transform="translate(-1383.027 -1836.268)"/>
                    <path id="Path_4284" d="M882.154 748.307l.122-.066a38.893 38.893 0 0 1-2.86-7.452c-.077-.272-.1-.368-.12-.4l-.124.06c.011.024.056.18.112.377a39.054 39.054 0 0 0 2.87 7.481z" class="cls-7" transform="translate(-874.026 -740.387)"/>
                    <path id="Path_4285" d="M820.421 1032.441l.1-.1c-2.208-2.174-8.4-2.1-8.668-2.1v.139c.063-.001 6.401-.072 8.568 2.061z" class="cls-7" transform="translate(-809.044 -1020.169)"/>
                </g>
            </g>
            <path id="Path_4287" d="M645.292 1169.388l-8.057 2.525s-2.814-3.657-1.752-7.193c2.163-7.213-4.308-8.6-6.928-9.592-3.955-1.49-6.79-4.528-2.608-7.548s-2.779-8.785-9.512-10.271c-6.589-1.456-7.807-14.007 6.744-12.17 8.689 1.1 10.024 9.527 11.711 13.623s8.059 2.482 7.528 8.3c-.454 4.968-2.928 9.263.674 11.452s4.937 5.486 2.2 10.874z" class="cls-2" transform="translate(-607.815 -1101.683)"/>
            <g id="Group_4284" clip-path="url(#clip-path-2)" transform="translate(3.926 23.273)">
                <path id="Path_4288" fill="url(#linear-gradient-4)" d="M645.285 1169.388l-8.057 2.525s-2.814-3.657-1.752-7.193c2.163-7.213-4.308-8.6-6.928-9.592-3.955-1.49-6.36-4.262-3.2-7.542 3.582-3.711-2.193-8.789-8.926-10.276-6.587-1.456-7.805-14.007 6.746-12.17 8.69 1.1 10.024 9.527 11.711 13.623s8.059 2.482 7.528 8.3c-.454 4.968-2.928 9.263.674 11.452s4.941 5.485 2.204 10.873z" transform="translate(-611.734 -1124.956)"/>
                <g id="Group_4283" class="cls-6" transform="translate(-2.11 -1.006)">
                    <path id="Path_4289" d="M583.409 1315.609l-.177.022a86.343 86.343 0 0 0-6.058-21.53c-4.288-9.632-12.307-20.789-26.154-19.243l-.02-.177a20.837 20.837 0 0 1 16.469 5.136c3.806 3.272 7.126 8.055 9.869 14.214a86.557 86.557 0 0 1 6.071 21.578z" class="cls-10" transform="translate(-551 -1268.332)"/>
                    <path id="Path_4290" d="M915.683 1109.283l-.174.032c-1.062-5.836-5.7-13.146-5.75-13.219l.147-.1c.05.078 4.709 7.416 5.777 13.287z" class="cls-10" transform="translate(-897.297 -1096)"/>
                    <path id="Path_4291" d="M658.618 1383.1a14.853 14.853 0 0 0-11.7 1.65l-.1-.145a15.026 15.026 0 0 1 11.853-1.678z" class="cls-10" transform="translate(-643.482 -1372.456)"/>
                    <path id="Path_4292" d="M934.037 1865.69c-4.415-7.423-15.938-5.971-16.049-5.948l-.048-.171c.107-.035 11.8-1.461 16.251 6.028z" class="cls-10" transform="translate(-905.193 -1832.92)"/>
                    <path id="Path_4293" d="M1345.978 1640.543l-.178.017c-.543-5.484 3.932-10.778 3.977-10.83l.135.116c-.044.054-4.47 5.291-3.934 10.697z" class="cls-10" transform="translate(-1318.146 -1611.189)"/>
                    <path id="Path_4294" d="M1290.637 2288.433c-1.224-3.044-6.454-4.119-6.507-4.129l.035-.174c.219.043 5.378 1.1 6.638 4.238z" class="cls-10" transform="translate(-1258.662 -2242.856)"/>
                    <path id="Path_4295" d="M1457.272 2109.161l-.177.024c-.347-2.571 2.488-6.445 3.42-7.718.132-.18.245-.336.26-.367l.163.073a4.326 4.326 0 0 1-.278.4c-.921 1.258-3.727 5.089-3.388 7.588z" class="cls-10" transform="translate(-1425.591 -2066.184)"/>
                </g>
            </g>
            <path id="Path_4297" fill="url(#linear-gradient-5)" d="M869.84 1659.39l.091.042A17.786 17.786 0 0 0 876.3 1661l1.453-.01c.436-1.138.648-2.3-.814-2.785-2.269-.755-2.2-4.784-1.53-6.189.831-1.74 2.682-5.83-.807-7.052-2.9-1.018-4.987-1.08-5.077-4.864s-2.079-6.2-5.511-6.082c-3.613.126-6.42-4.762-9.422-3.247-5.231 2.64-.824 11.1 5.36 13.706s2.526 4.747 2.262 7.833c-.359 4.212 5.372 3.485 6.828 5.189a3.449 3.449 0 0 1 .798 1.891z" transform="translate(-839.989 -1589.646)"/>
            <g id="Group_4286" clip-path="url(#clip-path-3)" transform="translate(12.283 40.835)">
                <g id="Group_4285" class="cls-6" transform="translate(-1.374 .891)">
                    <path id="Path_4298" d="M875.829 1685.327l.168-.029a41.557 41.557 0 0 0-21.057-29.158l-.079.151a41.382 41.382 0 0 1 20.968 29.036z" class="cls-7" transform="translate(-853.397 -1656.14)"/>
                    <path id="Path_4299" d="M1408.62 2063.55h.17c.132-4.89 4.422-8.589 4.466-8.625l-.11-.13c-.046.042-4.392 3.788-4.526 8.755z" class="cls-7" transform="translate(-1387.92 -2040.951)"/>
                    <path id="Path_4300" d="M1134.732 2282.374l.152-.077c-2.236-4.428-11.228-5.289-11.319-5.3l-.016.169c.092.011 8.99.865 11.183 5.208z" class="cls-7" transform="translate(-1112.753 -2255.432)"/>
                    <path id="Path_4301" d="M1229.776 1737.829l.158-.064c-1.467-3.651 1.038-9.139 1.063-9.194l-.154-.072c-.026.057-2.561 5.611-1.067 9.33z" class="cls-7" transform="translate(-1214.834 -1725.986)"/>
                    <path id="Path_4302" d="M822.418 1779.767l.093-.142c-3.755-2.45-9.7-1.314-9.761-1.3l.033.167c.058-.014 5.939-1.137 9.635 1.275z" class="cls-7" transform="translate(-812.75 -1773.814)"/>
                </g>
            </g>
            <path id="Path_4304" fill="url(#linear-gradient-6)" d="M1292.567 577.167v82.706c0 1.237-1.057 1.5-2.255 1.542l-41.068 2.124-.622.02a2.242 2.242 0 0 1-2.323-2.251v-85.577a2.242 2.242 0 0 1 2.323-2.251l.844.028 41.218 3.206c1.198.039 1.883-.786 1.883.453z" transform="translate(-1220.33 -569.363)"/>
            <path id="Path_4305" fill="url(#linear-gradient-7)" d="M1329.406 577.167v82.706a2.31 2.31 0 0 1-2.177 2.32l-41.767 1.366a2.242 2.242 0 0 1-2.323-2.251v-85.577a2.242 2.242 0 0 1 2.323-2.251l41.767 1.367a2.309 2.309 0 0 1 2.177 2.32z" transform="translate(-1255.89 -569.363)"/>
            <path id="Path_4306" fill="url(#linear-gradient-8)" d="M1368.219 718.686V795.3a2.154 2.154 0 0 1-2.034 2.163l-39.273 1.234a2.092 2.092 0 0 1-2.162-2.1v-79.11a2.1 2.1 0 0 1 2.162-2.1l39.274 1.146a2.146 2.146 0 0 1 2.033 2.153z" transform="translate(-1296.054 -706.336)"/>
            <path id="Path_4307" fill="url(#linear-gradient-9)" d="M1939.62 644.675a.754.754 0 0 1-.776.764.813.813 0 0 1-.776-.814.754.754 0 0 1 .776-.764.813.813 0 0 1 .776.814z" transform="translate(-1888.067 -637.3)"/>
            <path id="Path_4308" d="M1417.984 809.146L1382 809.1a1.933 1.933 0 0 1-1.927-1.936v-32.61a1.868 1.868 0 0 1 1.927-1.881l35.989 1a1.913 1.913 0 0 1 1.822 1.929v31.668a1.847 1.847 0 0 1-1.827 1.876z" class="cls-3" transform="translate(-1349.452 -761.638)"/>
            <path id="Path_4309" fill="url(#linear-gradient-10)" d="M1771.764 1586.03l-13.357-.054a.321.321 0 0 1-.317-.322v-3.926a.317.317 0 0 1 .317-.319l13.357.1a.318.318 0 0 1 .311.32v3.885a.313.313 0 0 1-.311.316z" transform="translate(-1714.341 -1542.28)"/>
            <path id="Path_4310" d="M1539.158 912.076l-32.148-.492V898.85l32.148.791z" class="cls-18" transform="translate(-1471.983 -883.432)"/>
            <path id="Path_4311" d="M1539.158 1341.094l-32.148-.329v-4.494l32.148.435z" class="cls-18" transform="translate(-1471.983 -1305.656)"/>
            <path id="Path_4312" d="M1417.984 2001.023l-35.984 1.042a1.865 1.865 0 0 1-1.927-1.878v-32.609a1.936 1.936 0 0 1 1.927-1.939l35.989-.089a1.844 1.844 0 0 1 1.822 1.873v31.668a1.915 1.915 0 0 1-1.827 1.932z" class="cls-3" transform="translate(-1349.452 -1913.076)"/>
            <path id="Path_4313" d="M1594.5 2099.987l-25.756.516a.615.615 0 0 1-.627-.62v-18.719a.634.634 0 0 1 .627-.636l25.756-.139a.608.608 0 0 1 .6.615v18.35a.627.627 0 0 1-.6.633z" class="cls-18" transform="translate(-1530.97 -2023.927)"/>
            <path id="Path_4314" fill="url(#linear-gradient-11)" d="M1771.764 2755.051l-13.357.347a.31.31 0 0 1-.317-.313v-3.925a.328.328 0 0 1 .317-.329l13.357-.3a.305.305 0 0 1 .311.311v3.885a.325.325 0 0 1-.311.324z" transform="translate(-1714.341 -2670.786)"/>
            <path id="Path_4315" d="M1549.789 2059.541a.582.582 0 0 1-.361-.124l-14.1-10.75a.934.934 0 0 1-.211-1.146.623.623 0 0 1 .949-.26l13.734 10.491 14.471-10.637a.594.594 0 0 1 .9.281.926.926 0 0 1-.231 1.114l-14.812 10.908a.591.591 0 0 1-.339.123z" class="cls-3" transform="translate(-1499.011 -1991.697)"/>
            <path id="Path_4316" fill="url(#linear-gradient-12)" d="M2156.592 1051.4l3.819-3.913a2.723 2.723 0 0 0 .825-1.9v-8.362c0-.777.873-1.382 1.92-1.33l30.11 1.476c1.026.05 1.835.68 1.835 1.429v12.654c0 .767-.849 1.369-1.9 1.347l-36.415-.729-.161-.143a.346.346 0 0 1-.033-.529z" transform="translate(-2098.899 -1015.703)"/>
            <path id="Path_4317" fill="#9c3" d="M2164.92 1052.452l4.455-4.564a2.723 2.723 0 0 0 .826-1.906v-8.366c0-.777.874-1.383 1.922-1.332l30.139 1.478c1.026.05 1.836.681 1.836 1.429v12.659c0 .768-.85 1.37-1.9 1.349z" transform="translate(-2107.039 -1016.09)"/>
            <path id="Path_4318" d="M2377.593 1158.791a1.72 1.72 0 0 0-1.1-.778.626.626 0 0 0-.44.144.479.479 0 0 0-.206.365 1.413 1.413 0 0 0 .566.919 8.111 8.111 0 0 1 .861.868 2.369 2.369 0 0 1 .4.729 2.541 2.541 0 0 1 .124.9 2.3 2.3 0 0 1-.647 1.534 2.055 2.055 0 0 1-1.525.556 2.538 2.538 0 0 1-1.447-.616l.069-1.712a1.985 1.985 0 0 0 1.349.844.778.778 0 0 0 .524-.158.558.558 0 0 0 .225-.43 1.277 1.277 0 0 0-.5-.882 8.011 8.011 0 0 1-1.061-1.187 2.927 2.927 0 0 1-.361-.773 2.41 2.41 0 0 1-.1-.775 1.874 1.874 0 0 1 .614-1.348 1.914 1.914 0 0 1 1.442-.461 3.12 3.12 0 0 1 1.288.466l-.075 1.795z" class="cls-22" transform="translate(-2309.02 -1132.15)"/>
            <path id="Path_4319" d="M2495.69 1171.162a2.164 2.164 0 0 1-.648 1.541 2.343 2.343 0 0 1-1.64.514 2.3 2.3 0 0 1-1.625-.646 2.427 2.427 0 0 1-.508-1.71q.1-2.506.208-5.011l1.5.085-.2 4.743a1.327 1.327 0 0 0 .158.78.613.613 0 0 0 .521.291.59.59 0 0 0 .516-.243 1.194 1.194 0 0 0 .214-.695l.2-4.8 1.508.084q-.094 2.535-.204 5.067z" class="cls-22" transform="translate(-2422.052 -1141.156)"/>
            <path id="Path_4320" d="M2640.948 1181.649a3.993 3.993 0 0 1-1.276.21 2.725 2.725 0 0 1-2.046-1 4.051 4.051 0 0 1-.723-2.738 4.122 4.122 0 0 1 .945-2.716 2.58 2.58 0 0 1 1.972-.816 3.453 3.453 0 0 1 1.4.423l-.062 1.455a4.572 4.572 0 0 0-.745-.378 1.916 1.916 0 0 0-.371-.058 1.478 1.478 0 0 0-1.049.44 2.771 2.771 0 0 0-.514 1.675 2.641 2.641 0 0 0 .354 1.762 1.394 1.394 0 0 0 1.042.524 2.269 2.269 0 0 0 1.139-.371q-.032.796-.066 1.588z" class="cls-22" transform="translate(-2562.62 -1149.592)"/>
            <path id="Path_4321" d="M2765.429 1189.3a3.987 3.987 0 0 1-1.276.208 2.738 2.738 0 0 1-2.047-.979 3.943 3.943 0 0 1-.723-2.7 4.024 4.024 0 0 1 .945-2.675 2.6 2.6 0 0 1 1.973-.8 3.473 3.473 0 0 1 1.4.417l-.062 1.433a4.588 4.588 0 0 0-.746-.372 1.973 1.973 0 0 0-.371-.057 1.491 1.491 0 0 0-1.049.434 3.516 3.516 0 0 0-.159 3.387 1.422 1.422 0 0 0 1.042.515 2.3 2.3 0 0 0 1.14-.367z" class="cls-22" transform="translate(-2682.776 -1157.085)"/>
            <path id="Path_4322" d="M2897.892 1197.309l-3.442-.1q.148-3.408.3-6.814l3.227.168-.057 1.3-1.746-.083-.06 1.379 1.5.065-.055 1.254-1.5-.059-.065 1.5 1.961.07z" class="cls-22" transform="translate(-2811.226 -1164.844)"/>
            <path id="Path_4323" d="M3013.912 1196.9a1.647 1.647 0 0 0-1.1-.719.66.66 0 0 0-.44.135.441.441 0 0 0-.206.339c0 .344.343.647.566.851a10.816 10.816 0 0 1 .861.8 2.149 2.149 0 0 1 .4.675 2.188 2.188 0 0 1 .123.831 2.074 2.074 0 0 1-.647 1.424 2.153 2.153 0 0 1-1.525.521 2.644 2.644 0 0 1-1.447-.566l.069-1.589a2.059 2.059 0 0 0 1.349.779.8.8 0 0 0 .524-.149.51.51 0 0 0 .225-.4 1.158 1.158 0 0 0-.5-.817 7.026 7.026 0 0 1-1.061-1.1 2.619 2.619 0 0 1-.361-.716 2.092 2.092 0 0 1-.1-.719 1.7 1.7 0 0 1 .615-1.253 2.013 2.013 0 0 1 1.442-.432 3.291 3.291 0 0 1 1.288.429l-.075 1.676z" class="cls-22" transform="translate(-2923.235 -1169.092)"/>
            <path id="Path_4324" d="M3125.573 1203.327a1.646 1.646 0 0 0-1.1-.708.664.664 0 0 0-.44.133.438.438 0 0 0-.206.334c-.01.229.178.514.566.839a8.259 8.259 0 0 1 .861.791 2.084 2.084 0 0 1 .52 1.485 2.038 2.038 0 0 1-.647 1.406 2.176 2.176 0 0 1-1.525.516 2.673 2.673 0 0 1-1.447-.556l.069-1.567a2.065 2.065 0 0 0 1.349.767.812.812 0 0 0 .524-.147.5.5 0 0 0 .225-.394q.016-.354-.495-.806a6.971 6.971 0 0 1-1.062-1.082 2.562 2.562 0 0 1-.361-.706 2.022 2.022 0 0 1-.1-.709 1.662 1.662 0 0 1 .615-1.236 2.032 2.032 0 0 1 1.442-.426 3.332 3.332 0 0 1 1.288.422l-.076 1.644z" class="cls-22" transform="translate(-3031.016 -1175.331)"/>
        </g>
    </g>
</svg>
