<svg xmlns="http://www.w3.org/2000/svg" id="Layer_1" width="14" height="14" viewBox="0 0 14 14">
    <defs>
        <style>
            .cls-1{fill:#cbcbcb}
        </style>
    </defs>
    <path id="Path_4325" d="M1.682 7.646A5.527 5.527 0 0 1 1.641 7 5.337 5.337 0 0 1 10.6 3.054l-.473.481a.419.419 0 0 0-.107.41.429.429 0 0 0 .312.279c.082.017 2.795.891 2.622.856a.415.415 0 0 0 .484-.484l-.582-2.923a.406.406 0 0 0-.689-.205l-.4.394A7 7 0 0 0 0 7v.016c0 .231.011.41.023.547a.41.41 0 0 0 .328.365l.843.168a.41.41 0 0 0 .488-.451z" class="cls-1"/>
    <path id="Path_4326" d="M33.52 215.577l-.845-.172a.41.41 0 0 0-.489.452 5.582 5.582 0 0 1 .042.65 5.331 5.331 0 0 1-8.955 3.938l.473-.473a.419.419 0 0 0 .107-.41.429.429 0 0 0-.312-.279c-.082-.017-2.795-.891-2.622-.856a.4.4 0 0 0-.369.115.409.409 0 0 0-.115.369l.582 2.9a.41.41 0 0 0 .287.312.394.394 0 0 0 .4-.107l.394-.394a6.989 6.989 0 0 0 11.769-5.111v-.025c0-.182-.007-.36-.022-.538a.41.41 0 0 0-.327-.367z" class="cls-1" transform="translate(-19.869 -209.507)"/>
</svg>
