<svg xmlns="http://www.w3.org/2000/svg" width="24" height="24" viewBox="0 0 24 24">
    <g transform="translate(-87 -147)">
        <circle cx="12" cy="12" r="12" fill="#9c3" transform="translate(87 147)"/>
        <g>
            <path fill="none" d="M0 0H12V12H0z" transform="translate(-20 -13) translate(113 166)"/>
            <path fill="#fff" d="M7.857 3.75V3A2.935 2.935 0 0 0 5 0a2.934 2.934 0 0 0-2.857 3v.75H0v6.375A1.832 1.832 0 0 0 1.786 12h6.428A1.832 1.832 0 0 0 10 10.125V3.75zM3.571 3A1.467 1.467 0 0 1 5 1.5 1.467 1.467 0 0 1 6.429 3v.75H3.571zm3.572 2.813a.563.563 0 1 1 .536-.562.55.55 0 0 1-.536.562zm-4.286 0a.563.563 0 1 1 .536-.562.55.55 0 0 1-.536.562z" transform="translate(-20 -13) translate(114 166)"/>
        </g>
    </g>
</svg>
