<svg xmlns="http://www.w3.org/2000/svg" width="12" height="12.001" viewBox="0 0 12 12.001">
    <g>
        <path fill="#cbcbcb" d="M0 12a11.948 11.948 0 0 1 2.418-7.222 4.066 4.066 0 0 0 7.649-1.924.433.433 0 0 0-.867 0 3.2 3.2 0 0 1-.224 1.18 3.2 3.2 0 0 1-5.951 0A12.049 12.049 0 0 1 6 1.606a12.044 12.044 0 0 1 1.077.7A12.053 12.053 0 0 0 6 1.606 11.94 11.94 0 0 1 12 0v12a11.95 11.95 0 0 0-2.1-6.777A11.947 11.947 0 0 1 12 12zM0 0a11.94 11.94 0 0 1 6 1.606 12.049 12.049 0 0 0-2.975 2.429A3.188 3.188 0 0 1 2.8 2.854a.433.433 0 0 0-.866 0 4.047 4.047 0 0 0 .484 1.924A11.948 11.948 0 0 0 0 12z" transform="translate(-219.999 -439.526) translate(219.999 439.526)"/>
    </g>
</svg>
