<svg xmlns="http://www.w3.org/2000/svg" width="98" height="98" viewBox="0 0 98 98">
    <defs>
        <style>
            .cls-4,.cls-6{fill-rule:evenodd}.cls-4,.cls-5{fill:#707070}.cls-6{fill:#8d8d8d}
        </style>
    </defs>
    <g id="Group_4437" transform="translate(-16 -870)">
        <rect id="Rectangle_2629" width="98" height="98" fill="#e5e5e5" rx="4" transform="translate(16 870)"/>
        <g id="Layer_2" transform="translate(21.84 929.796)">
            <g id="Layer_1" transform="translate(20.16 -41.796)">
                <path id="Path_3944" fill="#d3d3d3" fill-rule="evenodd" d="M0 39.165a37.673 37.673 0 0 1 7.621-22.771A12.766 12.766 0 0 1 6.1 10.328a1.366 1.366 0 0 1 2.732 0 10.051 10.051 0 0 0 .71 3.722 37.974 37.974 0 0 1 9.378-7.659A37.657 37.657 0 0 0 0 1.33z" transform="translate(3.003 -1.33)"/>
                <path id="Path_3945" fill="#cbcbcb" fill-rule="evenodd" d="M18.916 25.41a37.974 37.974 0 0 0-9.378 7.659 10.089 10.089 0 0 0 18.761 0 38.014 38.014 0 0 0-9.383-7.659zm-11.3 10a12.821 12.821 0 0 0 22.593 0 37.673 37.673 0 0 1 7.619 22.771H0a37.673 37.673 0 0 1 7.621-22.768z" transform="translate(3.003 -20.349)"/>
                <path id="Path_3946" d="M90 6.391a38.015 38.015 0 0 1 9.381 7.659 10.09 10.09 0 0 0 .708-3.722 1.366 1.366 0 0 1 2.732 0 12.773 12.773 0 0 1-1.524 6.066 37.673 37.673 0 0 1 7.619 22.771V1.33A37.644 37.644 0 0 0 90 6.391z" class="cls-4" transform="translate(-68.081 -1.329)"/>
                <path id="Path_3947" d="M228.84.85v12.7h2.218V9.5l3.508 4.053h2.671v-.163l-4.162-4.58 3.654-4.09v-.126h-2.654l-3.017 3.6V.85z" class="cls-4" transform="translate(-228.84 42.232)"/>
                <path id="Rectangle_2532" d="M0 0H2.199V12.704H0z" class="cls-5" transform="translate(9.415 43.082)"/>
                <path id="Path_3948" d="M376.22 1.3a1.309 1.309 0 0 0 2.618 0 1.309 1.309 0 0 0-2.618 0z" class="cls-6" transform="translate(-362.862 43.003)"/>
                <path id="Rectangle_2533" d="M0 0H2.217V8.997H0z" class="cls-5" transform="translate(13.559 46.79)"/>
                <path id="Path_3949" d="M424.35.85v12.7h2.217V9.5l3.508 4.053h2.672v-.163l-4.162-4.58 3.653-4.09v-.126h-2.653l-3.017 3.6V.85z" class="cls-4" transform="translate(-406.629 42.232)"/>
                <path id="Path_3950" d="M517.064 38.955a4.367 4.367 0 0 0-4.544 4.539A4.192 4.192 0 0 0 517.064 48c1.109 0 2.272.563 2.272 1.8s-1 1.926-2.272 1.926a2.113 2.113 0 0 1-2.345-1.926h-2.2c0 2.417 1.945 4 4.544 4s4.489-1.526 4.489-4a3.015 3.015 0 0 0-1.854-2.963 3.554 3.554 0 0 0 1.89-3.344 4.284 4.284 0 0 0-4.526-4.544zm0 2.018a2.352 2.352 0 0 1 2.327 2.526 2.341 2.341 0 1 1-4.672 0 2.347 2.347 0 0 1 2.345-2.531z" class="cls-6" transform="translate(-486.807 7.585)"/>
                <path id="Path_3951" d="M628.244 40.15a4.671 4.671 0 1 0 4.689 4.672 4.485 4.485 0 0 0-4.689-4.672zm.018 2.018a2.531 2.531 0 0 1 2.435 2.654 2.443 2.443 0 1 1-4.871 0 2.462 2.462 0 0 1 2.437-2.654z" class="cls-6" transform="translate(-587.828 6.494)"/>
                <path id="Path_3952" d="M590.037 39a2.852 2.852 0 0 0-2.247 1.2l.879 1.729a1.749 1.749 0 0 1 1.368-1.1z" class="cls-6" transform="translate(-555.255 7.54)"/>
                <path id="Path_3953" d="M229.769 159.44a.1.1 0 0 1-.021.025.048.048 0 0 1-.029.008.074.074 0 0 1-.043-.019.7.7 0 0 0-.063-.04.423.423 0 0 0-.091-.041.406.406 0 0 0-.128-.018.379.379 0 0 0-.126.019.258.258 0 0 0-.091.052.213.213 0 0 0-.056.077.252.252 0 0 0-.018.1.181.181 0 0 0 .032.109.286.286 0 0 0 .085.074.708.708 0 0 0 .121.053l.137.046c.047.016.091.034.138.054a.48.48 0 0 1 .12.076.331.331 0 0 1 .085.112.369.369 0 0 1 .033.164.521.521 0 0 1-.035.192.453.453 0 0 1-.1.157.482.482 0 0 1-.165.105.611.611 0 0 1-.222.038.669.669 0 0 1-.276-.055.658.658 0 0 1-.214-.15l.062-.1a.071.071 0 0 1 .021-.02.052.052 0 0 1 .028-.009.091.091 0 0 1 .053.024.778.778 0 0 0 .073.054.561.561 0 0 0 .107.054.424.424 0 0 0 .153.024.407.407 0 0 0 .134-.021.28.28 0 0 0 .1-.059.243.243 0 0 0 .063-.091.3.3 0 0 0 .022-.117.193.193 0 0 0-.032-.116.266.266 0 0 0-.085-.076.574.574 0 0 0-.119-.052l-.138-.044a1.177 1.177 0 0 1-.137-.052.409.409 0 0 1-.12-.076.354.354 0 0 1-.085-.118.427.427 0 0 1-.032-.174.408.408 0 0 1 .033-.16.4.4 0 0 1 .091-.138.453.453 0 0 1 .151-.1.559.559 0 0 1 .207-.036.677.677 0 0 1 .239.042.554.554 0 0 1 .189.121l-.051.1zm.325 1.322v-1.108h.12a.051.051 0 0 1 .053.04l.014.114a.543.543 0 0 1 .137-.123.318.318 0 0 1 .176-.048.265.265 0 0 1 .181.062.355.355 0 0 1 .1.169.364.364 0 0 1 .061-.1.353.353 0 0 1 .084-.072.376.376 0 0 1 .1-.042.426.426 0 0 1 .108-.013.406.406 0 0 1 .156.028.3.3 0 0 1 .115.081.364.364 0 0 1 .073.132.593.593 0 0 1 .025.181v.705h-.197v-.705a.3.3 0 0 0-.057-.2.2.2 0 0 0-.165-.067.239.239 0 0 0-.091.017.211.211 0 0 0-.076.049.237.237 0 0 0-.052.082.327.327 0 0 0-.02.116v.705h-.194v-.705a.314.314 0 0 0-.053-.2.19.19 0 0 0-.156-.065.246.246 0 0 0-.134.039.439.439 0 0 0-.113.105v.826zm2.606 0h-.086a.1.1 0 0 1-.046-.009.047.047 0 0 1-.023-.037l-.022-.1a1.08 1.08 0 0 1-.085.07.461.461 0 0 1-.091.053.419.419 0 0 1-.1.033.57.57 0 0 1-.116.011.4.4 0 0 1-.121-.018.285.285 0 0 1-.1-.053.273.273 0 0 1-.065-.091.323.323 0 0 1-.025-.131.25.25 0 0 1 .036-.127.319.319 0 0 1 .116-.108.738.738 0 0 1 .21-.077 1.583 1.583 0 0 1 .317-.034v-.086a.3.3 0 0 0-.055-.2.2.2 0 0 0-.163-.065.352.352 0 0 0-.12.018.429.429 0 0 0-.084.041c-.024.014-.044.029-.061.041a.091.091 0 0 1-.051.018.057.057 0 0 1-.034-.011.069.069 0 0 1-.024-.025l-.035-.063a.653.653 0 0 1 .2-.133.614.614 0 0 1 .235-.044.409.409 0 0 1 .165.031.338.338 0 0 1 .122.085.371.371 0 0 1 .074.132.539.539 0 0 1 .025.17v.709zm-.5-.121a.378.378 0 0 0 .091-.01.334.334 0 0 0 .08-.03.356.356 0 0 0 .072-.046.691.691 0 0 0 .067-.062v-.23a1.634 1.634 0 0 0-.227.022.673.673 0 0 0-.152.044.218.218 0 0 0-.085.064.137.137 0 0 0-.026.083.19.19 0 0 0 .014.075.16.16 0 0 0 .038.052.156.156 0 0 0 .057.029.249.249 0 0 0 .071.009zm.8.121v-1.108h.112a.064.064 0 0 1 .044.013.069.069 0 0 1 .016.041l.013.173a.5.5 0 0 1 .14-.181.309.309 0 0 1 .2-.065.3.3 0 0 1 .083.011.273.273 0 0 1 .069.029l-.025.146a.033.033 0 0 1-.034.027.181.181 0 0 1-.047-.01.283.283 0 0 0-.091-.011.252.252 0 0 0-.17.059.453.453 0 0 0-.114.172v.7zm1.216.017a.264.264 0 0 1-.2-.073.289.289 0 0 1-.071-.21v-.677h-.133a.043.043 0 0 1-.03-.011.04.04 0 0 1-.012-.033v-.075l.181-.023.044-.341a.044.044 0 0 1 .014-.027.044.044 0 0 1 .031-.01h.1v.384h.317v.142h-.317v.663a.145.145 0 0 0 .034.1.12.12 0 0 0 .091.034.163.163 0 0 0 .053-.008.244.244 0 0 0 .038-.018l.028-.018a.036.036 0 0 1 .02-.008.033.033 0 0 1 .027.019l.057.091a.35.35 0 0 1-.121.073.4.4 0 0 1-.146.027zm1.733-1.339a.082.082 0 0 1-.021.025.046.046 0 0 1-.028.008.076.076 0 0 1-.043-.019c-.016-.012-.037-.025-.062-.04a.443.443 0 0 0-.091-.041.411.411 0 0 0-.129-.018.386.386 0 0 0-.126.019.266.266 0 0 0-.091.052.212.212 0 0 0-.055.077.239.239 0 0 0-.019.1.175.175 0 0 0 .033.109.272.272 0 0 0 .085.074.733.733 0 0 0 .12.053l.138.046c.047.016.091.034.137.054a.471.471 0 0 1 .121.076.342.342 0 0 1 .085.112.384.384 0 0 1 .032.164.545.545 0 0 1-.034.192.453.453 0 0 1-.1.157.473.473 0 0 1-.165.105.6.6 0 0 1-.222.038.673.673 0 0 1-.276-.055.655.655 0 0 1-.213-.15l.061-.1a.075.075 0 0 1 .022-.02.05.05 0 0 1 .028-.009.091.091 0 0 1 .052.024q.03.024.073.054a.559.559 0 0 0 .107.054.424.424 0 0 0 .153.024.413.413 0 0 0 .135-.021.287.287 0 0 0 .1-.059.243.243 0 0 0 .063-.091.3.3 0 0 0 .024-.117.193.193 0 0 0-.033-.116.262.262 0 0 0-.084-.076.557.557 0 0 0-.12-.052l-.137-.044a1.194 1.194 0 0 1-.138-.052.432.432 0 0 1-.12-.076.364.364 0 0 1-.084-.118.414.414 0 0 1-.032-.174.426.426 0 0 1 .032-.16.418.418 0 0 1 .091-.138.467.467 0 0 1 .151-.1.561.561 0 0 1 .207-.036.668.668 0 0 1 .239.042.558.558 0 0 1 .189.121l-.052.1zm.325 1.322v-1.61h.2v.651a.6.6 0 0 1 .158-.121.411.411 0 0 1 .2-.045.4.4 0 0 1 .159.03.3.3 0 0 1 .116.085.372.372 0 0 1 .07.133.564.564 0 0 1 .024.171v.705H237v-.705a.3.3 0 0 0-.057-.2.213.213 0 0 0-.175-.069.321.321 0 0 0-.16.042.5.5 0 0 0-.138.112v.816zm1.662-1.125a.566.566 0 0 1 .219.04.459.459 0 0 1 .166.115.5.5 0 0 1 .105.181.787.787 0 0 1 0 .472.5.5 0 0 1-.105.181.468.468 0 0 1-.166.114.621.621 0 0 1-.438 0 .48.48 0 0 1-.167-.114.506.506 0 0 1-.106-.181.769.769 0 0 1 0-.472.5.5 0 0 1 .106-.181.47.47 0 0 1 .167-.115.561.561 0 0 1 .215-.04zm0 .987a.285.285 0 0 0 .245-.11.625.625 0 0 0 0-.614.283.283 0 0 0-.245-.111.338.338 0 0 0-.144.029.272.272 0 0 0-.1.082.368.368 0 0 0-.062.131.707.707 0 0 0-.02.177.694.694 0 0 0 .02.176.362.362 0 0 0 .062.13.271.271 0 0 0 .1.082.338.338 0 0 0 .14.028zm.767.513v-1.483h.117a.05.05 0 0 1 .053.041l.016.131a.614.614 0 0 1 .161-.139.415.415 0 0 1 .21-.053.4.4 0 0 1 .172.037.35.35 0 0 1 .131.108.529.529 0 0 1 .084.181.941.941 0 0 1 .029.244.774.774 0 0 1-.033.228.575.575 0 0 1-.091.181.436.436 0 0 1-.351.166.413.413 0 0 1-.175-.034.4.4 0 0 1-.128-.1v.49zm.489-1.345a.31.31 0 0 0-.166.044.453.453 0 0 0-.131.124v.537a.311.311 0 0 0 .117.1.329.329 0 0 0 .142.029.278.278 0 0 0 .237-.11.521.521 0 0 0 .083-.315.792.792 0 0 0-.018-.186.377.377 0 0 0-.055-.128.22.22 0 0 0-.091-.073.289.289 0 0 0-.119-.023zm.714 1.345v-1.483h.116a.05.05 0 0 1 .053.041l.017.131a.6.6 0 0 1 .161-.139.408.408 0 0 1 .209-.053.4.4 0 0 1 .172.037.362.362 0 0 1 .132.108.529.529 0 0 1 .083.181.91.91 0 0 1 .03.244.742.742 0 0 1-.034.228.559.559 0 0 1-.091.181.443.443 0 0 1-.15.121.453.453 0 0 1-.2.044.408.408 0 0 1-.175-.034.389.389 0 0 1-.129-.1v.49zm.492-1.345a.316.316 0 0 0-.167.044.469.469 0 0 0-.131.124v.537a.32.32 0 0 0 .118.1.329.329 0 0 0 .142.029.277.277 0 0 0 .236-.11.52.52 0 0 0 .083-.315.784.784 0 0 0-.019-.186.379.379 0 0 0-.055-.128.219.219 0 0 0-.091-.073.3.3 0 0 0-.119-.023zm.93-.137v1.107h-.195v-1.107zm.044-.348a.116.116 0 0 1-.012.053.142.142 0 0 1-.03.044.148.148 0 0 1-.044.03.124.124 0 0 1-.054.012.119.119 0 0 1-.053-.012.145.145 0 0 1-.073-.073.126.126 0 0 1-.011-.053.136.136 0 0 1 .011-.054.143.143 0 0 1 .03-.045.161.161 0 0 1 .043-.03.131.131 0 0 1 .053-.011.138.138 0 0 1 .054.011.167.167 0 0 1 .044.03.141.141 0 0 1 .03.045.126.126 0 0 1 .007.053zm.3 1.455v-1.108h.116a.05.05 0 0 1 .053.04l.015.121a.616.616 0 0 1 .16-.129.421.421 0 0 1 .206-.049.4.4 0 0 1 .16.03.3.3 0 0 1 .116.085.374.374 0 0 1 .07.133.569.569 0 0 1 .025.171v.705h-.195v-.705a.3.3 0 0 0-.057-.2.213.213 0 0 0-.175-.069.319.319 0 0 0-.16.042.5.5 0 0 0-.138.112v.816zm1.588-1.125a.534.534 0 0 1 .135.015.423.423 0 0 1 .114.045h.306v.072c0 .024-.015.039-.045.045l-.126.018a.337.337 0 0 1 .037.158.35.35 0 0 1-.031.147.326.326 0 0 1-.091.113.377.377 0 0 1-.131.073.536.536 0 0 1-.167.024.584.584 0 0 1-.146-.018.181.181 0 0 0-.054.047.084.084 0 0 0-.018.049.064.064 0 0 0 .032.059.228.228 0 0 0 .084.03 1.04 1.04 0 0 0 .119.011.864.864 0 0 1 .136.007 1.116 1.116 0 0 1 .136.016.4.4 0 0 1 .119.04.208.208 0 0 1 .115.2.291.291 0 0 1-.035.138.372.372 0 0 1-.1.119.5.5 0 0 1-.162.083.694.694 0 0 1-.217.032.815.815 0 0 1-.212-.025.475.475 0 0 1-.151-.064.278.278 0 0 1-.091-.091.223.223 0 0 1-.03-.111.2.2 0 0 1 .053-.14.355.355 0 0 1 .142-.091.182.182 0 0 1-.074-.058.155.155 0 0 1-.028-.1.166.166 0 0 1 .008-.05.213.213 0 0 1 .027-.051.237.237 0 0 1 .044-.048.271.271 0 0 1 .061-.041.339.339 0 0 1-.055-.559.413.413 0 0 1 .132-.072.557.557 0 0 1 .169-.024zm.345 1.185a.1.1 0 0 0-.023-.067.145.145 0 0 0-.063-.039.473.473 0 0 0-.091-.021c-.034 0-.071-.007-.109-.009l-.112-.008a.877.877 0 0 1-.112-.012.333.333 0 0 0-.1.073.15.15 0 0 0-.039.1.138.138 0 0 0 .02.07.165.165 0 0 0 .058.056.347.347 0 0 0 .1.037.643.643 0 0 0 .141.014.66.66 0 0 0 .14-.014.381.381 0 0 0 .106-.041.211.211 0 0 0 .066-.063.144.144 0 0 0 .023-.08zm-.343-.6a.312.312 0 0 0 .1-.016.216.216 0 0 0 .076-.046.182.182 0 0 0 .045-.07.238.238 0 0 0 .017-.09.215.215 0 0 0-.062-.161.3.3 0 0 0-.363 0 .215.215 0 0 0-.062.161.259.259 0 0 0 .015.091.2.2 0 0 0 .046.07.216.216 0 0 0 .076.046.3.3 0 0 0 .1.016zm2.162-1.024v.172h-.751v.52h.608v.166h-.608v.528h.751v.173h-.965V159.2zm.133.459h.161a.058.058 0 0 1 .038.012.071.071 0 0 1 .022.028l.281.713a.529.529 0 0 1 .024.079c.006.026.012.052.016.077l.019-.077a.533.533 0 0 1 .025-.079l.284-.713a.066.066 0 0 1 .022-.028.053.053 0 0 1 .036-.012h.151l-.453 1.108H246l-.453-1.108zm1.667-.017a.49.49 0 0 1 .181.034.4.4 0 0 1 .145.1.43.43 0 0 1 .1.155.612.612 0 0 1 .035.211.128.128 0 0 1-.01.061.042.042 0 0 1-.037.015h-.736a.64.64 0 0 0 .028.181.382.382 0 0 0 .073.13.285.285 0 0 0 .109.077.374.374 0 0 0 .142.026.4.4 0 0 0 .126-.017.6.6 0 0 0 .091-.036.557.557 0 0 0 .064-.037.091.091 0 0 1 .044-.016.043.043 0 0 1 .037.018l.054.072a.346.346 0 0 1-.086.075.511.511 0 0 1-.107.053.736.736 0 0 1-.119.031.693.693 0 0 1-.121.011.572.572 0 0 1-.211-.039.472.472 0 0 1-.167-.114.524.524 0 0 1-.111-.181.749.749 0 0 1-.039-.254.648.648 0 0 1 .035-.217.5.5 0 0 1 .1-.174.46.46 0 0 1 .162-.116.532.532 0 0 1 .216-.042zm0 .144a.3.3 0 0 0-.22.081.382.382 0 0 0-.1.225h.6a.379.379 0 0 0-.019-.123.263.263 0 0 0-.054-.1.246.246 0 0 0-.091-.063.3.3 0 0 0-.118-.022zm.7.981v-1.112h.112a.061.061 0 0 1 .044.013.069.069 0 0 1 .016.041l.014.173a.5.5 0 0 1 .139-.181.312.312 0 0 1 .2-.065.293.293 0 0 1 .082.011.259.259 0 0 1 .069.029l-.025.146a.033.033 0 0 1-.034.027.19.19 0 0 1-.047-.01.28.28 0 0 0-.091-.011.254.254 0 0 0-.17.059.453.453 0 0 0-.114.172v.7zm1.2.327a.1.1 0 0 1-.024.035.066.066 0 0 1-.045.013h-.144l.2-.44-.453-1.043h.168a.06.06 0 0 1 .04.013.085.085 0 0 1 .021.027l.3.7a.3.3 0 0 1 .017.048c0 .015.009.032.013.049 0-.017.01-.034.015-.049l.017-.05.287-.7a.062.062 0 0 1 .023-.028.054.054 0 0 1 .034-.012h.155l-.617 1.435zm1.541-.327a.05.05 0 0 1-.053-.041l-.008-.139a.6.6 0 0 1-.162.138.417.417 0 0 1-.209.053.4.4 0 0 1-.172-.037.355.355 0 0 1-.131-.107.532.532 0 0 1-.084-.181.906.906 0 0 1-.03-.244.748.748 0 0 1 .034-.228.556.556 0 0 1 .091-.181.442.442 0 0 1 .149-.121.454.454 0 0 1 .2-.044.4.4 0 0 1 .174.034.431.431 0 0 1 .129.1v-.614h.194v1.61zm-.376-.142a.315.315 0 0 0 .166-.044.492.492 0 0 0 .131-.123v-.536a.3.3 0 0 0-.117-.1.329.329 0 0 0-.141-.029.272.272 0 0 0-.238.111.514.514 0 0 0-.083.314.786.786 0 0 0 .019.181.347.347 0 0 0 .054.127.218.218 0 0 0 .091.072.3.3 0 0 0 .12.023zm1.632.142h-.086a.09.09 0 0 1-.045-.009.048.048 0 0 1-.024-.037l-.022-.1a.936.936 0 0 1-.085.07.429.429 0 0 1-.091.053.445.445 0 0 1-.1.033.568.568 0 0 1-.115.011.4.4 0 0 1-.121-.018.277.277 0 0 1-.1-.053.263.263 0 0 1-.066-.091.323.323 0 0 1-.024-.131.242.242 0 0 1 .036-.127.313.313 0 0 1 .116-.108.741.741 0 0 1 .209-.077 1.6 1.6 0 0 1 .317-.034v-.086a.3.3 0 0 0-.054-.2.2.2 0 0 0-.164-.065.345.345 0 0 0-.119.018.411.411 0 0 0-.084.041c-.024.014-.044.029-.062.041a.091.091 0 0 1-.051.018.057.057 0 0 1-.034-.011.088.088 0 0 1-.024-.025l-.034-.063a.645.645 0 0 1 .2-.133.612.612 0 0 1 .235-.044.413.413 0 0 1 .165.031.335.335 0 0 1 .121.085.363.363 0 0 1 .075.132.562.562 0 0 1 .024.17v.709zm-.5-.125a.378.378 0 0 0 .091-.01.4.4 0 0 0 .151-.076.608.608 0 0 0 .067-.062v-.23a1.607 1.607 0 0 0-.227.022.662.662 0 0 0-.152.044.214.214 0 0 0-.091.064.144.144 0 0 0-.026.083.181.181 0 0 0 .014.075.138.138 0 0 0 .038.052.144.144 0 0 0 .056.029.251.251 0 0 0 .082.01z" class="cls-4" transform="translate(-228.84 -101.72)"/>
                <path id="Path_3954" d="M485.335 166.144a.1.1 0 0 1-.024.035.064.064 0 0 1-.045.013h-.144l.2-.44-.453-1.043h.168a.057.057 0 0 1 .039.013.073.073 0 0 1 .021.027l.3.7a.442.442 0 0 1 .016.048.359.359 0 0 1 .013.049l.015-.049.017-.05.287-.7a.061.061 0 0 1 .023-.028.054.054 0 0 1 .034-.012h.155z" class="cls-4" transform="translate(-461.664 -106.775)"/>
            </g>
        </g>
    </g>
</svg>
