<svg xmlns="http://www.w3.org/2000/svg" width="98" height="98">
    <defs>
        <style>
            .cls-6{fill:#454545}
        </style>
    </defs>
    <g id="Group_4439" data-name="Group 4439" transform="translate(-16 -870)">
        <rect id="Rectangle_2630" data-name="Rectangle 2630" width="98" height="98" rx="6" transform="translate(16 870)" style="fill:#f4f2f2"/>
        <g id="Group_4438" data-name="Group 4438" transform="translate(-149.368 732.022)">
            <g id="Group_4435" data-name="Group 4435" transform="translate(196.621 152.978)">
                <path id="Path_4609" data-name="Path 4609" d="M225.409 187.716a34.582 34.582 0 0 1 7-20.912 11.719 11.719 0 0 1-1.4-5.564 1.252 1.252 0 0 1 2.5 0 9.246 9.246 0 0 0 .651 3.418 34.906 34.906 0 0 1 8.613-7.032 34.581 34.581 0 0 0-17.369-4.647z" transform="translate(-225.409 -152.978)" style="fill-rule:evenodd;fill:#dedede"/>
                <path id="Path_4610" data-name="Path 4610" d="M242.778 165.379a34.905 34.905 0 0 0-8.613 7.032 9.268 9.268 0 0 0 17.225 0 34.894 34.894 0 0 0-8.613-7.032zm-10.371 9.178a11.774 11.774 0 0 0 20.742 0 34.583 34.583 0 0 1 7 20.913h-34.74a34.583 34.583 0 0 1 6.998-20.913z" transform="translate(-225.409 -160.732)" style="fill:#d9d8d8;fill-rule:evenodd"/>
                <path id="Path_4611" data-name="Path 4611" d="M271.76 157.625a34.893 34.893 0 0 1 8.613 7.032 9.239 9.239 0 0 0 .651-3.418 1.252 1.252 0 0 1 2.5 0 11.715 11.715 0 0 1-1.4 5.564 34.583 34.583 0 0 1 7 20.912v-34.737a34.581 34.581 0 0 0-17.364 4.647z" transform="translate(-254.391 -152.978)" style="fill:#939393;fill-rule:evenodd"/>
            </g>
            <path id="Path_4612" data-name="Path 4612" d="M192.34 276.2a4.212 4.212 0 0 0-2.643 1.064 6.719 6.719 0 0 0-3.83-1.067 6.25 6.25 0 0 0-6.5 6.5c0 4 2.5 6.447 6.5 6.447 1.585 0 3.249.806 3.249 2.573s-1.43 2.756-3.249 2.756-3.353-1.092-3.353-2.756h-3.145c0 3.457 2.781 5.719 6.5 5.719s6.421-2.184 6.421-5.719a4.311 4.311 0 0 0-2.652-4.237 5.086 5.086 0 0 0 2.7-4.783 7.118 7.118 0 0 0-.9-3.559 2.236 2.236 0 0 1 .9-.316zm-6.473 10.058a3.307 3.307 0 0 1-3.353-3.561 3.351 3.351 0 1 1 6.681 0 3.316 3.316 0 0 1-3.328 3.56z" transform="translate(0 -77.046)" style="fill:#454545;fill-rule:evenodd"/>
            <path id="Path_4613" data-name="Path 4613" class="cls-6" d="M220.253 277.27h3.018v2.1h.052A4.078 4.078 0 0 1 227 276.9a3.583 3.583 0 0 1 .761.079v2.887a3.673 3.673 0 0 0-.971-.132 3.287 3.287 0 0 0-3.385 3.385v6.745h-3.149z" transform="translate(-25.565 -77.487)"/>
            <path id="Path_4614" data-name="Path 4614" class="cls-6" d="M249.373 276.9a6.53 6.53 0 0 1 6.849 6.613 6.85 6.85 0 0 1-13.7 0 6.53 6.53 0 0 1 6.851-6.613zm0 10.707c2.493 0 3.648-2.126 3.648-4.094s-1.155-4.041-3.648-4.041-3.648 2.073-3.648 4.041 1.155 4.096 3.648 4.096z" transform="translate(-39.49 -77.487)"/>
            <path id="Path_4615" data-name="Path 4615" class="cls-6" d="M292.181 280.76a3.342 3.342 0 0 0-2.6-1.234c-2.309 0-3.464 2.073-3.464 4.041s1.181 4.041 3.569 4.041a3.528 3.528 0 0 0 2.651-1.128l1.968 1.994a6.357 6.357 0 0 1-4.645 1.758c-3.726 0-6.823-2.467-6.823-6.666a6.469 6.469 0 0 1 6.744-6.666 6.3 6.3 0 0 1 4.75 1.968z" transform="translate(-64.698 -77.487)"/>
            <path id="Path_4616" data-name="Path 4616" d="M318.031 261.425a1.892 1.892 0 1 1-1.995 1.889 1.937 1.937 0 0 1 1.995-1.889z" transform="translate(-85.456 -67.81)" style="fill:#d9d8d8"/>
            <path id="Rectangle_2629" data-name="Rectangle 2629" class="cls-6" transform="translate(231.027 199.783)" d="M0 0h3.149v12.596H0z"/>
            <path id="Path_4617" data-name="Path 4617" class="cls-6" d="M342.845 284.565h-9.579a3.506 3.506 0 0 0 3.6 3.1 3.818 3.818 0 0 0 3.333-1.627l2.1 1.68a6.266 6.266 0 0 1-5.406 2.519c-3.884 0-6.771-2.493-6.771-6.587a6.427 6.427 0 0 1 6.666-6.744c3.516 0 6.088 2.283 6.088 6.823-.004.284-.004.547-.031.836zm-3.123-2.257a2.8 2.8 0 0 0-2.965-3.044 3.363 3.363 0 0 0-3.49 3.044z" transform="translate(-94.261 -77.487)"/>
            <text id="Groceries_at_Simplicity" data-name="Groceries at Simplicity" transform="translate(194.818 216.837)" style="font-size:2px;font-family:Avenir-Heavy,Avenir;font-weight:800;letter-spacing:.15em;fill:#454545"><tspan x="0" y="0">Groceries at Simplicity</tspan></text>
        </g>
    </g>
</svg>
