<svg id="Group_4429" data-name="Group 4429" xmlns="http://www.w3.org/2000/svg" width="43.819" height="43.822" viewBox="0 0 43.819 43.822">
  <path id="Path_3944" data-name="Path 3944" d="M0,45.152A43.635,43.635,0,0,1,8.827,18.777,14.787,14.787,0,0,1,7.06,11.752a1.582,1.582,0,1,1,3.165,0,11.641,11.641,0,0,0,.823,4.311A43.982,43.982,0,0,1,21.909,7.192,43.614,43.614,0,0,0,0,1.33Z" transform="translate(0 -1.33)" fill="#fc0" fill-rule="evenodd"/>
  <path id="Path_3945" data-name="Path 3945" d="M21.909,25.41a43.982,43.982,0,0,0-10.862,8.871,11.685,11.685,0,0,0,21.729,0A44.028,44.028,0,0,0,21.909,25.41ZM8.827,37a14.85,14.85,0,0,0,26.167,0A43.635,43.635,0,0,1,43.819,63.37H0A43.635,43.635,0,0,1,8.827,37Z" transform="translate(0 -19.548)" fill="#9c3" fill-rule="evenodd"/>
  <path id="Path_3946" data-name="Path 3946" d="M90,7.192a44.03,44.03,0,0,1,10.865,8.871,11.686,11.686,0,0,0,.82-4.311,1.582,1.582,0,1,1,3.165,0,14.794,14.794,0,0,1-1.765,7.026,43.635,43.635,0,0,1,8.825,26.374V1.33A43.6,43.6,0,0,0,90,7.192Z" transform="translate(-68.091 -1.33)" fill="#3aa668" fill-rule="evenodd"/>
</svg>
