<svg xmlns="http://www.w3.org/2000/svg" width="13.715" height="12.001" viewBox="0 0 13.715 12.001">
    <defs>
        <style>
            .cls-1{fill:#cbcbcb}
        </style>
    </defs>
    <g id="store" transform="translate(0 -32)">
        <g id="Group_4360" transform="translate(0 32)">
            <g id="Group_4359">
                <path id="Path_4328" d="M13.7 35.754l-.776-3.1A.857.857 0 0 0 12.1 32H1.621a.858.858 0 0 0-.832.649l-.776 3.1a.419.419 0 0 0-.013.1A2.094 2.094 0 0 0 2.036 38a2 2 0 0 0 1.607-.829 1.973 1.973 0 0 0 3.215 0 1.973 1.973 0 0 0 3.215 0A2 2 0 0 0 11.68 38a2.094 2.094 0 0 0 2.036-2.143.419.419 0 0 0-.016-.103z" class="cls-1" transform="translate(0 -32)"/>
            </g>
        </g>
        <g id="Group_4362" transform="translate(.857 38.354)">
            <g id="Group_4361">
                <path id="Path_4329" d="M42.822 269.688a2.8 2.8 0 0 1-1.607-.5 2.885 2.885 0 0 1-3.215 0 2.885 2.885 0 0 1-3.215 0 2.783 2.783 0 0 1-2.786.237v4.553a.858.858 0 0 0 .857.857h3.429V271.4h3.429v3.429h3.429a.858.858 0 0 0 .857-.857v-4.553a2.781 2.781 0 0 1-1.178.269z" class="cls-1" transform="translate(-32 -269.184)"/>
            </g>
        </g>
    </g>
</svg>
