<svg xmlns="http://www.w3.org/2000/svg" width="12" height="10.164" viewBox="0 0 12 10.164">
    <defs>
        <style>
            .cls-1{fill:#0f447a}
        </style>
    </defs>
    <g id="Layer_2" transform="translate(.001 .001)">
        <g id="Layer_1" transform="translate(-.001 -.001)">
            <g id="Icon_feather-heart">
                <path id="Path_4536" d="M10.571.984h-.02a3.26 3.26 0 0 0-4.6 0l-.194.194-.176-.194A3.234 3.234 0 0 0 3.283 0a3.2 3.2 0 0 0-2.3.932 3.238 3.238 0 0 0-.056 4.6l4.486 4.488a.492.492 0 0 0 .7 0l.657-.657a3.585 3.585 0 0 1-.735-.657l-.259.259-4.135-4.116A2.272 2.272 0 0 1 3.256.984h.026a2.256 2.256 0 0 1 1.605.683l.525.532a.489.489 0 0 0 .7 0l.525-.525a2.272 2.272 0 0 1 3.214-.033 2.256 2.256 0 0 1 .624 1.166 3.769 3.769 0 0 1 1.018.726v-.257a3.24 3.24 0 0 0-.922-2.292z" class="cls-1" transform="translate(.001 .001)"/>
            </g>
            <g id="Group_4403" transform="translate(5.762 3.136)">
                <g id="Group_4402">
                    <path id="Path_4537" d="M20.669 9.55a3.119 3.119 0 1 0 3.119 3.119 3.119 3.119 0 0 0-3.119-3.119zm0 5.581a2.462 2.462 0 1 1 2.462-2.462 2.462 2.462 0 0 1-2.462 2.462z" class="cls-1" transform="translate(-17.55 -9.55)"/>
                    <path id="Path_4538" d="M20.669 9.55a3.119 3.119 0 1 0 3.119 3.119 3.119 3.119 0 0 0-3.119-3.119zm0 5.581a2.462 2.462 0 1 1 2.462-2.462 2.462 2.462 0 0 1-2.462 2.462z" class="cls-1" transform="translate(-17.55 -9.55)"/>
                    <g id="Line_187" transform="translate(1.543 1.543)">
                        <path id="Path_4539" d="M25.451 15.842a.328.328 0 0 1-.328.328h-.952v.952a.328.328 0 0 1-.657 0v-.952h-.936a.328.328 0 0 1 0-.657h.936v-.936a.328.328 0 0 1 .657 0v.936h.952a.328.328 0 0 1 .328.329z" class="cls-1" transform="translate(-22.25 -14.25)"/>
                    </g>
                </g>
            </g>
        </g>
    </g>
</svg>
