<svg xmlns="http://www.w3.org/2000/svg" width="64" height="17.863" viewBox="0 0 64 17.863">
    <defs>
        <style>
            .cls-2,.cls-3,.cls-4{fill-rule:evenodd}.cls-2{fill:#9c3}.cls-3{fill:#3aa668}.cls-4,.cls-5{fill:#0f447a}
        </style>
    </defs>
    <g id="Layer_2" transform="translate(0 -.003)">
        <g id="Layer_1" transform="translate(0 .003)">
            <path id="Path_3944" fill="#fc0" fill-rule="evenodd" d="M0 17.188a15.791 15.791 0 0 1 3.194-9.544A5.351 5.351 0 0 1 2.555 5.1a.573.573 0 0 1 1.145 0A4.213 4.213 0 0 0 4 6.661a15.917 15.917 0 0 1 3.931-3.21A15.783 15.783 0 0 0 0 1.33z" transform="translate(0 -1.213)"/>
            <path id="Path_3945" d="M7.929 25.41A15.916 15.916 0 0 0 4 28.62a4.229 4.229 0 0 0 7.864 0 15.933 15.933 0 0 0-3.933-3.21zM3.194 29.6a5.374 5.374 0 0 0 9.47 0 15.791 15.791 0 0 1 3.194 9.544H0A15.791 15.791 0 0 1 3.194 29.6z" class="cls-2" transform="translate(0 -23.172)"/>
            <path id="Path_3946" d="M90 3.451a15.934 15.934 0 0 1 3.932 3.21 4.229 4.229 0 0 0 .3-1.56.573.573 0 1 1 1.145 0 5.354 5.354 0 0 1-.639 2.542 15.791 15.791 0 0 1 3.194 9.544V1.33A15.778 15.778 0 0 0 90 3.451z" class="cls-3" transform="translate(-82.071 -1.213)"/>
            <path id="Path_3947" d="M228.84.85V13.2H231V9.259l3.409 3.939H237v-.159l-4.045-4.452 3.551-3.975v-.123h-2.579L231 7.987V.85z" class="cls-4" transform="translate(-208.68 -.775)"/>
            <path id="Rectangle_2532" d="M0 0H2.137V12.348H0z" class="cls-5" transform="translate(29.311 .075)"/>
            <path id="Path_3948" d="M376.22 1.261a1.272 1.272 0 0 0 2.544 0 1.272 1.272 0 0 0-2.544 0z" class="cls-2" transform="translate(-343.076 -.003)"/>
            <path id="Rectangle_2533" d="M0 0H2.155V8.745H0z" class="cls-5" transform="translate(33.339 3.679)"/>
            <path id="Path_3949" d="M424.35.85V13.2h2.15V9.259l3.409 3.939h2.6v-.159l-4.045-4.452 3.55-3.975v-.123h-2.579l-2.933 3.5V.85z" class="cls-4" transform="translate(-386.966 -.775)"/>
            <path id="Path_3950" d="M516.936 38.954a4.245 4.245 0 0 0-4.416 4.412 4.074 4.074 0 0 0 4.416 4.381c1.078 0 2.209.547 2.209 1.749s-.969 1.872-2.209 1.872a2.053 2.053 0 0 1-2.279-1.872h-2.137c0 2.35 1.891 3.886 4.416 3.886S521.3 51.9 521.3 49.5a2.93 2.93 0 0 0-1.8-2.88 3.454 3.454 0 0 0 1.837-3.25 4.164 4.164 0 0 0-4.4-4.416zm0 1.961a2.286 2.286 0 0 1 2.261 2.455 2.275 2.275 0 1 1-4.541 0 2.281 2.281 0 0 1 2.279-2.46z" class="cls-3" transform="translate(-467.369 -35.519)"/>
            <path id="Path_3951" d="M628.114 40.15a4.54 4.54 0 1 0 4.557 4.541 4.359 4.359 0 0 0-4.557-4.541zm.018 1.961a2.46 2.46 0 0 1 2.367 2.579 2.375 2.375 0 1 1-4.734 0 2.393 2.393 0 0 1 2.367-2.579z" class="cls-3" transform="translate(-568.672 -36.613)"/>
            <path id="Path_3952" d="M589.974 39a2.773 2.773 0 0 0-2.184 1.168l.854 1.68a1.7 1.7 0 0 1 1.329-1.067z" class="cls-3" transform="translate(-536.008 -35.564)"/>
            <path id="Path_3953" d="M229.743 159.432a.094.094 0 0 1-.02.024.047.047 0 0 1-.028.008.072.072 0 0 1-.041-.018.678.678 0 0 0-.061-.039.412.412 0 0 0-.088-.04.4.4 0 0 0-.124-.018.369.369 0 0 0-.122.019.251.251 0 0 0-.088.05.208.208 0 0 0-.055.075.247.247 0 0 0-.018.093.176.176 0 0 0 .031.106.276.276 0 0 0 .083.072.688.688 0 0 0 .117.051l.133.045c.046.016.088.033.134.053a.466.466 0 0 1 .116.074.321.321 0 0 1 .083.109.36.36 0 0 1 .032.159.506.506 0 0 1-.034.187.44.44 0 0 1-.1.152.468.468 0 0 1-.16.1.593.593 0 0 1-.216.037.651.651 0 0 1-.269-.054.64.64 0 0 1-.208-.145l.06-.1a.07.07 0 0 1 .02-.019.05.05 0 0 1 .027-.009.088.088 0 0 1 .051.024.752.752 0 0 0 .071.053.544.544 0 0 0 .1.053.411.411 0 0 0 .149.024.4.4 0 0 0 .13-.02.272.272 0 0 0 .1-.057.236.236 0 0 0 .061-.088.291.291 0 0 0 .021-.114.187.187 0 0 0-.031-.113.259.259 0 0 0-.083-.074.558.558 0 0 0-.115-.05l-.134-.043a1.147 1.147 0 0 1-.133-.05.4.4 0 0 1-.116-.074.345.345 0 0 1-.083-.115.415.415 0 0 1-.031-.169.4.4 0 0 1 .032-.156.391.391 0 0 1 .088-.134.44.44 0 0 1 .147-.093.544.544 0 0 1 .2-.035.657.657 0 0 1 .233.041.539.539 0 0 1 .183.117l-.049.1zm.316 1.284v-1.076h.116a.049.049 0 0 1 .052.039l.013.111a.528.528 0 0 1 .133-.12.309.309 0 0 1 .171-.047.258.258 0 0 1 .176.06.345.345 0 0 1 .1.164.353.353 0 0 1 .059-.1.342.342 0 0 1 .082-.07.365.365 0 0 1 .1-.041.417.417 0 0 1 .1-.012.394.394 0 0 1 .152.027.29.29 0 0 1 .112.078.353.353 0 0 1 .071.129.577.577 0 0 1 .025.176v.685h-.189v-.685a.289.289 0 0 0-.055-.192.2.2 0 0 0-.16-.065.232.232 0 0 0-.088.017.206.206 0 0 0-.074.048.23.23 0 0 0-.05.08.319.319 0 0 0-.019.113v.685h-.186v-.685a.3.3 0 0 0-.052-.194.184.184 0 0 0-.152-.063.239.239 0 0 0-.13.038.426.426 0 0 0-.11.1v.8zm2.533 0h-.084a.1.1 0 0 1-.045-.009.046.046 0 0 1-.022-.036l-.021-.1a1.05 1.05 0 0 1-.083.068.448.448 0 0 1-.088.051.409.409 0 0 1-.094.032.552.552 0 0 1-.113.011.393.393 0 0 1-.117-.018.277.277 0 0 1-.1-.052.264.264 0 0 1-.063-.088.314.314 0 0 1-.025-.127.243.243 0 0 1 .035-.123.311.311 0 0 1 .113-.1.717.717 0 0 1 .2-.075 1.538 1.538 0 0 1 .308-.033v-.084a.29.29 0 0 0-.054-.19.2.2 0 0 0-.159-.063.343.343 0 0 0-.116.018.416.416 0 0 0-.082.04c-.023.014-.042.028-.059.04a.088.088 0 0 1-.049.018.055.055 0 0 1-.034-.011.068.068 0 0 1-.023-.025l-.034-.061a.637.637 0 0 1 .192-.129.6.6 0 0 1 .228-.042.4.4 0 0 1 .16.03.328.328 0 0 1 .119.083.359.359 0 0 1 .072.129.522.522 0 0 1 .025.166v.689zm-.49-.117a.368.368 0 0 0 .088-.01.326.326 0 0 0 .078-.029.347.347 0 0 0 .07-.045.684.684 0 0 0 .065-.06v-.224a1.584 1.584 0 0 0-.221.021.655.655 0 0 0-.148.042.211.211 0 0 0-.083.063.134.134 0 0 0-.026.081.186.186 0 0 0 .013.073.155.155 0 0 0 .037.05.151.151 0 0 0 .056.028.241.241 0 0 0 .069.009zm.776.117v-1.076h.109a.062.062 0 0 1 .043.012.067.067 0 0 1 .016.04l.012.168a.485.485 0 0 1 .136-.176.3.3 0 0 1 .19-.063.291.291 0 0 1 .081.011.266.266 0 0 1 .067.028l-.025.142a.032.032 0 0 1-.033.026.177.177 0 0 1-.046-.01.275.275 0 0 0-.088-.011.245.245 0 0 0-.165.057.44.44 0 0 0-.111.167v.685zm1.182.017a.256.256 0 0 1-.2-.071.281.281 0 0 1-.069-.2v-.662h-.129a.042.042 0 0 1-.029-.011.04.04 0 0 1-.011-.032v-.076l.176-.022.043-.331a.043.043 0 0 1 .014-.026.042.042 0 0 1 .03-.01h.1v.374h.308v.138h-.308v.645a.141.141 0 0 0 .033.1.116.116 0 0 0 .088.033.157.157 0 0 0 .052-.008.241.241 0 0 0 .037-.018l.027-.018a.035.035 0 0 1 .019-.008.032.032 0 0 1 .026.018l.055.088a.339.339 0 0 1-.118.071.393.393 0 0 1-.142.026zm1.684-1.3a.079.079 0 0 1-.02.024.044.044 0 0 1-.027.008.075.075 0 0 1-.042-.018c-.016-.011-.036-.025-.06-.039a.432.432 0 0 0-.088-.04.4.4 0 0 0-.125-.018.376.376 0 0 0-.122.019.259.259 0 0 0-.088.05.206.206 0 0 0-.054.075.232.232 0 0 0-.018.093.169.169 0 0 0 .032.106.264.264 0 0 0 .083.072.711.711 0 0 0 .116.051l.134.045c.046.016.088.033.133.053a.458.458 0 0 1 .117.074.332.332 0 0 1 .083.109.373.373 0 0 1 .031.159.529.529 0 0 1-.034.187.44.44 0 0 1-.1.152.459.459 0 0 1-.16.1.586.586 0 0 1-.216.037.654.654 0 0 1-.269-.054.637.637 0 0 1-.207-.145l.059-.1a.073.073 0 0 1 .021-.019.048.048 0 0 1 .027-.009.088.088 0 0 1 .05.024q.029.024.071.053a.542.542 0 0 0 .1.053.411.411 0 0 0 .149.024.4.4 0 0 0 .131-.02.28.28 0 0 0 .1-.057.236.236 0 0 0 .061-.088.291.291 0 0 0 .024-.114.188.188 0 0 0-.032-.113.256.256 0 0 0-.082-.074.544.544 0 0 0-.116-.05l-.133-.043a1.163 1.163 0 0 1-.134-.05.421.421 0 0 1-.116-.074.352.352 0 0 1-.082-.115.4.4 0 0 1-.031-.169.414.414 0 0 1 .031-.156.406.406 0 0 1 .088-.134.453.453 0 0 1 .147-.093.545.545 0 0 1 .2-.035.649.649 0 0 1 .233.041.543.543 0 0 1 .184.117l-.05.1zm.316 1.284v-1.565h.193v.633a.586.586 0 0 1 .153-.117.4.4 0 0 1 .193-.044.389.389 0 0 1 .155.029.3.3 0 0 1 .113.083.363.363 0 0 1 .068.129.549.549 0 0 1 .024.167v.685h-.189v-.685a.291.291 0 0 0-.056-.19.207.207 0 0 0-.17-.067.312.312 0 0 0-.156.041.485.485 0 0 0-.134.109v.793zm1.616-1.093a.551.551 0 0 1 .213.039.446.446 0 0 1 .161.112.484.484 0 0 1 .1.176.765.765 0 0 1 0 .459.491.491 0 0 1-.1.176.454.454 0 0 1-.161.111.6.6 0 0 1-.426 0 .466.466 0 0 1-.162-.111.493.493 0 0 1-.1-.176.747.747 0 0 1 0-.459.485.485 0 0 1 .1-.176.457.457 0 0 1 .162-.112.546.546 0 0 1 .214-.04zm0 .959a.277.277 0 0 0 .238-.107.608.608 0 0 0 0-.6.275.275 0 0 0-.238-.107.328.328 0 0 0-.14.028.264.264 0 0 0-.1.079.358.358 0 0 0-.06.128.686.686 0 0 0-.019.172.677.677 0 0 0 .019.171.353.353 0 0 0 .06.127.264.264 0 0 0 .1.079.329.329 0 0 0 .141.029zm.745.5v-1.443h.114a.048.048 0 0 1 .051.04l.016.127a.6.6 0 0 1 .157-.135.4.4 0 0 1 .2-.051.385.385 0 0 1 .167.036.34.34 0 0 1 .128.1.514.514 0 0 1 .082.176.916.916 0 0 1 .028.237.752.752 0 0 1-.032.222.56.56 0 0 1-.088.176.424.424 0 0 1-.341.161.4.4 0 0 1-.17-.033.385.385 0 0 1-.124-.093v.477zm.475-1.307a.3.3 0 0 0-.161.042.44.44 0 0 0-.128.121v.522a.3.3 0 0 0 .114.1.32.32 0 0 0 .138.028.27.27 0 0 0 .23-.107.506.506 0 0 0 .08-.307.767.767 0 0 0-.018-.181.367.367 0 0 0-.054-.124.214.214 0 0 0-.088-.07.281.281 0 0 0-.115-.022zm.694 1.307v-1.443h.113a.049.049 0 0 1 .051.04l.017.127a.583.583 0 0 1 .157-.135.4.4 0 0 1 .2-.051.385.385 0 0 1 .167.036.352.352 0 0 1 .129.1.514.514 0 0 1 .081.176.884.884 0 0 1 .029.237.721.721 0 0 1-.033.222.542.542 0 0 1-.088.176.43.43 0 0 1-.145.118.44.44 0 0 1-.195.043.4.4 0 0 1-.17-.033.379.379 0 0 1-.125-.093v.477zm.478-1.307a.307.307 0 0 0-.162.042.456.456 0 0 0-.128.121v.522a.312.312 0 0 0 .115.1.32.32 0 0 0 .138.028.269.269 0 0 0 .229-.107.506.506 0 0 0 .081-.307.763.763 0 0 0-.018-.181.368.368 0 0 0-.054-.124.212.212 0 0 0-.088-.07.287.287 0 0 0-.115-.022zm.9-.133v1.076h-.189v-1.076zm.042-.338a.112.112 0 0 1-.011.051.14.14 0 0 1-.029.042.144.144 0 0 1-.043.029.121.121 0 0 1-.052.011.115.115 0 0 1-.052-.011.141.141 0 0 1-.071-.071.124.124 0 0 1-.011-.051.134.134 0 0 1 .011-.053.139.139 0 0 1 .029-.044.158.158 0 0 1 .042-.029.127.127 0 0 1 .052-.011.134.134 0 0 1 .052.011.162.162 0 0 1 .043.029.137.137 0 0 1 .029.044.122.122 0 0 1 .011.053zm.291 1.414v-1.079h.113a.049.049 0 0 1 .051.039l.015.117a.6.6 0 0 1 .156-.125.41.41 0 0 1 .2-.048.389.389 0 0 1 .155.029.3.3 0 0 1 .113.083.363.363 0 0 1 .068.129.551.551 0 0 1 .024.167v.685h-.189v-.685a.292.292 0 0 0-.056-.19.207.207 0 0 0-.17-.067.31.31 0 0 0-.156.041.485.485 0 0 0-.134.109v.793zm1.543-1.093a.519.519 0 0 1 .131.015.412.412 0 0 1 .111.044h.3v.07c0 .023-.015.038-.044.044l-.122.018a.327.327 0 0 1 .036.153.34.34 0 0 1-.03.143.316.316 0 0 1-.088.11.366.366 0 0 1-.128.07.521.521 0 0 1-.162.024.568.568 0 0 1-.142-.018.177.177 0 0 0-.052.046.082.082 0 0 0-.018.048.063.063 0 0 0 .031.057.222.222 0 0 0 .082.029 1.01 1.01 0 0 0 .115.011.838.838 0 0 1 .132.007 1.083 1.083 0 0 1 .132.016.388.388 0 0 1 .115.039.2.2 0 0 1 .112.195.283.283 0 0 1-.034.134.362.362 0 0 1-.1.115.484.484 0 0 1-.158.081.674.674 0 0 1-.211.031.792.792 0 0 1-.206-.024.461.461 0 0 1-.147-.063.27.27 0 0 1-.088-.088.217.217 0 0 1-.029-.107.2.2 0 0 1 .051-.136.345.345 0 0 1 .138-.088.177.177 0 0 1-.072-.056.15.15 0 0 1-.027-.1.16.16 0 0 1 .008-.048.207.207 0 0 1 .026-.049.235.235 0 0 1 .043-.047.265.265 0 0 1 .059-.04.33.33 0 0 1-.054-.544.4.4 0 0 1 .129-.07.543.543 0 0 1 .164-.024zm.336 1.151a.093.093 0 0 0-.022-.065.141.141 0 0 0-.061-.038.464.464 0 0 0-.088-.02c-.034 0-.069-.007-.106-.009l-.109-.008a.849.849 0 0 1-.109-.011.325.325 0 0 0-.1.07.146.146 0 0 0-.038.1.134.134 0 0 0 .019.068.161.161 0 0 0 .056.055.337.337 0 0 0 .1.036.624.624 0 0 0 .137.013.641.641 0 0 0 .137-.013.37.37 0 0 0 .1-.04.206.206 0 0 0 .064-.062.14.14 0 0 0 .022-.078zm-.333-.581a.3.3 0 0 0 .1-.016.21.21 0 0 0 .074-.045.177.177 0 0 0 .044-.068.232.232 0 0 0 .015-.088.209.209 0 0 0-.06-.157.291.291 0 0 0-.352 0 .209.209 0 0 0-.06.157.253.253 0 0 0 .015.088.192.192 0 0 0 .045.068.21.21 0 0 0 .074.045.294.294 0 0 0 .1.016zm2.1-1v.167h-.73v.506h.591v.161h-.591v.514h.73v.168h-.938v-1.521zm.129.446h.157a.057.057 0 0 1 .037.011.069.069 0 0 1 .021.027l.273.693a.515.515 0 0 1 .023.077l.016.075.019-.075a.516.516 0 0 1 .025-.077l.276-.693a.064.064 0 0 1 .021-.027.051.051 0 0 1 .035-.011h.147l-.44 1.077h-.17l-.441-1.077zm1.62-.017a.476.476 0 0 1 .176.033.391.391 0 0 1 .141.093.418.418 0 0 1 .092.151.593.593 0 0 1 .034.205.125.125 0 0 1-.01.059.04.04 0 0 1-.036.015h-.715a.618.618 0 0 0 .027.176.369.369 0 0 0 .07.126.277.277 0 0 0 .106.075.364.364 0 0 0 .138.026.383.383 0 0 0 .122-.017.585.585 0 0 0 .088-.035.547.547 0 0 0 .071-.032.088.088 0 0 1 .042-.016.041.041 0 0 1 .036.018l.053.07a.335.335 0 0 1-.084.073.5.5 0 0 1-.1.052.713.713 0 0 1-.115.03.672.672 0 0 1-.118.011.556.556 0 0 1-.205-.038.459.459 0 0 1-.162-.111.508.508 0 0 1-.107-.176.729.729 0 0 1-.038-.247.63.63 0 0 1 .034-.211.492.492 0 0 1 .1-.169.448.448 0 0 1 .158-.113.518.518 0 0 1 .21-.041zm0 .14a.286.286 0 0 0-.214.078.371.371 0 0 0-.1.218h.582a.369.369 0 0 0-.019-.12.255.255 0 0 0-.053-.094.239.239 0 0 0-.088-.062.292.292 0 0 0-.114-.021zm.685.953v-1.078h.108a.06.06 0 0 1 .043.012.067.067 0 0 1 .016.04l.013.168a.482.482 0 0 1 .135-.176.3.3 0 0 1 .191-.063.284.284 0 0 1 .08.011.252.252 0 0 1 .067.028l-.025.142a.032.032 0 0 1-.033.026.185.185 0 0 1-.046-.01.273.273 0 0 0-.088-.011.247.247 0 0 0-.166.057.44.44 0 0 0-.111.167v.685zm1.171.318a.1.1 0 0 1-.024.034.064.064 0 0 1-.044.012h-.14l.2-.427-.44-1.014h.163a.058.058 0 0 1 .039.012.082.082 0 0 1 .02.026l.287.679a.3.3 0 0 1 .017.047c0 .015.009.031.012.048 0-.017.01-.033.015-.048l.017-.048.279-.677a.06.06 0 0 1 .022-.027.053.053 0 0 1 .033-.011h.151l-.6 1.395zm1.5-.318a.048.048 0 0 1-.051-.04l-.008-.135a.581.581 0 0 1-.158.134.406.406 0 0 1-.2.051.388.388 0 0 1-.167-.036.345.345 0 0 1-.128-.1.516.516 0 0 1-.082-.176.88.88 0 0 1-.029-.237.723.723 0 0 1 .033-.222.54.54 0 0 1 .088-.176.43.43 0 0 1 .145-.118.441.441 0 0 1 .195-.043.394.394 0 0 1 .169.033.419.419 0 0 1 .125.1v-.6h.189v1.565zm-.366-.138a.306.306 0 0 0 .161-.042.478.478 0 0 0 .128-.12v-.518a.293.293 0 0 0-.114-.1.32.32 0 0 0-.137-.028.264.264 0 0 0-.231.107.5.5 0 0 0-.081.306.764.764 0 0 0 .019.176.337.337 0 0 0 .053.123.212.212 0 0 0 .088.07.29.29 0 0 0 .117.022zm1.586.138h-.084a.088.088 0 0 1-.044-.009.047.047 0 0 1-.023-.036l-.021-.1a.907.907 0 0 1-.083.068.417.417 0 0 1-.088.051.433.433 0 0 1-.1.032.55.55 0 0 1-.112.011.384.384 0 0 1-.117-.018.269.269 0 0 1-.1-.052.256.256 0 0 1-.064-.088.314.314 0 0 1-.024-.127.235.235 0 0 1 .035-.123.3.3 0 0 1 .113-.1.72.72 0 0 1 .2-.075 1.553 1.553 0 0 1 .308-.033v-.084a.3.3 0 0 0-.053-.19.2.2 0 0 0-.16-.063.335.335 0 0 0-.115.018.4.4 0 0 0-.082.04c-.023.014-.043.028-.06.04a.088.088 0 0 1-.049.018.056.056 0 0 1-.033-.011.087.087 0 0 1-.023-.025l-.034-.061a.627.627 0 0 1 .192-.13.6.6 0 0 1 .228-.042.4.4 0 0 1 .16.03.325.325 0 0 1 .118.083.353.353 0 0 1 .073.129.548.548 0 0 1 .024.166v.689zm-.486-.122a.368.368 0 0 0 .088-.01.387.387 0 0 0 .147-.074.593.593 0 0 0 .065-.06v-.224a1.558 1.558 0 0 0-.22.021.642.642 0 0 0-.148.042.208.208 0 0 0-.088.063.14.14 0 0 0-.026.081.177.177 0 0 0 .014.073.133.133 0 0 0 .037.05.14.14 0 0 0 .055.028.245.245 0 0 0 .08.014z" class="cls-4" transform="translate(-208.68 -145.13)"/>
            <path id="Path_3954" d="M485.322 166.1a.1.1 0 0 1-.024.034.063.063 0 0 1-.044.012h-.14l.2-.427-.44-1.014h.164a.056.056 0 0 1 .038.012.071.071 0 0 1 .02.026l.288.679a.418.418 0 0 1 .016.047.375.375 0 0 1 .012.048l.015-.048.017-.048.279-.677a.06.06 0 0 1 .022-.027.053.053 0 0 1 .034-.011h.151z" class="cls-4" transform="translate(-442.155 -150.199)"/>
        </g>
    </g>
</svg>
