<svg xmlns="http://www.w3.org/2000/svg" width="144" height="149.139" viewBox="0 0 144 149.139">
    <defs>
        <style>
            .cls-2,.cls-3,.cls-4{fill-rule:evenodd}.cls-2{fill:#9c3}.cls-3{fill:#3aa668}.cls-4,.cls-5{fill:#0f447a}
        </style>
    </defs>
    <g id="Layer_2">
        <g id="Layer_1">
            <path id="Path_3932" fill="#fc0" fill-rule="evenodd" d="M77.15 77.533a77.206 77.206 0 0 1 15.618-46.675 26.163 26.163 0 0 1-3.114-12.418 2.8 2.8 0 0 1 5.6 0 20.585 20.585 0 0 0 1.456 7.628 77.921 77.921 0 0 1 19.224-15.7A77.214 77.214 0 0 0 77.15 0z" transform="translate(-43.918)"/>
            <path id="Path_3933" d="M115.926 24.08A77.92 77.92 0 0 0 96.7 39.776a20.675 20.675 0 0 0 38.448 0 78 78 0 0 0-19.224-15.7zM92.774 44.566a26.275 26.275 0 0 0 46.3 0 77.205 77.205 0 0 1 15.619 46.675H77.16a77.206 77.206 0 0 1 15.614-46.675z" class="cls-2" transform="translate(-43.924 -13.708)"/>
            <path id="Path_3934" d="M167.16 10.372a78 78 0 0 1 19.224 15.7 20.675 20.675 0 0 0 1.452-7.628 2.8 2.8 0 0 1 5.6 0 26.163 26.163 0 0 1-3.114 12.418 77.206 77.206 0 0 1 15.606 46.675V0a77.188 77.188 0 0 0-38.768 10.372z" class="cls-3" transform="translate(-95.158)"/>
            <path id="Path_3935" d="M0 210.58v40.563h7.077V238.2l11.2 12.944H26.8v-.526L13.521 236l11.66-13.056v-.409h-8.468l-9.636 11.49V210.58z" class="cls-4" transform="translate(0 -119.875)"/>
            <path id="Rectangle_2529" d="M0 0H7.021V40.558H0z" class="cls-5" transform="translate(30.057 90.705)"/>
            <path id="Path_3936" d="M99 214.145c0 5.513 8.356 5.513 8.356 0s-8.356-5.513-8.356 0z" class="cls-2" transform="translate(-56.357 -119.551)"/>
            <path id="Rectangle_2530" d="M0 0H7.077V28.722H0z" class="cls-5" transform="translate(43.285 102.542)"/>
            <path id="Path_3937" d="M131.34 210.58v40.563h7.081V238.2l11.2 12.944h8.529v-.526L144.861 236l11.664-13.056v-.409h-8.473l-9.631 11.492V210.58z" class="cls-4" transform="translate(-74.767 -119.875)"/>
            <path id="Path_3938" d="M205.087 236.157c-8.007 0-14.507 5.569-14.507 14.507s5.569 14.387 14.507 14.387c3.536 0 7.249 1.8 7.249 5.746s-3.187 6.151-7.249 6.151-7.487-2.438-7.487-6.148h-7.02c0 7.719 6.207 12.767 14.507 12.767s14.331-4.876 14.331-12.767c0-3.657-1.163-7.077-5.918-9.476 4.7-2.154 6.03-7.137 6.03-10.674 0-7.452-4.587-14.507-14.447-14.507zm0 6.44c4.062 0 7.426 3.136 7.426 8.068s-3.364 7.947-7.426 7.947-7.486-2.959-7.486-7.947 3.364-8.068 7.486-8.068z" class="cls-3" transform="translate(-108.49 -134.425)"/>
            <path id="Path_3939" d="M280.006 237c-9.11 0-14.8 6.728-14.8 14.912s5.569 14.912 14.852 14.912 14.912-6.672 14.912-14.912S289.116 237 280.006 237zm.056 6.44c4.76 0 7.775 4.178 7.775 8.473s-2.61 8.412-7.775 8.412-7.775-4.062-7.775-8.412 2.671-8.477 7.775-8.477z" class="cls-3" transform="translate(-150.974 -134.915)"/>
            <path id="Path_3940" d="M248.316 236.19a9.117 9.117 0 0 0-7.176 3.838l2.808 5.518a5.6 5.6 0 0 1 4.368-3.5z" class="cls-3" transform="translate(-137.272 -134.454)"/>
            <path id="Path_3941" d="M2.963 317.85a.306.306 0 0 1-.065.078.159.159 0 0 1-.09.026.25.25 0 0 1-.138-.06c-.052-.039-.121-.082-.2-.129a1.653 1.653 0 0 0-.289-.129 1.291 1.291 0 0 0-.431-.056 1.15 1.15 0 0 0-.4.06.814.814 0 0 0-.289.164.663.663 0 0 0-.177.245.805.805 0 0 0-.06.306.568.568 0 0 0 .1.349.9.9 0 0 0 .271.233 2.1 2.1 0 0 0 .383.168l.431.151c.146.052.293.108.431.172a1.568 1.568 0 0 1 .383.241 1.094 1.094 0 0 1 .276.362 1.249 1.249 0 0 1 .1.521 1.628 1.628 0 0 1-.112.616 1.426 1.426 0 0 1-.323.5 1.529 1.529 0 0 1-.525.336 1.938 1.938 0 0 1-.711.121 2.115 2.115 0 0 1-.861-.177 2.025 2.025 0 0 1-.667-.479l.194-.319a.323.323 0 0 1 .069-.065.159.159 0 0 1 .09-.026.289.289 0 0 1 .168.078 2.748 2.748 0 0 0 .233.172 1.92 1.92 0 0 0 .34.172 1.365 1.365 0 0 0 .491.078 1.292 1.292 0 0 0 .431-.065.861.861 0 0 0 .319-.19.749.749 0 0 0 .2-.284.952.952 0 0 0 .069-.375.616.616 0 0 0-.1-.37.819.819 0 0 0-.271-.241 1.529 1.529 0 0 0-.379-.168l-.431-.138a3.853 3.853 0 0 1-.431-.168 1.322 1.322 0 0 1-.379-.241 1.167 1.167 0 0 1-.271-.379 1.292 1.292 0 0 1-.1-.556 1.326 1.326 0 0 1 .1-.513 1.366 1.366 0 0 1 .3-.431 1.538 1.538 0 0 1 .487-.306 1.723 1.723 0 0 1 .659-.116 2.153 2.153 0 0 1 .762.134 1.758 1.758 0 0 1 .6.383l-.164.323zM4 322.067v-3.536h.375a.164.164 0 0 1 .168.129l.043.366a1.809 1.809 0 0 1 .431-.4 1.012 1.012 0 0 1 .56-.155.831.831 0 0 1 .581.2 1.1 1.1 0 0 1 .319.538 1.072 1.072 0 0 1 .194-.336 1.141 1.141 0 0 1 .271-.228 1.218 1.218 0 0 1 .319-.134 1.543 1.543 0 0 1 .345-.043 1.292 1.292 0 0 1 .5.09.99.99 0 0 1 .37.258 1.15 1.15 0 0 1 .233.431 1.8 1.8 0 0 1 .082.573v2.248h-.6v-2.248a.965.965 0 0 0-.191-.626.668.668 0 0 0-.53-.215.862.862 0 0 0-.293.056.759.759 0 0 0-.241.159.745.745 0 0 0-.168.263 1.077 1.077 0 0 0-.06.37v2.248h-.626v-2.248a.978.978 0 0 0-.172-.637.612.612 0 0 0-.5-.211.805.805 0 0 0-.431.125 1.374 1.374 0 0 0-.358.336v2.636zm8.322 0h-.263a.357.357 0 0 1-.146-.026.155.155 0 0 1-.073-.121l-.069-.327c-.095.086-.185.159-.271.224a1.34 1.34 0 0 1-.28.168 1.29 1.29 0 0 1-.31.1 1.667 1.667 0 0 1-.37.034 1.232 1.232 0 0 1-.383-.056.892.892 0 0 1-.314-.172.931.931 0 0 1-.211-.293 1.021 1.021 0 0 1-.078-.431.767.767 0 0 1 .116-.4.965.965 0 0 1 .37-.345 2.155 2.155 0 0 1 .668-.246 5.009 5.009 0 0 1 1.017-.112v-.276a.965.965 0 0 0-.177-.625.65.65 0 0 0-.521-.211 1.1 1.1 0 0 0-.383.06 1.4 1.4 0 0 0-.267.129l-.2.129a.271.271 0 0 1-.159.06.2.2 0 0 1-.112-.034.225.225 0 0 1-.073-.082l-.112-.2a1.852 1.852 0 0 1 1.378-.564 1.293 1.293 0 0 1 .53.1 1.051 1.051 0 0 1 .388.271 1.154 1.154 0 0 1 .237.431 1.667 1.667 0 0 1 .082.543v2.261zm-1.611-.375a1.326 1.326 0 0 0 .3-.03 1.392 1.392 0 0 0 .254-.095 1.864 1.864 0 0 0 .228-.146 2.317 2.317 0 0 0 .215-.2v-.732a4.6 4.6 0 0 0-.728.069 2.085 2.085 0 0 0-.487.138.7.7 0 0 0-.271.207.461.461 0 0 0-.086.267.564.564 0 0 0 .047.237.431.431 0 0 0 .121.168.517.517 0 0 0 .181.095.914.914 0 0 0 .224.026zm2.554.383v-3.532h.358a.194.194 0 0 1 .138.039.258.258 0 0 1 .056.129l.039.551a1.585 1.585 0 0 1 .431-.577.982.982 0 0 1 .625-.207 1 1 0 0 1 .263.034.86.86 0 0 1 .22.09l-.078.469a.108.108 0 0 1-.108.086.548.548 0 0 1-.134-.052.978.978 0 0 0-.284-.034.81.81 0 0 0-.543.189 1.426 1.426 0 0 0-.362.547v2.248zm3.877.056a.862.862 0 0 1-.646-.233.943.943 0 0 1-.224-.672v-2.154h-.431a.151.151 0 0 1-.095-.034.142.142 0 0 1-.034-.1v-.258l.577-.073.142-1.09a.142.142 0 0 1 .047-.086.138.138 0 0 1 .095-.03h.314v1.215H17.9v.452h-1v2.119a.465.465 0 0 0 .108.332.379.379 0 0 0 .28.108.491.491 0 0 0 .168-.026.567.567 0 0 0 .125-.056l.09-.06a.09.09 0 0 1 .151.034l.181.3a1.163 1.163 0 0 1-.388.233 1.236 1.236 0 0 1-.465.086zm5.535-4.273a.246.246 0 0 1-.069.078.142.142 0 0 1-.09.026.25.25 0 0 1-.138-.06 1.989 1.989 0 0 0-.2-.129 1.651 1.651 0 0 0-.289-.129 1.294 1.294 0 0 0-.431-.056 1.15 1.15 0 0 0-.4.06.836.836 0 0 0-.293.164.663.663 0 0 0-.177.246.805.805 0 0 0-.06.306.569.569 0 0 0 .1.349.9.9 0 0 0 .271.233 2.1 2.1 0 0 0 .383.168l.431.151a3.9 3.9 0 0 1 .431.172 1.654 1.654 0 0 1 .383.241 1.141 1.141 0 0 1 .271.362 1.185 1.185 0 0 1 .1.521 1.723 1.723 0 0 1-.112.616 1.5 1.5 0 0 1-.327.5 1.529 1.529 0 0 1-.526.336 1.912 1.912 0 0 1-.706.121 2.153 2.153 0 0 1-.887-.177 2.067 2.067 0 0 1-.681-.478l.2-.319a.233.233 0 0 1 .065-.065.181.181 0 0 1 .09-.026.288.288 0 0 1 .168.078 2.893 2.893 0 0 0 .237.172 1.784 1.784 0 0 0 .34.172 1.357 1.357 0 0 0 .487.078 1.332 1.332 0 0 0 .431-.065.909.909 0 0 0 .319-.19.789.789 0 0 0 .2-.284.952.952 0 0 0 .069-.375.65.65 0 0 0-.1-.37.818.818 0 0 0-.271-.241 1.637 1.637 0 0 0-.383-.168l-.431-.138a4.129 4.129 0 0 1-.431-.168 1.344 1.344 0 0 1-.383-.241 1.167 1.167 0 0 1-.271-.379 1.292 1.292 0 0 1-.1-.556 1.327 1.327 0 0 1 .1-.513 1.24 1.24 0 0 1 .3-.431 1.468 1.468 0 0 1 .482-.306 1.722 1.722 0 0 1 .659-.116 2.188 2.188 0 0 1 .767.134 1.8 1.8 0 0 1 .6.383l-.164.323zm1.038 4.217v-5.147h.62v2.08a2.029 2.029 0 0 1 .5-.388 1.375 1.375 0 0 1 .633-.146 1.292 1.292 0 0 1 .513.1 1.021 1.021 0 0 1 .37.271 1.254 1.254 0 0 1 .224.431 1.956 1.956 0 0 1 .073.547v2.248h-.616v-2.248a.965.965 0 0 0-.19-.629.689.689 0 0 0-.56-.224 1.068 1.068 0 0 0-.513.133 1.724 1.724 0 0 0-.431.362v2.584zm5.307-3.592a1.8 1.8 0 0 1 .7.129 1.46 1.46 0 0 1 .53.366 1.632 1.632 0 0 1 .332.56 2.279 2.279 0 0 1 .116.75 2.313 2.313 0 0 1-.116.758 1.65 1.65 0 0 1-.336.573 1.451 1.451 0 0 1-.53.362 1.947 1.947 0 0 1-1.4 0 1.5 1.5 0 0 1-.534-.362 1.65 1.65 0 0 1-.336-.573 2.205 2.205 0 0 1-.121-.758 2.154 2.154 0 0 1 .121-.75 1.633 1.633 0 0 1 .336-.577 1.512 1.512 0 0 1 .534-.366 1.8 1.8 0 0 1 .7-.129zm0 3.153a.9.9 0 0 0 .784-.375 1.986 1.986 0 0 0 0-1.96.9.9 0 0 0-.78-.353 1.086 1.086 0 0 0-.461.09.831.831 0 0 0-.323.263 1.077 1.077 0 0 0-.2.431 2.257 2.257 0 0 0-.065.564 2.223 2.223 0 0 0 .065.56 1.077 1.077 0 0 0 .2.431.861.861 0 0 0 .323.258 1.085 1.085 0 0 0 .461.09zm2.447 1.641v-4.737h.375a.164.164 0 0 1 .168.129l.052.431a1.865 1.865 0 0 1 .517-.431 1.314 1.314 0 0 1 .668-.168 1.292 1.292 0 0 1 .551.116 1.146 1.146 0 0 1 .431.345 1.723 1.723 0 0 1 .271.569 3.015 3.015 0 0 1 .09.78 2.5 2.5 0 0 1-.1.728 1.766 1.766 0 0 1-.3.582 1.439 1.439 0 0 1-.478.388 1.421 1.421 0 0 1-.642.142 1.365 1.365 0 0 1-.56-.108 1.293 1.293 0 0 1-.409-.31v1.567zm1.572-4.307a.973.973 0 0 0-.53.142 1.455 1.455 0 0 0-.431.4v1.723a1.033 1.033 0 0 0 .375.323 1.055 1.055 0 0 0 .457.095.862.862 0 0 0 .754-.353 1.645 1.645 0 0 0 .263-1 2.382 2.382 0 0 0-.06-.594 1.155 1.155 0 0 0-.177-.409.7.7 0 0 0-.28-.233.961.961 0 0 0-.379-.073zm2.279 4.307v-4.737h.37a.164.164 0 0 1 .172.129l.052.431a1.912 1.912 0 0 1 .513-.431 1.331 1.331 0 0 1 .672-.168 1.292 1.292 0 0 1 .551.116 1.146 1.146 0 0 1 .431.345 1.654 1.654 0 0 1 .267.569 2.843 2.843 0 0 1 .095.78 2.5 2.5 0 0 1-.1.728 1.852 1.852 0 0 1-.3.582 1.456 1.456 0 0 1-.482.388 1.4 1.4 0 0 1-.637.142 1.366 1.366 0 0 1-.56-.108 1.293 1.293 0 0 1-.431-.31v1.567zm1.572-4.307a.973.973 0 0 0-.53.142 1.456 1.456 0 0 0-.431.4v1.723a1 1 0 0 0 .375.323 1.055 1.055 0 0 0 .457.095.887.887 0 0 0 .754-.353 1.645 1.645 0 0 0 .263-1 2.382 2.382 0 0 0-.06-.594 1.155 1.155 0 0 0-.177-.409.7.7 0 0 0-.28-.233.961.961 0 0 0-.379-.073zm2.968-.431v3.532h-.616v-3.531zm.14-1.111a.366.366 0 0 1-.034.168.529.529 0 0 1-.1.142.522.522 0 0 1-.138.095.474.474 0 0 1-.172.034.431.431 0 0 1-.168-.034.628.628 0 0 1-.142-.095.512.512 0 0 1-.095-.142.431.431 0 0 1-.034-.168.457.457 0 0 1 .034-.172.43.43 0 0 1 .095-.142.53.53 0 0 1 .142-.1.431.431 0 0 1 .168-.034.474.474 0 0 1 .172.034.509.509 0 0 1 .237.241.388.388 0 0 1 .035.173zm.956 4.643v-3.536h.4a.155.155 0 0 1 .168.129l.047.383a2.025 2.025 0 0 1 .517-.431 1.34 1.34 0 0 1 .655-.159 1.245 1.245 0 0 1 .508.1.986.986 0 0 1 .37.271 1.185 1.185 0 0 1 .224.431 1.8 1.8 0 0 1 .078.547v2.248H43.3v-2.248a.965.965 0 0 0-.181-.625.693.693 0 0 0-.56-.224 1.046 1.046 0 0 0-.513.134 1.823 1.823 0 0 0-.431.362v2.584zm5.07-3.592a1.769 1.769 0 0 1 .431.052 1.358 1.358 0 0 1 .362.146h.961v.228c0 .078-.052.125-.146.146l-.4.056a1.1 1.1 0 0 1-.258 1.335 1.292 1.292 0 0 1-.431.233 1.722 1.722 0 0 1-.53.078 1.843 1.843 0 0 1-.47-.056.573.573 0 0 0-.168.146.284.284 0 0 0-.06.159.211.211 0 0 0 .1.19.693.693 0 0 0 .267.09 2.424 2.424 0 0 0 .379.034l.431.026a3.629 3.629 0 0 1 .431.052 1.293 1.293 0 0 1 .379.129.719.719 0 0 1 .267.241.693.693 0 0 1 .1.4.93.93 0 0 1-.112.431 1.176 1.176 0 0 1-.327.379 1.533 1.533 0 0 1-.517.263 2.155 2.155 0 0 1-.693.1 2.631 2.631 0 0 1-.676-.078 1.61 1.61 0 0 1-.482-.207.9.9 0 0 1-.289-.3.706.706 0 0 1-.095-.358.655.655 0 0 1 .164-.431 1.124 1.124 0 0 1 .457-.289.616.616 0 0 1-.237-.19.491.491 0 0 1-.09-.31.534.534 0 0 1 .026-.159.663.663 0 0 1 .086-.164 1.162 1.162 0 0 1 .142-.155.862.862 0 0 1 .194-.125 1.072 1.072 0 0 1-.4-.392 1.163 1.163 0 0 1-.047-1.034.991.991 0 0 1 .276-.362 1.326 1.326 0 0 1 .431-.228 1.81 1.81 0 0 1 .538-.082zm1.1 3.786a.3.3 0 0 0-.073-.215.474.474 0 0 0-.2-.125 1.294 1.294 0 0 0-.289-.065l-.349-.03h-.37a1.087 1.087 0 0 1-.358-.039.964.964 0 0 0-.323.228.487.487 0 0 0-.125.327.431.431 0 0 0 .06.224.547.547 0 0 0 .19.181 1.2 1.2 0 0 0 .314.116 1.978 1.978 0 0 0 .431.043 2.069 2.069 0 0 0 .431-.043 1.1 1.1 0 0 0 .336-.129.638.638 0 0 0 .211-.2.431.431 0 0 0 .073-.254zm-1.107-1.921a1.02 1.02 0 0 0 .336-.052.711.711 0 0 0 .241-.146.594.594 0 0 0 .146-.224.78.78 0 0 0 .052-.289.685.685 0 0 0-.2-.513.792.792 0 0 0-.577-.194.771.771 0 0 0-.569.194.668.668 0 0 0-.2.513.78.78 0 0 0 .052.289.6.6 0 0 0 .146.224.711.711 0 0 0 .241.146.948.948 0 0 0 .333.052zm6.892-3.274v.551h-2.4v1.663h1.943v.53h-1.941v1.723h2.4v.551h-3.085v-5.022zm.431 1.464h.508a.185.185 0 0 1 .121.039.2.2 0 0 1 .069.09l.9 2.279a1.387 1.387 0 0 1 .078.25 1.6 1.6 0 0 0 .052.25 1.108 1.108 0 0 1 .06-.25 1.879 1.879 0 0 1 .082-.25l.9-2.279a.233.233 0 0 1 .069-.09.172.172 0 0 1 .116-.039h.487l-1.443 3.536h-.56l-1.439-3.536zm5.32-.056a1.61 1.61 0 0 1 .586.108 1.335 1.335 0 0 1 .465.31 1.4 1.4 0 0 1 .306.5 1.9 1.9 0 0 1 .108.672.383.383 0 0 1-.03.194.129.129 0 0 1-.121.052h-2.348a1.916 1.916 0 0 0 .09.581 1.2 1.2 0 0 0 .233.431.917.917 0 0 0 .349.246 1.159 1.159 0 0 0 .452.082 1.422 1.422 0 0 0 .4-.052 2.859 2.859 0 0 0 .289-.116 2.036 2.036 0 0 0 .207-.121.263.263 0 0 1 .138-.052.146.146 0 0 1 .121.06l.172.224a1.163 1.163 0 0 1-.276.245 1.923 1.923 0 0 1-.34.168 2.341 2.341 0 0 1-.379.1 2.4 2.4 0 0 1-.388.034 1.818 1.818 0 0 1-.676-.125 1.508 1.508 0 0 1-.534-.362 1.684 1.684 0 0 1-.349-.594 2.443 2.443 0 0 1-.125-.81 2.011 2.011 0 0 1 .112-.689 1.624 1.624 0 0 1 .327-.556 1.5 1.5 0 0 1 .517-.37 1.7 1.7 0 0 1 .689-.138zm0 .461a.943.943 0 0 0-.706.263 1.2 1.2 0 0 0-.319.715h1.913a1.249 1.249 0 0 0-.06-.392.861.861 0 0 0-.172-.31.818.818 0 0 0-.28-.2.939.939 0 0 0-.375-.073zm2.248 3.131v-3.53h.358a.194.194 0 0 1 .138.039.224.224 0 0 1 .052.129l.043.551a1.585 1.585 0 0 1 .431-.577.982.982 0 0 1 .625-.207 1 1 0 0 1 .263.034.864.864 0 0 1 .22.09l-.078.47a.108.108 0 0 1-.108.086.547.547 0 0 1-.151-.034.978.978 0 0 0-.284-.034.81.81 0 0 0-.543.19 1.426 1.426 0 0 0-.362.547v2.248zm3.846 1.047a.281.281 0 0 1-.082.112.194.194 0 0 1-.142.043h-.461l.646-1.4-1.46-3.334h.543a.19.19 0 0 1 .125.043.237.237 0 0 1 .065.086l.948 2.231a1.041 1.041 0 0 1 .052.151.8.8 0 0 0 .043.159.523.523 0 0 1 .047-.159c.017-.052.034-.1.056-.155l.943-2.214a.207.207 0 0 1 .073-.09.164.164 0 0 1 .108-.039h.508l-1.981 4.566zm4.923-1.047a.155.155 0 0 1-.164-.129l-.056-.431a1.92 1.92 0 0 1-.517.431 1.314 1.314 0 0 1-.668.168 1.219 1.219 0 0 1-.551-.121 1.146 1.146 0 0 1-.431-.34 1.7 1.7 0 0 1-.267-.569 2.809 2.809 0 0 1-.095-.775 2.455 2.455 0 0 1 .1-.728 1.882 1.882 0 0 1 .3-.586 1.456 1.456 0 0 1 .482-.388 1.387 1.387 0 0 1 .637-.142 1.292 1.292 0 0 1 .556.108 1.426 1.426 0 0 1 .409.314v-1.962h.62v5.139zm-1.2-.452a1.034 1.034 0 0 0 .53-.138 1.563 1.563 0 0 0 .431-.4v-1.723a.935.935 0 0 0-.375-.323 1.016 1.016 0 0 0-.431-.095.861.861 0 0 0-.758.353 1.637 1.637 0 0 0-.267 1 2.584 2.584 0 0 0 .06.59 1.172 1.172 0 0 0 .172.4.668.668 0 0 0 .284.233.965.965 0 0 0 .383.073zm5.208.452h-.271a.332.332 0 0 1-.146-.026.146.146 0 0 1-.073-.121l-.073-.327a2.482 2.482 0 0 1-.271.224 1.24 1.24 0 0 1-.28.168 1.194 1.194 0 0 1-.31.1 1.63 1.63 0 0 1-.366.034 1.257 1.257 0 0 1-.388-.056.862.862 0 0 1-.31-.172.815.815 0 0 1-.211-.293 1.016 1.016 0 0 1-.082-.431.767.767 0 0 1 .116-.4 1 1 0 0 1 .37-.345 2.245 2.245 0 0 1 .672-.246 4.96 4.96 0 0 1 1.012-.112v-.267a.939.939 0 0 0-.177-.625.642.642 0 0 0-.521-.211 1.077 1.077 0 0 0-.379.06 1.594 1.594 0 0 0-.271.129l-.194.129a.284.284 0 0 1-.164.06.176.176 0 0 1-.108-.034.237.237 0 0 1-.078-.082l-.112-.2a2.05 2.05 0 0 1 .633-.431 1.986 1.986 0 0 1 .749-.138 1.291 1.291 0 0 1 .525.1 1.051 1.051 0 0 1 .388.271 1.164 1.164 0 0 1 .241.431 1.8 1.8 0 0 1 .078.543v2.261zm-1.607-.383a1.294 1.294 0 0 0 .3-.03 1.188 1.188 0 0 0 .254-.095 1.38 1.38 0 0 0 .228-.146 1.887 1.887 0 0 0 .215-.2v-.732a4.582 4.582 0 0 0-.724.069 2.024 2.024 0 0 0-.487.138.758.758 0 0 0-.276.207.456.456 0 0 0-.082.267.569.569 0 0 0 .043.237.5.5 0 0 0 .121.168.518.518 0 0 0 .181.095.948.948 0 0 0 .254.03z" class="cls-4" transform="translate(0 -180.41)"/>
            <path id="Path_3942" d="M173.5 325.243a.323.323 0 0 1-.078.112.211.211 0 0 1-.146.043h-.461l.646-1.4L172 320.66h.538a.189.189 0 0 1 .125.043.237.237 0 0 1 .065.086l.948 2.231c.022.052.039.1.056.151l.039.159a.523.523 0 0 1 .047-.159c.017-.052.034-.1.056-.155l.917-2.227a.207.207 0 0 1 .073-.09.164.164 0 0 1 .108-.039h.5z" class="cls-4" transform="translate(-97.913 -182.539)"/>
        </g>
    </g>
</svg>
