<svg xmlns="http://www.w3.org/2000/svg" xmlns:xlink="http://www.w3.org/1999/xlink" width="360" height="121" viewBox="0 0 360 121">
    <defs>
        <linearGradient id="linear-gradient" x1="-1.436" x2="-.279" y1="1.316" y2="1.316" gradientUnits="objectBoundingBox">
            <stop offset="0" stop-color="#ffc444"/>
            <stop offset="1" stop-color="#f36f56"/>
        </linearGradient>
        <linearGradient id="linear-gradient-3" x1=".836" x2=".121" y1="-.023" y2=".937" gradientUnits="objectBoundingBox">
            <stop offset="0" stop-color="#fcb148"/>
            <stop offset=".05" stop-color="#fdba46"/>
            <stop offset=".14" stop-color="#ffc244"/>
            <stop offset=".32" stop-color="#ffc444"/>
            <stop offset=".48" stop-color="#fdb946"/>
            <stop offset=".78" stop-color="#f99c4d"/>
            <stop offset=".87" stop-color="#f8924f"/>
            <stop offset="1" stop-color="#f8924f"/>
        </linearGradient>
        <linearGradient id="linear-gradient-4" x1="-1.029" x2="-2.309" y1=".538" y2="1.656" gradientUnits="objectBoundingBox">
            <stop offset="0" stop-color="#21633c"/>
            <stop offset="1" stop-color="#3aa668"/>
        </linearGradient>
        <linearGradient id="linear-gradient-5" x1="1.276" x2="2.053" y1="1.114" y2="1.935" gradientUnits="objectBoundingBox">
            <stop offset="0" stop-color="#159957"/>
            <stop offset="1" stop-color="#155799"/>
        </linearGradient>
        <linearGradient id="linear-gradient-6" x1=".491" x2=".209" y1=".477" y2=".496" gradientUnits="objectBoundingBox">
            <stop offset="0" stop-color="#444b8c"/>
            <stop offset="1" stop-color="#26264f"/>
        </linearGradient>
        <linearGradient id="linear-gradient-7" x1=".708" x2=".013" y1=".034" y2="1.514" xlink:href="#linear-gradient-6"/>
        <linearGradient id="linear-gradient-8" x1="1.225" x2="-27.924" y1="-1.491" y2="78.586" gradientUnits="objectBoundingBox">
            <stop offset="0" stop-color="#311944"/>
            <stop offset="1" stop-color="#893976"/>
        </linearGradient>
        <linearGradient id="linear-gradient-9" x1=".329" x2="-.255" y1=".554" y2=".738" xlink:href="#linear-gradient-3"/>
        <linearGradient id="linear-gradient-10" x1=".727" x2=".207" y1=".007" y2="1.135" gradientUnits="objectBoundingBox">
            <stop offset="0" stop-color="#ffdb44"/>
            <stop offset="1" stop-color="#feef06"/>
        </linearGradient>
        <linearGradient id="linear-gradient-11" x1=".636" x2=".531" y1="1.231" y2=".666" xlink:href="#linear-gradient-3"/>
        <linearGradient id="linear-gradient-12" x1=".409" x2=".858" y1=".31" y2="1.247" xlink:href="#linear-gradient-3"/>
        <linearGradient id="linear-gradient-13" x1=".253" x2=".711" y1=".019" y2="1.039" xlink:href="#linear-gradient-10"/>
        <linearGradient id="linear-gradient-14" x1=".464" x2="1.215" y1=".369" y2="1.306" xlink:href="#linear-gradient-3"/>
        <linearGradient id="linear-gradient-15" x1=".963" x2=".436" y1="-.162" y2=".737" xlink:href="#linear-gradient-5"/>
        <linearGradient id="linear-gradient-16" x1=".909" x2="-.214" y1=".239" y2="1.175" xlink:href="#linear-gradient"/>
        <clipPath id="clip-path">
            <path id="Path_4634" d="M874.977 854.572l4.726 2.745s2.3-1.907 2.134-4.291c-.335-4.863 3.947-4.818 5.745-5.067 2.709-.376 4.933-1.889 2.724-4.393s3.01-5.15 7.472-5.126c4.368.023 6.929-7.728-2.52-8.646-5.645-.548-7.687 4.583-9.34 6.929s-5.442.416-5.938 4.164c-.423 3.2.526 6.267-2.061 7.135s-3.901 2.763-2.942 6.55z" class="cls-1" transform="translate(-874.663 -829.753)"/>
        </clipPath>
        <clipPath id="clip-path-2">
            <path id="Path_4644" d="M857.88 472.743l-5.927.673s-2.866-3.237-1.254-4.958-.567-5.036-1.505-6.935c-2.545-5.15 3.881-6.921 1.189-13.8-.717-1.828-2.747-5.077-1.646-7.138 1.254-2.348 3.286-1.224 3.966-3.054 1.063-2.86 3.867-4.762 6.6-3.2 2.694 1.541 2.195 6.728-1.945 12.249-2.5 4.261-2.207 5.161-1.075 7.2.791 1.429 3.885 4.78 2.286 7.143s-2.627 4.662-1.108 6.05c2.305 2.118.419 5.77.419 5.77z" class="cls-2" transform="translate(-848.416 -433.773)"/>
        </clipPath>
        <clipPath id="clip-path-3">
            <path id="Path_4651" d="M856.057 547l-9.309 1.724c-.79-1.142-1.938-3.3-.1-4.231 2.551-1.287 1.683-5.792.61-7.238-1.328-1.79-4.33-6.018-.419-8.064 3.257-1.7 5.721-2.179 5.089-6.439s1.261-7.358 5.367-7.89c4.321-.559 6.706-6.586 10.573-5.47 6.737 1.944 3.15 12.293-3.7 16.41s-2.076 5.814-1.16 9.223c1.25 4.654-5.709 4.951-7.108 7.144-1.1 1.715-.422 3.665.157 4.831z" class="cls-2" transform="translate(-844.899 -509.252)"/>
        </clipPath>
        <style>
            .cls-1{fill:url(#linear-gradient)}.cls-2{fill:none}.cls-7{opacity:.5}.cls-8{fill:#beb8f2}.cls-11{fill:#fcfdfe}.cls-20{fill:#ccc}
        </style>
    </defs>
    <g id="Group_4468" transform="translate(0 -80)">
        <path id="Pale_Wood" fill="#9c3" d="M0 0H360V121H0z" transform="translate(0 80)"/>
        <g id="Group_4467" transform="translate(9)">
            <g id="Loyalty_Poin" transform="translate(39.003 100.999)">
                <g id="Layer_2" transform="translate(-.003 .001)">
                    <g id="Illustration">
                        <path id="Path_4624" fill="#f4f7fa" d="M32.659.008C22.218.192 6.065 4.161 1.415 14.361-.209 17.926-.1 23.164.121 33.64a110.876 110.876 0 0 0 .925 13.136C2.609 58.343 3.673 66.217 7.7 70.8c10.092 11.49 46.549 11.157 62.117-9.527a36.765 36.765 0 0 0 2.034-40.6C63.3 6.07 46.637-.239 32.659.008z" opacity="0.3" transform="translate(.003 -.001)"/>
                        <path id="Path_4625" d="M874.977 854.572l4.726 2.745s2.3-1.907 2.134-4.291c-.335-4.863 3.947-4.818 5.745-5.067 2.709-.376 4.933-1.889 2.724-4.393s3.01-5.15 7.472-5.126c4.368.023 6.929-7.728-2.52-8.646-5.645-.548-7.687 4.583-9.34 6.929s-5.442.416-5.938 4.164c-.423 3.2.526 6.267-2.061 7.135s-3.901 2.763-2.942 6.55z" class="cls-1" transform="translate(-827.644 -785.148)"/>
                        <g id="Group_4454" clip-path="url(#clip-path)" transform="translate(47.02 44.605)">
                            <path id="Path_4626" fill="url(#linear-gradient-3)" d="M874.978 854.544l4.726 2.745s2.3-1.907 2.134-4.291c-.335-4.863 3.947-4.818 5.745-5.067 2.709-.376 4.623-1.782 3.094-4.306-1.732-2.855 2.64-5.236 7.1-5.214 4.368.023 6.929-7.728-2.52-8.646-5.645-.548-7.687 4.583-9.34 6.929s-5.442.416-5.938 4.164c-.423 3.2.526 6.267-2.061 7.135s-3.899 2.764-2.94 6.551z" transform="translate(-874.665 -829.724)"/>
                            <g id="Group_4453" class="cls-7" transform="translate(2.003 -.578)">
                                <path id="Path_4627" d="M913.81 934.2l.108.039a55.876 55.876 0 0 1 6.9-12.728c4.086-5.469 10.74-11.368 19.261-8.414l.038-.108a13.488 13.488 0 0 0-11.132.891 25.793 25.793 0 0 0-8.261 7.565 56.03 56.03 0 0 0-6.914 12.755z" class="cls-8" transform="translate(-913.709 -907.179)"/>
                                <path id="Path_4628" d="M1168.82 826.573l.108.045c1.505-3.533 5.478-7.485 5.518-7.526l-.081-.082c-.042.041-4.03 4.009-5.545 7.563z" class="cls-8" transform="translate(-1155.01 -819.01)"/>
                                <path id="Path_4629" d="M1213.943 935.174a9.61 9.61 0 0 1 7.155 2.714l.086-.077a9.728 9.728 0 0 0-7.244-2.752z" class="cls-8" transform="translate(-1197.705 -928.815)"/>
                                <path id="Path_4630" d="M992.724 1118.637c3.848-4.056 10.916-1.494 10.983-1.463l.054-.1c-.062-.037-7.239-2.607-11.121 1.485z" class="cls-8" transform="translate(-988.301 -1100.264)"/>
                                <path id="Path_4631" d="M998.3 993.65l.107.036c1.126-3.387-.943-7.365-.964-7.406l-.1.054c.02.039 2.067 3.978.957 7.316z" class="cls-8" transform="translate(-992.749 -977.288)"/>
                                <path id="Path_4632" d="M921.745 1271.313c1.207-1.747 4.664-1.679 4.7-1.678v-.116c-.145 0-3.553-.071-4.8 1.728z" class="cls-8" transform="translate(-921.128 -1245.301)"/>
                                <path id="Path_4633" d="M913.1 1174.73l.107.04c.587-1.574-.65-4.425-1.057-5.362-.057-.132-.107-.247-.112-.269l-.113.023a2.728 2.728 0 0 0 .119.292c.408.927 1.632 3.746 1.056 5.276z" class="cls-8" transform="translate(-911.93 -1150.318)"/>
                            </g>
                        </g>
                        <path id="Path_4635" fill="url(#linear-gradient-4)" d="M806.269 466.969a4.17 4.17 0 0 1 .914 4.2 1.839 1.839 0 0 0-.39.232 20.572 20.572 0 0 1-3.585 1.6 8.4 8.4 0 0 1-1.8.288l-.806.032s-2.7-3.15-1.085-4.87-.567-5.036-1.505-6.935a7.628 7.628 0 0 1-.609-2.345c-1.512-4.892-3.488-5.771-3-7.665.538-2.09 3.1-1.619 3.8-3.862.795-2.533-1.935-4.834-.649-7.063a3.365 3.365 0 0 1 .928-1.122c1.163-.872 2.508-.509 3.038-1.932 1.063-2.86 3.867-4.762 6.6-3.2 2.694 1.541 2.195 6.728-1.945 12.249-2.5 4.261-2.207 5.161-1.075 7.2.791 1.429 3.885 4.78 2.286 7.143s-2.636 4.662-1.117 6.05z" transform="translate(-751.623 -410.445)"/>
                        <g id="Group_4456" clip-path="url(#clip-path-2)" transform="translate(45.609 23.318)">
                            <g id="Group_4455" class="cls-7" transform="translate(.067 -1.995)">
                                <path id="Path_4636" d="M938.173 437.663l-.115.027c-.156-.634-.3-1.275-.442-1.906a63.607 63.607 0 0 1-1.511-13.68 51.942 51.942 0 0 1 1.148-10.832 44.655 44.655 0 0 1 2.5-7.937 36.959 36.959 0 0 1 2.492-4.883c.161-.26.337-.517.509-.767.229-.332.466-.675.66-1.026l.107.048c-.2.356-.435.7-.666 1.035-.172.248-.348.5-.506.762a36.861 36.861 0 0 0-2.485 4.869 44.565 44.565 0 0 0-2.492 7.918 51.706 51.706 0 0 0-1.148 10.81 63.542 63.542 0 0 0 1.509 13.658c.136.63.284 1.271.44 1.904z" class="cls-11" transform="translate(-931.458 -396.66)"/>
                                <path id="Path_4637" d="M869.275 544.516l-.118-.008c.462-4.7-4.2-11.4-4.247-11.467l.1-.062c.047.068 4.73 6.796 4.265 11.537z" class="cls-11" transform="translate(-864.091 -525.652)"/>
                                <path id="Path_4638" d="M942.978 860.868l-.118.005c-.088-3.221 4.838-7.51 4.886-7.553l.079.08c-.05.042-4.934 4.3-4.847 7.468z" class="cls-11" transform="translate(-937.849 -828.771)"/>
                                <path id="Path_4639" d="M855.018 898.7l-.116.023c-.456-2.05-2.262-4.59-5.085-7.15-.142-.129-.142-.129-.147-.15l.116-.026-.057.013.048-.032c.008.01.062.059.124.115 2.839 2.578 4.656 5.137 5.117 7.207z" class="cls-11" transform="translate(-849.67 -864.785)"/>
                                <path id="Path_4640" d="M967.548 1061.542l-.118-.006c.215-2.312 3.287-4.306 3.317-4.326l.066.09c-.031.019-3.053 1.981-3.265 4.242z" class="cls-11" transform="translate(-961.1 -1021.701)"/>
                                <path id="Path_4641" d="M885.061 1089.286a12.824 12.824 0 0 0-4.911-3.959l.059-.1a12.951 12.951 0 0 1 4.952 3.994z" class="cls-11" transform="translate(-878.511 -1048.214)"/>
                                <path id="Path_4642" d="M992.827 431.363l-.117-.013a28.777 28.777 0 0 0 .131-6.34 3.25 3.25 0 0 1-.019-.331l.117.009c0 .021.008.149.02.311a28.9 28.9 0 0 1-.132 6.364z" class="cls-11" transform="translate(-985.021 -423.174)"/>
                                <path id="Path_4643" d="M968.008 553.992l-.107-.045c1.141-2.248 6.135-3.995 6.347-4.068l.039.1c-.052.021-5.16 1.807-6.279 4.013z" class="cls-11" transform="translate(-961.544 -541.643)"/>
                            </g>
                        </g>
                        <path id="Path_4645" fill="url(#linear-gradient-5)" d="M855.1 548.326c-.408.026-1.329 3.908-3 1.5-.416-.6-1.183-2.812-4.156-2.346l-1.73.269c-.741-1.191-1.219-2.451.424-3.279 2.551-1.287 1.683-5.792.61-7.238-1.328-1.79-4.33-6.018-.419-8.064 3.257-1.7 5.721-2.179 5.089-6.439s1.261-7.359 5.367-7.891c4.321-.559 6.706-6.586 10.573-5.47 6.737 1.944 3.15 12.293-3.7 16.411s-2.076 5.814-1.16 9.223a6.116 6.116 0 0 1 .127 1.436c-.118 3.766-3.763 5.116-5.889 8.591-2.886 4.741-1.445 3.253-2.136 3.297z" transform="translate(-799.479 -481.857)"/>
                        <g id="Group_4458" clip-path="url(#clip-path-3)" transform="translate(45.42 27.376)">
                            <g id="Group_4457" class="cls-7" transform="translate(.074 .391)">
                                <path id="Path_4646" d="M962.2 553.315h-.2c.132-14.167 7.545-28.262 19.347-36.785l.124.153c-11.752 8.487-19.135 22.524-19.271 36.632z" class="cls-11" transform="translate(-955.779 -516.53)"/>
                                <path id="Path_4647" d="M853.469 899.836l-.2.039c-1.113-5.458-6.939-8.774-7-8.808l.107-.167c.059.034 5.962 3.392 7.093 8.936z" class="cls-11" transform="translate(-846.27 -870.775)"/>
                                <path id="Path_4648" d="M964.216 1008.16l-.2-.054c1.794-5.4 12.321-8.11 12.427-8.136l.054.187c-.104.024-10.521 2.707-12.281 8.003z" class="cls-11" transform="translate(-957.69 -973.982)"/>
                                <path id="Path_4649" d="M1011.015 631.388l-.2-.04c1.032-4.379-3.021-10.047-3.064-10.106l.169-.111c.044.059 4.144 5.798 3.095 10.257z" class="cls-11" transform="translate(-999.069 -615.507)"/>
                                <path id="Path_4650" d="M1161.3 608.442l-.139-.142c3.987-3.476 11.285-3.356 11.358-3.354l-.006.194c-.072 0-7.289-.117-11.213 3.302z" class="cls-11" transform="translate(-1144.232 -600.192)"/>
                            </g>
                        </g>
                        <path id="Path_4652" fill="url(#linear-gradient-6)" d="M213.64 93.155l7.606 63.2a1.664 1.664 0 0 1-1.454 1.888l-31.67 3.477c-1.94.12-3-.87-3.122-1.878l-7.986-67.192c-.119-1 .833-1.909 2.781-1.909l31.959.673a2.015 2.015 0 0 1 1.886 1.741z" transform="translate(-167.489 -85.862)"/>
                        <path id="Path_4653" fill="url(#linear-gradient-7)" d="M237.609 92.956l7.645 63.517a1.673 1.673 0 0 1-1.459 1.9l-32.833 3.269a1.921 1.921 0 0 1-2.093-1.655l-8.027-67.54a1.593 1.593 0 0 1 1.677-1.8l33.2.56a2.021 2.021 0 0 1 1.89 1.749z" transform="translate(-190.033 -85.772)"/>
                        <path id="Path_4654" fill="#f2f2f2" d="M265.547 164.327l7.086 58.892a1.559 1.559 0 0 1-1.366 1.77l-30.879 3a1.79 1.79 0 0 1-1.946-1.545l-7.419-62.391a1.493 1.493 0 0 1 1.559-1.686l31.2.332a1.877 1.877 0 0 1 1.765 1.628z" transform="translate(-218.594 -153.64)"/>
                        <path id="Path_4655" fill="url(#linear-gradient-8)" d="M543.605 121.882a.525.525 0 0 1-.542.6.724.724 0 0 1-.69-.621.525.525 0 0 1 .543-.6.723.723 0 0 1 .689.621z" transform="translate(-513.211 -114.741)"/>
                        <g id="Group_4459" class="cls-7" transform="translate(10.798 4.873)">
                            <path id="Path_4656" fill="#fff" d="M231.676 135.992c-6.321-11.688-15.765-15.186-18.606-27.232a32.321 32.321 0 0 1 1.274-17.916l-11.795-.2a1.593 1.593 0 0 0-1.677 1.8l8.027 67.54a1.919 1.919 0 0 0 2.093 1.655l25.811-2.57c.189-10.469-2.309-17.869-5.127-23.077z" transform="translate(-200.859 -90.645)"/>
                        </g>
                        <g id="Group_4460" opacity="0.63" transform="translate(20.208 40.605)">
                            <path id="Path_4657" d="M402.438 758.13l-25.05 1a1.4 1.4 0 0 1-1.436-1.183l-.019-.127a1.4 1.4 0 0 1 1.332-1.61l25.069-.878a1.4 1.4 0 0 1 1.429 1.183 1.4 1.4 0 0 1-1.325 1.608z" class="cls-20" transform="translate(-375.916 -755.334)"/>
                            <path id="Path_4658" d="M416.538 846.535l-25.017 1.211a1.4 1.4 0 0 1-1.448-1.183l-.02-.129a1.4 1.4 0 0 1 1.32-1.609l25.037-1.088a1.4 1.4 0 0 1 1.441 1.183v.006a1.4 1.4 0 0 1-1.314 1.609z" class="cls-20" transform="translate(-389.278 -838.983)"/>
                            <path id="Path_4659" d="M430.656 935.006l-24.985 1.42a1.4 1.4 0 0 1-1.46-1.183l-.02-.131a1.4 1.4 0 0 1 1.308-1.606l25-1.3a1.4 1.4 0 0 1 1.451 1.183v.009a1.4 1.4 0 0 1-1.3 1.606z" class="cls-20" transform="translate(-402.656 -922.699)"/>
                        </g>
                        <path id="Path_4660" fill="url(#linear-gradient-9)" d="M409.128 144.418a15.056 15.056 0 0 1-15.576 15.354 17.629 17.629 0 0 1-16.743-17.533 15.014 15.014 0 0 1 16.744-15.275 17.742 17.742 0 0 1 15.575 17.454z" transform="translate(-356.553 -120.056)"/>
                        <path id="Path_4661" fill="url(#linear-gradient-10)" d="M453.081 130.39a15.056 15.056 0 0 1-15.576 15.354 17.627 17.627 0 0 1-16.745-17.532 15.013 15.013 0 0 1 16.74-15.276 17.746 17.746 0 0 1 15.581 17.454z" transform="translate(-398.141 -106.782)"/>
                        <path id="Path_4662" fill="url(#linear-gradient-11)" d="M466.3 143.613a14.368 14.368 0 0 1-14.891 14.653 16.826 16.826 0 0 1-15.952-16.732 14.329 14.329 0 0 1 15.953-14.581 16.932 16.932 0 0 1 14.89 16.66z" transform="translate(-412.051 -120.051)"/>
                        <path id="Path_4663" fill="url(#linear-gradient-12)" d="M475.709 153.073a13.876 13.876 0 0 1-14.4 14.152 16.255 16.255 0 0 1-15.391-16.16 13.841 13.841 0 0 1 15.391-14.084 16.35 16.35 0 0 1 14.4 16.092z" transform="translate(-421.948 -129.544)"/>
                        <path id="Path_4664" fill="url(#linear-gradient-13)" d="M600.666 189.385a.88.88 0 0 1 .777.863v1.489a21.887 21.887 0 0 1 2.58.447q.952.224 1.892.533a.871.871 0 0 1 .591.893l-.183 1.866a.7.7 0 0 1-1 .581 10.7 10.7 0 0 0-1.269-.473 11.5 11.5 0 0 0-2.394-.447l-.219-.018v4.262a11.174 11.174 0 0 1 4.946 2.53 5.344 5.344 0 0 1 1.585 3.95 5.2 5.2 0 0 1-1.752 4.105 8.008 8.008 0 0 1-4.959 1.746v1.642a.747.747 0 0 1-.777.759h-.014a.826.826 0 0 1-.78-.824v-1.62l-.346-.016a22.763 22.763 0 0 1-2.87-.307 18.7 18.7 0 0 1-1.985-.456.855.855 0 0 1-.622-.884l.215-2.4a.759.759 0 0 1 1.061-.626 15.553 15.553 0 0 0 1.746.573 15.294 15.294 0 0 0 2.791.466l.014-4.741a10.273 10.273 0 0 1-4.817-2.365 5.415 5.415 0 0 1-1.6-4.022 4.7 4.7 0 0 1 1.73-3.907 7.664 7.664 0 0 1 4.877-1.362V190.1a.7.7 0 0 1 .779-.718zm-.779 5.689a2.628 2.628 0 0 0-1.554.548 1.6 1.6 0 0 0-.557 1.279 1.716 1.716 0 0 0 .516 1.271 3.651 3.651 0 0 0 1.6.814zm1.378 8.586v4.348a2.416 2.416 0 0 0 1.663-.517 1.863 1.863 0 0 0 .579-1.465 2.006 2.006 0 0 0-.538-1.431 3.909 3.909 0 0 0-1.704-.935z" transform="translate(-561.387 -179.2)"/>
                        <path id="Path_4665" fill="url(#linear-gradient-14)" d="M458.705 156.431c.484-4.8 4.9-6.839 4.326-11.258-.355-2.724-2.419-5.02-4.723-6.812a13.84 13.84 0 0 0-12.388 14.084 16.253 16.253 0 0 0 15.391 16.16 14.471 14.471 0 0 0 2.378-.116c-3.324-3.31-5.401-7.931-4.984-12.058z" opacity="0.3" transform="translate(-421.948 -130.922)"/>
                        <path id="Path_4666" fill="url(#linear-gradient-15)" d="M126.643 957.211a10.23 10.23 0 0 1-4.822-1.595c-1.828-1.194-4.205-3.648-3.585-5.195a1.652 1.652 0 0 1 1.486-1.025c.867.07.968 1.273 2.473 2.584.278.242 1.716 1.493 2.431 1.071a1.287 1.287 0 0 0 .4-1.232c-.169-1.29-1.746-1.49-3.261-2.887-1.536-1.417-2.817-3.889-2.085-5.561.421-.961 1.534-1.72 2.265-1.505.312.091.511.347 1.46 2.4.779 1.684.953 2.174 1.455 2.334a1.524 1.524 0 0 0 1.626-.551c.8-1.327-2.643-3.286-2.957-7-.14-1.666.31-4.13 1.817-4.659a2.723 2.723 0 0 1 2.994 1.123c.473.842-.1 1.476.259 3.368.108.574.335 1.756.81 1.818.559.073 1.183-1.434 1.327-1.8 1.086-2.763-.161-4.183.865-5.525a3.553 3.553 0 0 1 3.915-.938 3.507 3.507 0 0 1 2.234 2.91c.066 1.268-1 2.527-3.132 5.053-1.01 1.2-1.816 2-1.768 3.194.022.58.252 1.4.667 1.47.917.164 1.368-3.526 3.54-4.1a2.965 2.965 0 0 1 3.1 1.284 3.359 3.359 0 0 1-.689 3.884c-1.22 1.194-2.47.287-4.765 1.569-1.018.569-2.617 1.78-2.383 2.781a1.3 1.3 0 0 0 1.06.919c1.124.127 1.495-1.714 3.3-2.523 1.3-.583 3.1-.52 3.529.215.6 1.036-1.54 3.387-2.68 4.429-1.372 1.257-4.621 3.641-10.886 3.69z" transform="translate(-111.785 -882.095)"/>
                        <path id="Path_4667" fill="#fff" d="M287.67 1036.76c-.182-3.08 1.859-9.354 3.343-12.321a59.534 59.534 0 0 0 2.856-7.539l.09.027a59.482 59.482 0 0 1-2.861 7.555c-1.48 2.957-3.514 9.208-3.333 12.272z" opacity="0.5" transform="translate(-272.195 -962.234)"/>
                        <path id="Path_4668" fill="url(#linear-gradient-16)" d="M165.045 1111.11a14.907 14.907 0 0 1-2.826-7.5 9.754 9.754 0 0 1 1.377-6.63c.852-1.2 2.657-2.976 3.877-2.464a2.364 2.364 0 0 1 1.05 2.536c-.223.961-1.035 1.05-1.92 2.681-.327.6-.7 1.312-.414 1.712a1.266 1.266 0 0 0 1.393.195c1.021-.414.7-1.685 1.805-2.6.785-.648 2.093-.953 2.658-.422a2.007 2.007 0 0 1-.028 2.258c-.693 1.149-1.935.812-2.748 2.069-.36.557-.615 1.4-.3 1.732.359.38 1.414.051 2.091-.368.893-.554.926-1.143 1.514-1.216a1.635 1.635 0 0 1 1.605 1.236c.18.968-1.008 2.013-1.949 2.466-1.2.581-2.1.24-2.688 1.033-.215.291-.413.766-.237 1.055.253.412 1.165.276 1.771.185 1.475-.219 1.882-.753 2.41-.495a1.544 1.544 0 0 1 .579 1.774c-.128.347-.515.883-2.429 1.219a14.583 14.583 0 0 1-6.591-.456z" transform="translate(-153.428 -1035.592)"/>
                    </g>
                </g>
            </g>
            <text id="Loyalty_Points" fill="#fff" font-family="Metropolis-SemiBold, Metropolis" font-size="20px" font-weight="600" transform="translate(144 123)">
                <tspan x="0" y="0">Loyalty Points</tspan>
            </text>
            <text id="Welcome_to_KilkGO_Loyalty_Points._Shop_more_to_earn_more_points_" fill="#fff" font-family="Metropolis-Medium, Metropolis" font-size="12px" font-weight="500" transform="translate(144 145)">
                <tspan x="0" y="0">Welcome to KilkGO Loyalty</tspan><tspan x="0" y="14">Points. Shop more to earn</tspan><tspan x="0" y="28">more points!</tspan>
            </text>
        </g>
    </g>
</svg>
