<svg xmlns="http://www.w3.org/2000/svg" xmlns:xlink="http://www.w3.org/1999/xlink" viewBox="0 0 585.74 585.74"><defs><style>.cls-1,.cls-13{fill:none;}.cls-2{isolation:isolate;}.cls-3{fill:#f2f6f9;}.cls-18,.cls-4{fill:#98cb33;}.cls-5{fill:#ffcb00;}.cls-6{fill:#fff;}.cls-7{clip-path:url(#clip-path);}.cls-8{fill:gray;}.cls-16,.cls-9{fill:#3da56c;}.cls-10,.cls-12,.cls-14,.cls-16{mix-blend-mode:overlay;}.cls-11,.cls-12{fill:#fdcb3b;}.cls-13{stroke:#fff;stroke-linecap:round;stroke-miterlimit:10;stroke-width:4.46px;}.cls-14{fill:#980a11;}.cls-15{fill:#99cb4a;}.cls-17{fill:#3aa568;}.cls-18{mix-blend-mode:multiply;}</style><clipPath id="clip-path"><rect class="cls-1" x="208.75" y="61.99" width="233.1" height="165.92"/></clipPath></defs><g class="cls-2"><g id="Konten"><circle class="cls-3" cx="322.45" cy="250.14" r="250.14"/><path class="cls-4" d="M185,543a42.73,42.73,0,1,0,42.71-42.73A42.72,42.72,0,0,0,185,543Z"/><path class="cls-4" d="M377.32,543A42.73,42.73,0,1,0,420,500.28,42.72,42.72,0,0,0,377.32,543Z"/><path class="cls-4" d="M240.91,389.21H424.16a12.91,12.91,0,0,0,12-8.24l52.67-135.45a12.93,12.93,0,0,0-12-17.61H189.25a12.93,12.93,0,0,0-12.07,17.53l51.65,135.45A12.93,12.93,0,0,0,240.91,389.21Z"/><path class="cls-5" d="M442.93,467.39H194.17A21.17,21.17,0,0,1,174.48,454L99.33,264.15h-65a21.18,21.18,0,1,1,0-42.35h79.39a21.17,21.17,0,0,1,19.68,13.38l75.16,189.87H442.93a21.17,21.17,0,0,1,0,42.34Z"/><path class="cls-6" d="M333,357.61A89.7,89.7,0,0,1,243.43,268a8.5,8.5,0,0,1,17,0,72.61,72.61,0,1,0,145.22,0,8.5,8.5,0,0,1,17,0A89.7,89.7,0,0,1,333,357.61Z"/><g class="cls-7"><path class="cls-8" d="M306.43,81.92A32.74,32.74,0,0,1,314,86.27l1.68,1.42.85.71.79.78,1.59,1.55c.51.54,1,1.1,1.48,1.66a70.24,70.24,0,0,1,9.83,14.89,103.91,103.91,0,0,1,6.54,16.77,140.48,140.48,0,0,1,3.84,17.68,7.44,7.44,0,0,1-14.69,2.32,8.1,8.1,0,0,1-.08-1.55v-.13a128.47,128.47,0,0,0,0-16.3,94.5,94.5,0,0,0-2.56-16.17,64.5,64.5,0,0,0-5.93-15.38c-.34-.6-.67-1.22-1-1.81L315.18,91l-.57-.88-.64-.82-1.28-1.66A31.5,31.5,0,0,0,306.43,81.92Z"/><path class="cls-9" d="M350.79,91.27a116,116,0,0,0-6.06,10.27,48,48,0,0,0-4,10.66,45.35,45.35,0,0,0-1.17,10.91,73.57,73.57,0,0,0,1,11,7.48,7.48,0,0,1-14.77,2.34,7.15,7.15,0,0,1,0-2.26l0-.09a85.1,85.1,0,0,1,2.84-12.76,54.5,54.5,0,0,1,5.29-12,53.5,53.5,0,0,1,7.8-10A120.09,120.09,0,0,1,350.79,91.27Z"/><path class="cls-8" d="M282.22,108.81a41.08,41.08,0,0,1,21.07,1.07,54.94,54.94,0,0,1,19.33,10.83,62.88,62.88,0,0,1,14.44,18,64.1,64.1,0,0,1,7.21,23l.07.6A11.23,11.23,0,0,1,322,164.83a11.6,11.6,0,0,1,.08-3.12,44.33,44.33,0,0,0-.5-16.94,48.85,48.85,0,0,0-7.16-16.58A46.58,46.58,0,0,0,301,114.93,38.26,38.26,0,0,0,282.22,108.81Z"/><g class="cls-10"><path class="cls-11" d="M306.43,81.92A32.74,32.74,0,0,1,314,86.27l1.68,1.42.85.71.79.78,1.59,1.55c.51.54,1,1.1,1.48,1.66a70.24,70.24,0,0,1,9.83,14.89,103.91,103.91,0,0,1,6.54,16.77,140.48,140.48,0,0,1,3.84,17.68,7.44,7.44,0,0,1-14.69,2.32,8.1,8.1,0,0,1-.08-1.55v-.13a128.47,128.47,0,0,0,0-16.3,94.5,94.5,0,0,0-2.56-16.17,64.5,64.5,0,0,0-5.93-15.38c-.34-.6-.67-1.22-1-1.81L315.18,91l-.57-.88-.64-.82-1.28-1.66A31.5,31.5,0,0,0,306.43,81.92Z"/></g><path class="cls-9" d="M381.26,102.55c-6,.65-11.28,3.64-15.95,7a65,65,0,0,0-12.23,12.06,57.88,57.88,0,0,0-8.23,14.26,32.66,32.66,0,0,0-2.47,14.35,9.37,9.37,0,0,1-18.66,1.64,9.55,9.55,0,0,1,.12-2.57l.15-.73a49.07,49.07,0,0,1,8.82-19.52,69.43,69.43,0,0,1,13.82-14,71.34,71.34,0,0,1,16.45-9.5,49.31,49.31,0,0,1,9-2.7A27.17,27.17,0,0,1,381.26,102.55Z"/><path class="cls-8" d="M318.91,166.29a33.26,33.26,0,0,0-6.76-13.58,45,45,0,0,0-13-10.75,60.84,60.84,0,0,0-36-7A66.44,66.44,0,0,1,303,131.57a59.18,59.18,0,0,1,20.1,8.63,53.06,53.06,0,0,1,16.08,17.14l.46.78a11.27,11.27,0,0,1-19.47,11.35A11.47,11.47,0,0,1,318.91,166.29Z"/><g class="cls-10"><path class="cls-12" d="M282.22,108.81a41.08,41.08,0,0,1,21.07,1.07,54.94,54.94,0,0,1,19.33,10.83,62.88,62.88,0,0,1,14.44,18,64.1,64.1,0,0,1,7.21,23l.07.6A11.23,11.23,0,0,1,322,164.83a11.6,11.6,0,0,1,.08-3.12,44.33,44.33,0,0,0-.5-16.94,48.85,48.85,0,0,0-7.16-16.58A46.58,46.58,0,0,0,301,114.93,38.26,38.26,0,0,0,282.22,108.81Z"/></g><path class="cls-9" d="M327.37,158.1a38.13,38.13,0,0,1,7.54-10.74,46.52,46.52,0,0,1,9.4-7.25,61.2,61.2,0,0,1,20.4-7.35,65.86,65.86,0,0,1,20.57-.4A48.53,48.53,0,0,1,404,138.82a45.89,45.89,0,0,0-18.72-.92,57.51,57.51,0,0,0-17.2,5.43,47.06,47.06,0,0,0-13.63,10c-3.61,3.89-5.84,8.36-6.1,12a11.39,11.39,0,0,1-22.72-1.64,11.23,11.23,0,0,1,1-3.94Z"/><g class="cls-10"><path class="cls-11" d="M318.91,166.29a33.26,33.26,0,0,0-6.76-13.58,45,45,0,0,0-13-10.75,60.84,60.84,0,0,0-36-7A66.44,66.44,0,0,1,303,131.57a59.18,59.18,0,0,1,20.1,8.63,53.06,53.06,0,0,1,16.08,17.14l.46.78a11.27,11.27,0,0,1-19.47,11.35A11.47,11.47,0,0,1,318.91,166.29Z"/></g><path class="cls-8" d="M368.91,242.33c0-17.33,10.28-28.66,31.37-28.66s31.37,11.33,31.37,28.66-14,29.36-31.37,29.36S368.91,259.66,368.91,242.33Z"/><path class="cls-8" d="M381.26,191.68V237c0,16.55-21.53,30-48.07,30s-48.07-13.42-48.07-30V191.68c0-16.55,21.53-30,48.07-30S381.26,175.13,381.26,191.68Z"/><path class="cls-12" d="M381.26,191.68V237c0,16.55-21.53,30-48.07,30s-48.07-13.42-48.07-30V191.68c0-16.55,21.53-30,48.07-30S381.26,175.13,381.26,191.68Z"/><path class="cls-13" d="M325.32,236.43a7.87,7.87,0,0,0,15.73,0"/><path class="cls-13" d="M325.32,199.06a7.87,7.87,0,1,0,15.73,0"/><path class="cls-13" d="M350.79,219.07a7.87,7.87,0,1,0,15.74,0"/><path class="cls-13" d="M298.56,219.07a7.87,7.87,0,0,0,15.74,0"/><path class="cls-13" d="M350.79,183.41a7.87,7.87,0,1,0,15.74,0"/><path class="cls-13" d="M298.56,183.41a7.87,7.87,0,1,0,15.74,0"/><path class="cls-14" d="M368.91,242.33c0-17.33,10.28-28.66,31.37-28.66s31.37,11.33,31.37,28.66-14,29.36-31.37,29.36S368.91,259.66,368.91,242.33Z"/><path class="cls-8" d="M414.06,196.66c4.87,7.17-10.89,12.31-15.1,20.44C399,204.93,408.89,189.05,414.06,196.66Z"/><path class="cls-15" d="M376.22,199.87c4.91-9.08,20.9,6.21,22.74,17.23C395.13,213.67,371.3,209,376.22,199.87Z"/><path class="cls-9" d="M392.28,189.37c9.55-3.92,11.7,21,6.72,27.73C395.79,207.1,382.73,193.29,392.28,189.37Z"/><path class="cls-16" d="M414.06,196.66c4.87,7.17-10.89,12.31-15.1,20.44C399,204.93,408.89,189.05,414.06,196.66Z"/><circle class="cls-6" cx="412.65" cy="226.26" r="4.06"/><circle class="cls-6" cx="408.41" cy="237.34" r="3.51"/><circle class="cls-6" cx="423.73" cy="236.57" r="2.5"/><path class="cls-17" d="M313.06,200c-1.73,10.89-10.76,19.17-22.67,22.34a43.53,43.53,0,0,1-16.92,1l-1.22-.17-.48-.08-.44.21-1.12.5a43.63,43.63,0,0,1-16.64,3.73c-12.28.23-23.21-5.23-27.88-15.18-4.59-9.79-1.95-21.46,5.78-30.69-5.77-6.21-5.47-17,1-25.13A23.11,23.11,0,0,1,243,149c-.1-.51-.18-1-.26-1.54-1.86-13.13,4.68-24.93,14.6-26.33s19.47,8.11,21.33,21.25c.07.52.13,1,.18,1.54A23.26,23.26,0,0,1,291,148.22c8.53,6,11.8,16.29,8,23.86C309,178.79,314.76,189.28,313.06,200Z"/><path class="cls-18" d="M279,274.77a21.51,21.51,0,0,1-24.51-20.54l-1-26.73a43.63,43.63,0,0,0,16.64-3.73l1.12-.5.44-.21.48.08,1.22.17a43.53,43.53,0,0,0,16.92-1l6.5,25.94A21.52,21.52,0,0,1,279,274.77Z"/><path class="cls-6" d="M286.38,169.8c-5.94,7.75-15.32,20.08-17.19,22.76l4.28,30.26a2,2,0,0,1,0,.49l-1.22-.17-.48-.08-.44.21-1.12.5a1.71,1.71,0,0,1-.13-.47l-1.43-10.05L247.5,197.34a1.71,1.71,0,1,1,2.06-2.74L268,208.45l-2.2-15.59a1.66,1.66,0,0,1-.11-.38,1.61,1.61,0,0,1,0-.44l-2.38-16.83-15.56-11.7a1.71,1.71,0,1,1,2.06-2.74l12.82,9.64-5.14-36.32a1.72,1.72,0,0,1,3.4-.48l7.65,54.07c1.36-1.84,3.37-4.48,6.31-8.36,4.37-5.76,8.8-11.54,8.85-11.6a1.71,1.71,0,1,1,2.72,2.08Z"/></g></g></g></svg>