<svg xmlns="http://www.w3.org/2000/svg" xmlns:xlink="http://www.w3.org/1999/xlink" width="200" height="197.037" viewBox="0 0 200 197.037">
    <defs>
        <linearGradient id="linear-gradient" x1="-5.724" x2="-5.242" y1="-2.186" y2="-.277" gradientUnits="objectBoundingBox">
            <stop offset="0" stop-color="#159957"/>
            <stop offset=".12" stop-color="#15836d"/>
            <stop offset=".26" stop-color="#157080"/>
            <stop offset=".43" stop-color="#15628e"/>
            <stop offset=".64" stop-color="#155997"/>
            <stop offset="1" stop-color="#155799"/>
        </linearGradient>
        <linearGradient id="linear-gradient-2" x1="-4.947" x2="-4.513" y1="-2.865" y2="-.831" gradientUnits="objectBoundingBox">
            <stop offset="0" stop-color="#ffc444"/>
            <stop offset="1" stop-color="#f36f56"/>
        </linearGradient>
        <linearGradient id="linear-gradient-3" x1="-.555" x2="-1.376" y1="-.808" y2=".081" gradientUnits="objectBoundingBox">
            <stop offset="0" stop-color="#159957"/>
            <stop offset="1" stop-color="#155799"/>
        </linearGradient>
        <linearGradient id="linear-gradient-4" x2="1" y1=".5" y2=".5" gradientUnits="objectBoundingBox">
            <stop offset="0" stop-color="#444b8c"/>
            <stop offset="1" stop-color="#26264f"/>
        </linearGradient>
        <linearGradient id="linear-gradient-6" x1=".036" x2="-.463" y1=".068" y2="1.423" xlink:href="#linear-gradient-2"/>
        <linearGradient id="linear-gradient-7" x2="1" y1=".5" y2=".5" gradientUnits="objectBoundingBox">
            <stop offset="0" stop-color="#21633c"/>
            <stop offset="1" stop-color="#3aa668"/>
        </linearGradient>
        <linearGradient id="linear-gradient-9" x1="-6.452" x2="-6.977" y1="-5.764" y2="-3.72" gradientUnits="objectBoundingBox">
            <stop offset="0" stop-color="#b7de68"/>
            <stop offset="1" stop-color="#9c3"/>
        </linearGradient>
        <linearGradient id="linear-gradient-10" x1="-5.783" x2="-6.15" y1="-4.998" y2="-3.477" xlink:href="#linear-gradient-9"/>
        <clipPath id="clip-path">
            <path id="Path_4334" d="M1447.07 589.341c4.6 9.965 8.869 20.294 13.447 30.354 6.257-.235 13.612-.664 14.078-8.447.646-10.822 18.554-17.093 27.214-18.337 10.719-1.54 33.578-7.019 26.893-21.472-5.566-12.031-13.765-17.238-.7-26.812s17.358-21.094 9.238-33.5c-8.545-13.055 2.822-33.472-11.635-40.74-25.19-12.663-37.938 29.765-33.769 51.668s-8.476 18.563-22.166 24.6c-18.69 8.241-.045 24.183-6.153 33.664-4.79 7.43-9.345 6.719-16.447 9.022z" class="cls-1" transform="translate(-1447.07 -468.072)"/>
        </clipPath>
        <clipPath id="clip-path-2">
            <path id="Path_4341" d="M227.328 707.383c-2.567 9.293-4.8 18.858-7.331 28.228-5.459.688-11.895 1.365-13.407-5.317-2.1-9.288-18.52-12.172-26.205-12.018-9.511.193-30.107-1.3-26.373-14.781 3.109-11.222 9.476-16.9-3.212-23.342s-18.053-15.81-12.783-27.72c5.547-12.534-7.216-28.614 4.281-36.973 20.032-14.566 37.128 20.4 36.634 39.976s10 14.883 22.721 18.165c17.376 4.48 3.485 20.956 10.13 28.3 5.217 5.763 9.061 4.499 15.545 5.482z" class="cls-1" transform="translate(-136.004 -612.003)"/>
        </clipPath>
        <clipPath id="clip-path-3">
            <path id="Path_4350" d="M510.16 169.478q13.25 1.965 26.6 3.434c.111.142 7.141-14.463.534-24.955-13.153-20.418 2.457-31.207 8.094-38.592 8.587-10.239 9.753-25.233-6.569-26.854C523 80.63 527.813 54.118 535.917 34.9 540.823 25.816 533 11 522.7 5.274 512.253-.8 499.329 2.2 490.564 20.6c-11.376 20.958 4.655 39.893 8.879 53.132 4.163 13-15.026 17.315-4.241 30.785 8.944 11.793 21.509 21.958 13.287 31.421-8.331 9.298-9.469 18.462 1.671 33.54z" class="cls-1" transform="translate(-486.557 -2.427)"/>
        </clipPath>
        <style>
            .cls-1{fill:none}.cls-5{opacity:.8}.cls-6{fill:#fcfdfe}.cls-11{fill:url(#linear-gradient-4)}.cls-13{fill:#fff}.cls-14{fill:url(#linear-gradient-7)}
        </style>
    </defs>
    <g id="KlikGO_Illustrations-05" transform="translate(.021 -23.311)">
        <g id="Layer_2" transform="translate(-.021 23.311)">
            <g id="Illustration">
                <path id="Path_4327" fill="#f4f7fa" d="M191.471 56.3c5.273-48.022-41.284-64.706-74.29-52.41C83.91 16.287 76.194-4.261 29.408 1.61-17.967 7.554 6.083 81.921 6.083 81.921s7.538 64.667 16.468 94.474c8.885 29.646 93.911 18.92 114.59 18.035 20.564-.88 38.433.818 56.325-31.733 17.86-32.492-7.248-58.532-1.995-106.397z" transform="translate(.021 -.001)"/>
                <path id="Path_4328" fill="url(#linear-gradient)" d="M1521.61 614.184a13.168 13.168 0 0 1-5.8-2.206c-4.969-4.977-14.876-13.69-15.319-21.111-.076-1.268 5.41-3.105 6.061-4.354 3.213-2.021 4.453-2.522 6.564-5.944 6.232-10.1-12.549-25.441 6.18-33.846 13.716-6.157 26.334-2.681 22.17-24.616s8.578-64.326 33.771-51.676c14.457 7.26 3.088 27.687 11.635 40.74 8.122 12.407 3.828 23.922-9.239 33.5s-4.859 14.771.7 26.814c6.679 14.467-16.154 19.888-26.908 21.492-8.661 1.291-29.844 10.423-29.815 21.207z" transform="translate(-1394.109 -434.932)"/>
                <g id="Group_4346" clip-path="url(#clip-path)" transform="translate(102.593 33.184)">
                    <g id="Group_4345" class="cls-5" transform="translate(11.547 -3.696)">
                        <path id="Path_4329" d="M1610.1 553.535a128.427 128.427 0 0 0 29.8-26.491 132.986 132.986 0 0 0 19.9-33.242c9.855-23.608 13.458-50.536 10.412-77.862l-.295.033c6.426 57.675-15.994 109.007-59.975 137.313z" class="cls-6" transform="translate(-1609.94 -415.94)"/>
                        <path id="Path_4330" d="M1985.89 1987.2l.059-.291c-14.076-2.836-36.747-.26-50.538 5.738l.118.272c13.743-5.977 36.336-8.542 50.361-5.719z" class="cls-6" transform="translate(-1912.335 -1874.461)"/>
                        <path id="Path_4331" d="M1705.48 1618.841c5.187-5.935 7.175-14.25 5.91-24.71-.922-7.633-3.528-16.217-7.74-25.511l-.27.123c4.2 9.267 6.8 17.821 7.715 25.425 1.255 10.373-.709 18.609-5.838 24.479z" class="cls-6" transform="translate(-1696.755 -1486.899)"/>
                        <path id="Path_4332" d="M2328.082 1229.2c9.028-11.472 23.719-16 34.456-17.782l-.048-.293c-10.787 1.789-25.552 6.345-34.639 17.891z" class="cls-6" transform="translate(-2276.953 -1154.745)"/>
                        <path id="Path_4333" d="M2206.094 528.329c-.767-16.651-11.981-30.053-18.6-36.559l-.208.213c6.585 6.476 17.745 19.811 18.508 36.361z" class="cls-6" transform="translate(-2146.358 -486.394)"/>
                    </g>
                </g>
                <path id="Path_4335" fill="url(#linear-gradient-2)" d="M209.3 732.483a11.565 11.565 0 0 0 4.715-2.739c3.6-5.022 10.945-13.987 10.271-20.483-.115-1.109-5.132-1.921-5.874-2.907-3.073-1.294-4.219-1.552-6.537-4.217-6.842-7.869 7.251-23.841-10.18-28.458-12.768-3.382-23.209 1.429-22.726-18.179s-16.6-54.538-36.638-39.985c-11.5 8.353 1.268 24.44-4.281 36.973-5.273 11.911.094 21.281 12.783 27.72s6.316 12.111 3.212 23.344c-3.728 13.493 16.836 14.938 26.388 14.8 7.696-.119 27.358 4.778 28.867 14.131z" transform="translate(-126.394 -568.669)"/>
                <g id="Group_4348" clip-path="url(#clip-path-2)" transform="translate(9.644 43.389)">
                    <g id="Group_4347" class="cls-5" transform="translate(-2.604 -2.725)">
                        <path id="Path_4336" d="M366.572 684.292a112.82 112.82 0 0 1-29.6-18.717 116.828 116.828 0 0 1-21.99-25.975c-11.909-19.062-18.867-41.89-20.122-66.012l.26-.013c2.649 50.911 29.4 92.213 71.556 110.482z" class="cls-6" transform="translate(-280.993 -573.57)"/>
                        <path id="Path_4337" d="M357.783 1921.655l-.093-.244c11.8-4.462 31.817-5.459 44.627-2.229l-.064.253c-12.763-3.222-32.712-2.226-44.47 2.22z" class="cls-6" transform="translate(-339.369 -1822.022)"/>
                        <path id="Path_4338" d="M1076.411 1509.495c-5.342-4.406-8.25-11.33-8.644-20.578a78.145 78.145 0 0 1 3.074-23.217l.252.071a77.863 77.863 0 0 0-3.065 23.139c.391 9.17 3.267 16.03 8.549 20.387z" class="cls-6" transform="translate(-999.06 -1402.451)"/>
                        <path id="Path_4339" d="M131.67 1324.605c-9.46-8.659-22.841-10.493-32.4-10.5v-.261c9.605.014 23.054 1.859 32.575 10.573z" class="cls-6" transform="translate(-99.27 -1261.358)"/>
                        <path id="Path_4340" d="M382.537 635.39c-1.708-14.543 6.1-27.757 10.909-34.34l.213.153c-4.79 6.552-12.561 19.7-10.863 34.157z" class="cls-6" transform="translate(-362.232 -599.102)"/>
                    </g>
                </g>
                <g id="Group_4350" clip-path="url(#clip-path-3)" transform="translate(34.497 .172)">
                    <path id="Path_4342" fill="url(#linear-gradient-3)" d="M510.16 169.478q13.25 1.965 26.6 3.434c.111.142 7.141-14.463.534-24.955-13.153-20.418 2.457-31.207 8.094-38.592 8.531-10.245 9.224-23.689-5.119-27.836C524.43 76.671 527.551 54 535.917 34.9 540.823 25.816 533 11 522.7 5.274 512.253-.8 499.329 2.2 490.564 20.6c-11.376 20.958 4.655 39.893 8.879 53.132 4.163 13-15.026 17.315-4.241 30.785 8.944 11.793 21.509 21.958 13.287 31.421-8.331 9.298-9.469 18.462 1.671 33.54z" transform="translate(-486.557 -2.427)"/>
                    <g id="Group_4349" class="cls-5" transform="translate(2.362 -1.825)">
                        <path id="Path_4343" d="M852.9 149.628c.169-1.024.542-36.086-4.66-69.987-.54-5.641-1.24-11.365-1.916-16.898-1.814-14.833-3.685-30.165-2.6-44.639 1.214-16.194 6.1-29.741 14.923-41.414l.277.164c-19.6 25.922-16.046 55.047-12.279 85.884.676 5.534 1.375 11.257 1.918 16.9a451.916 451.916 0 0 1 4.654 70.073l-.315-.091.157.045z" class="cls-6" transform="translate(-820.468 23.31)"/>
                        <path id="Path_4344" d="M542.947 233.857c-7.124-11.393-15.2-27.011-19.538-35.406-1.854-3.587-3.319-6.42-3.529-6.625l.091-.065.014-.171c.218.033.365.284 3.718 6.772 4.336 8.388 12.407 24 19.526 35.384z" class="cls-6" transform="translate(-519.88 -176.354)"/>
                        <path id="Path_4345" d="M846.718 326.945l-.118-.454a40.742 40.742 0 0 1 15.746-17.106 30.666 30.666 0 0 1 10.961-4.16c.247-.018.349 0 .418.064l-.235.169a.148.148 0 0 0 .067.038c-.4-.071-4.785.649-10.209 3.663a41.609 41.609 0 0 0-16.63 17.786z" class="cls-6" transform="translate(-823.437 -281.926)"/>
                        <path id="Path_4346" d="M950.06 1217.675c1.233-9.77 6.654-19.142 16.111-27.867a91.413 91.413 0 0 1 17.343-12.4c.345-.194.617-.345.657-.379l.237.206c-.057.048-.245.153-.7.408-9.146 5.12-30.7 19.276-33.328 40.087z" class="cls-6" transform="translate(-919.562 -1091.93)"/>
                        <path id="Path_4347" d="M568.966 1288.971c-6.4-16.312-27.348-23.1-27.713-23.2l.022-.133-.084.11-.071-.158.151-.09c.194.009 21.526 6.89 28 23.408z" class="cls-6" transform="translate(-539.614 -1174.128)"/>
                        <path id="Path_4348" d="M977.72 2094.433c.949-4.164 4.642-10.679 16.849-18.079.284-.174.534-.323.571-.354l.1.083.192.029c-.008.079-.008.079-.661.474-12.13 7.351-15.8 13.8-16.732 17.924z" class="cls-6" transform="translate(-945.261 -1927.167)"/>
                        <path id="Path_4349" d="M742.687 1941.4c-.533-7.782-11.172-16.339-17.467-20.742-.213-.15-.354-.248-.4-.284l.208-.193c.046.037.178.129.383.272 6.341 4.439 17.058 13.063 17.6 20.959z" class="cls-6" transform="translate(-710.29 -1782.394)"/>
                    </g>
                </g>
                <path id="Path_4351" d="M689.519 102.069l-19.74 164.072a4.323 4.323 0 0 0 3.775 4.9l82.218 9.026c5.034.313 7.794-2.259 8.106-4.876L784.6 100.757c.309-2.6-2.162-4.957-7.217-4.957l-82.969 1.747a5.229 5.229 0 0 0-4.895 4.522z" class="cls-11" transform="translate(-622.262 -89.008)"/>
                <path id="Path_4352" d="M635.859 101.611L616.009 266.5a4.344 4.344 0 0 0 3.788 4.927l85.237 8.486a4.983 4.983 0 0 0 5.433-4.3l20.844-175.337a4.136 4.136 0 0 0-4.354-4.671l-86.182 1.454a5.256 5.256 0 0 0-4.916 4.552z" class="cls-11" transform="translate(-572.303 -88.832)"/>
                <path id="Path_4353" fill="url(#linear-gradient-6)" d="M677.764 241.892l-18.4 152.885a4.05 4.05 0 0 0 3.545 4.593l80.162 7.793a4.649 4.649 0 0 0 5.051-4.011l19.263-161.968a3.874 3.874 0 0 0-4.041-4.378l-80.986.864a4.871 4.871 0 0 0-4.594 4.222z" transform="translate(-612.59 -220.018)"/>
                <path id="Path_4354" d="M1525.458 157.511a1.363 1.363 0 0 0 1.408 1.569 1.879 1.879 0 0 0 1.792-1.613 1.364 1.364 0 0 0-1.411-1.569 1.879 1.879 0 0 0-1.789 1.613z" class="cls-13" transform="translate(-1417.297 -144.845)"/>
                <path id="Path_4355" d="M1067.718 1223.392l-4.275 1.954a1.367 1.367 0 0 0-.7 1.772l1.063 2.435a21.762 21.762 0 0 0-2.929 2.352l-2.127-1.547a1.342 1.342 0 0 0-1.861.316l-2.765 3.758a1.342 1.342 0 0 0 .25 1.873l2.1 1.569a22.14 22.14 0 0 0-1.4 3.5l-2.608-.291a1.365 1.365 0 0 0-1.483 1.2l-.6 4.679a1.342 1.342 0 0 0 1.142 1.524l2.6.32a22.261 22.261 0 0 0 .5 3.815l-2.443 1.063a1.421 1.421 0 0 0-.726 1.826l1.787 4.487a1.347 1.347 0 0 0 1.777.773l2.481-1.063a22.7 22.7 0 0 0 2.347 3.163l-1.631 2.225a1.5 1.5 0 0 0 .27 2.027l3.853 3.12a1.358 1.358 0 0 0 1.971-.237l1.668-2.273a22.955 22.955 0 0 0 3.664 1.606l-.315 2.907a1.552 1.552 0 0 0 1.272 1.7l4.99.789a1.391 1.391 0 0 0 1.609-1.258l.3-2.954a22.149 22.149 0 0 0 4.006-.489l1.23 2.813a1.558 1.558 0 0 0 1.979.862l4.727-1.914a1.451 1.451 0 0 0 .737-1.973l-1.283-2.84a21.789 21.789 0 0 0 3.179-2.481l2.521 1.884a1.508 1.508 0 0 0 2.131-.255l3.021-4.127a1.522 1.522 0 0 0-.394-2.117l-2.57-1.868a22.177 22.177 0 0 0 1.4-3.768l3.119.384a1.438 1.438 0 0 0 1.653-1.292l.4-5.086a1.562 1.562 0 0 0-1.409-1.634l-3.105-.347a22.26 22.26 0 0 0-.752-3.925l2.8-1.2a1.388 1.388 0 0 0 .713-1.908l-2.237-4.526a1.545 1.545 0 0 0-1.985-.709l-2.761 1.205a22.754 22.754 0 0 0-2.578-2.986l1.721-2.344a1.36 1.36 0 0 0-.363-1.948l-4.106-2.75a1.484 1.484 0 0 0-2.005.34l-1.7 2.309a22.9 22.9 0 0 0-3.643-1.3l.284-2.778a1.349 1.349 0 0 0-1.263-1.466l-4.794-.379a1.413 1.413 0 0 0-1.521 1.231l-.294 2.718a22.1 22.1 0 0 0-3.74.638l-1.109-2.457a1.342 1.342 0 0 0-1.79-.647zm14.1 37.691a14.552 14.552 0 0 1-18.96-7.875 14.2 14.2 0 0 1 7.246-18.5 14.555 14.555 0 0 1 19.014 7.161 14.159 14.159 0 0 1-7.303 19.214z" class="cls-13" transform="translate(-975.895 -1135.279)"/>
                <path id="Path_4356" d="M1054.835 605.8l-2.746 1.932a.934.934 0 0 0-.29 1.28l1.012 1.456a16.483 16.483 0 0 0-1.772 2l-1.656-.7a1.01 1.01 0 0 0-1.263.5l-1.509 2.921a.854.854 0 0 0 .387 1.205l1.642.719a15.335 15.335 0 0 0-.584 2.544l-1.855.213a1.027 1.027 0 0 0-.9 1.025l.109 3.205a.861.861 0 0 0 .972.836l1.855-.2a13.821 13.821 0 0 0 .78 2.451l-1.585 1.1a.981.981 0 0 0-.3 1.328l1.753 2.689a.937.937 0 0 0 1.326.226l1.605-1.1a13.931 13.931 0 0 0 1.985 1.714l-.884 1.734a.943.943 0 0 0 .415 1.3l3.013 1.431a1.022 1.022 0 0 0 1.334-.476l.9-1.767a15.632 15.632 0 0 0 2.7.464l.106 1.957a.965.965 0 0 0 1.059.907l3.5-.293a1.041 1.041 0 0 0 .958-1.085l-.121-1.981a16.64 16.64 0 0 0 2.669-.962l1.141 1.64a1.041 1.041 0 0 0 1.433.245l2.981-2a.993.993 0 0 0 .284-1.4l-1.172-1.647a16.46 16.46 0 0 0 1.869-2.118l1.9.831a1.092 1.092 0 0 0 1.4-.5l1.575-3.15a.951.951 0 0 0-.491-1.314l-1.923-.817a15.131 15.131 0 0 0 .529-2.666l2.127-.227a1.049 1.049 0 0 0 .964-1.091l-.274-3.363a.974.974 0 0 0-1.117-.851l-2.116.242a13.781 13.781 0 0 0-.929-2.444l1.75-1.2a.94.94 0 0 0 .271-1.347l-1.985-2.618a1.039 1.039 0 0 0-1.412-.171l-1.728 1.193a14.079 14.079 0 0 0-2.065-1.572l.9-1.788a.864.864 0 0 0-.462-1.24l-3.08-1.205a1.081 1.081 0 0 0-1.324.516l-.9 1.765a15.773 15.773 0 0 0-2.623-.316l-.114-1.869a.868.868 0 0 0-1.026-.78l-3.327.452a1.034 1.034 0 0 0-.909 1.036l.1 1.838a16.669 16.669 0 0 0-2.508.983l-1.039-1.461a.938.938 0 0 0-1.315-.159zm13.839 22.661c-4.705 3.2-10.927 2.17-13.87-2.191-2.885-4.275-1.56-10.2 2.942-13.339 4.531-3.156 10.686-2.379 13.776 1.834 3.153 4.298 1.89 10.475-2.848 13.694z" class="cls-13" transform="translate(-971.19 -560.343)"/>
                <path id="Path_4357" d="M1262.564 756.821l14.95-4.688 3.414-15.29-16.535-13.573c-1.005-.922.614-3.261 1.974-3.38a23.969 23.969 0 1 1-14.174 41.529c-5.148-4.732-8.559-10.439-8.554-16.92 0-1.366 2.427-2.836 3.434-1.914z" class="cls-14" transform="translate(-1155.469 -668.768)"/>
                <path id="Path_4358" d="M1728.965 1166l57.439 49.115a8.734 8.734 0 0 1 .675 12.478 8.734 8.734 0 0 1-12.489.38l-53.81-53.072z" class="cls-14" transform="translate(-1598.782 -1083.335)"/>
                <path id="Path_4359" fill="url(#linear-gradient-9)" d="M1261.437 771.124l14.95-4.688 3.414-15.292-15.491-14.238a1.568 1.568 0 0 1 .929-2.715 23.97 23.97 0 1 1-21.921 23.854 1.568 1.568 0 0 1 2.627-1.158z" transform="translate(-1155.171 -682.055)"/>
                <path id="Path_4360" fill="url(#linear-gradient-10)" d="M1717.275 1180.32l57.439 49.115a8.733 8.733 0 0 1 .675 12.478 8.734 8.734 0 0 1-12.489.38l-53.81-53.072z" transform="translate(-1587.921 -1096.64)"/>
                <path id="Path_4361" d="M1777.637 1248.789a3.545 3.545 0 1 0 5.01-.213 3.545 3.545 0 0 0-5.01.213z" class="cls-13" transform="translate(-1650.741 -1159.188)"/>
                <path id="Path_4362" d="M1858.53 1326.648l46.62 42.85a2.1 2.1 0 0 0 2.964-.125 2.1 2.1 0 0 0-.125-2.964l-46.62-42.85z" class="cls-13" transform="translate(-1726.766 -1229.724)"/>
            </g>
        </g>
    </g>
</svg>
