<svg xmlns="http://www.w3.org/2000/svg" xmlns:xlink="http://www.w3.org/1999/xlink" width="120" height="118.802" viewBox="0 0 120 118.802">
    <defs>
        <linearGradient id="linear-gradient" x1=".419" x2="1.063" y1=".15" y2=".995" gradientUnits="objectBoundingBox">
            <stop offset="0" stop-color="#159957"/>
            <stop offset="1" stop-color="#155799"/>
        </linearGradient>
        <linearGradient id="linear-gradient-2" x1="1.079" x2=".265" y1=".279" y2=".474" xlink:href="#linear-gradient"/>
        <linearGradient id="linear-gradient-5" x1="-2.534" x2="-3.216" y1=".259" y2=".745" gradientUnits="objectBoundingBox">
            <stop offset="0" stop-color="#444b8c"/>
            <stop offset="1" stop-color="#26264f"/>
        </linearGradient>
        <linearGradient id="linear-gradient-6" x1="-2.792" x2="-3.519" y1=".285" y2=".925" gradientUnits="objectBoundingBox">
            <stop offset="0" stop-color="#311944"/>
            <stop offset="1" stop-color="#893976"/>
        </linearGradient>
        <linearGradient id="linear-gradient-7" x1="18.671" x2="17.609" y1=".104" y2=".905" gradientUnits="objectBoundingBox">
            <stop offset="0" stop-color="#f7ff7f"/>
            <stop offset="1" stop-color="#feba46"/>
        </linearGradient>
        <linearGradient id="linear-gradient-8" x1="-.94" x2="-.681" y1="-.044" y2="1.485" gradientUnits="objectBoundingBox">
            <stop offset="0" stop-color="#ffc444"/>
            <stop offset="1" stop-color="#f36f56"/>
        </linearGradient>
        <linearGradient id="linear-gradient-9" x1="-1.038" x2="-.774" y1="-.886" y2="1.918" xlink:href="#linear-gradient-8"/>
        <linearGradient id="linear-gradient-10" x1="4.453" x2="3.342" y1=".186" y2=".814" xlink:href="#linear-gradient-7"/>
        <linearGradient id="linear-gradient-11" x1="5.024" x2="3.816" y1=".492" y2=".506" xlink:href="#linear-gradient-5"/>
        <linearGradient id="linear-gradient-12" x1="-3.647" x2="-3.171" y1="-.563" y2="1.571" xlink:href="#linear-gradient-8"/>
        <linearGradient id="linear-gradient-13" x1="-7.884" x2="-7.163" y1="-.557" y2="1.565" xlink:href="#linear-gradient-8"/>
        <linearGradient id="linear-gradient-14" x1="2.062" x2=".591" y1="-1.61" y2="2.828" gradientUnits="objectBoundingBox">
            <stop offset="0" stop-color="#21633c"/>
            <stop offset="1" stop-color="#3aa668"/>
        </linearGradient>
        <linearGradient id="linear-gradient-15" x1="1.189" x2="1.873" y1=".091" y2="1.603" gradientUnits="objectBoundingBox">
            <stop offset="0" stop-color="#ff9085"/>
            <stop offset="1" stop-color="#fb6fbb"/>
        </linearGradient>
        <linearGradient id="linear-gradient-16" x2="1" y1=".5" y2=".5" gradientUnits="objectBoundingBox">
            <stop offset="0" stop-color="#b7de68"/>
            <stop offset="1" stop-color="#9c3"/>
        </linearGradient>
        <linearGradient id="linear-gradient-17" x1="5.977" x2="8.246" y1="-1.2" y2="3.596" xlink:href="#linear-gradient-16"/>
        <linearGradient id="linear-gradient-18" x1="1.005" x2="1.972" y1="-.017" y2="1.976" xlink:href="#linear-gradient-16"/>
        <clipPath id="clip-path">
            <path id="Path_4237" d="M609.1 967.188c1.158-6.075 1.928-15.133-1.611-24.576-4.641-12.384-12.614-14.549-24.834-32.342-7.726-11.249-13.005-19.18-10.437-27.343 2.013-6.4 8.6-12.172 15.061-12.3 5.369-.1 11.276 3.686 14.65 7 2.75 2.7 3.963 5.237 6.916 5.568 3.017.338 4.291-2.022 6.878-2.028 5.246-.012 9.25 9.676 9.9 11.242 7.2 17.417.814 37.338-2.076 45.994a114.258 114.258 0 0 1-14.447 28.785z" class="cls-1" transform="translate(-571.561 -870.629)"/>
        </clipPath>
        <clipPath id="clip-path-2">
            <path id="Path_4242" d="M1529.454 778.426c12.261-3.472 27.135-9.55 39.128-20.273 3.061-2.737 21.969-19.643 14.532-28.977-2.62-3.288-6.3-2.86-9.876-7.208-4.244-5.153-1.8-9.053-2.431-16.827-.378-4.639-1.483-18.213-12.365-22.745-6.5-2.709-16.2-2.067-22.231 1.364-8.846 5.034-8.066 15.081-6.424 32.1 1.456 15.084 4.239 18.082 5.079 28.939.622 8.055.106 19.548-5.412 33.627z" class="cls-2" transform="translate(-1528.754 -680.715)"/>
        </clipPath>
        <clipPath id="clip-path-3">
            <path id="Path_4251" fill="none" d="M2486.57 1314.9a9.2 9.2 0 0 0 6.092-2.6 23.549 23.549 0 0 0 5.352-7.551c3.281-6.84 5.087-15.965 5.087-25.69s-1.806-18.849-5.087-25.69a23.531 23.531 0 0 0-5.352-7.551 8.435 8.435 0 0 0-12.184 0 23.559 23.559 0 0 0-5.352 7.551c-3.28 6.84-5.086 15.965-5.086 25.69s1.807 18.849 5.086 25.69a23.536 23.536 0 0 0 5.352 7.551 9.2 9.2 0 0 0 6.092 2.6z" transform="translate(-2470.04 -1243.22)"/>
        </clipPath>
        <style>
            .cls-1{fill:url(#linear-gradient)}.cls-2{fill:url(#linear-gradient-2)}.cls-6{opacity:.5}.cls-7{fill:#fff}
        </style>
    </defs>
    <g id="KlikGO_Illustrations-04" transform="translate(-398.849 -411.418)">
        <g id="Illustration" transform="translate(398.849 411.418)">
            <path id="Path_4231" fill="#f4f7fa" d="M489.136 418.559c3.992 5.736-.689 15.035 5.233 19.348 5.766 4.2 12.849-2.684 18.284.931 8.061 5.362 6.589 29.9-5.2 45.142-3.544 4.584-6.506 6.368-7.817 11.553-2.817 11.133 7.082 17.756 5.2 23.262-4.241 12.4-69.472 22.8-95.643-14.459-12.224-17.4-14.051-42.531-3.132-61.617 19.739-34.487 74.117-37.03 83.075-24.16z" transform="translate(-398.849 -411.418)"/>
            <path id="Path_4232" d="M609.1 967.188c1.158-6.075 1.928-15.133-1.611-24.576-4.641-12.384-12.614-14.549-24.834-32.342-7.726-11.249-13.005-19.18-10.437-27.343 2.013-6.4 8.6-12.172 15.061-12.3 5.369-.1 11.276 3.686 14.65 7 2.75 2.7 3.963 5.237 6.916 5.568 3.017.338 4.291-2.022 6.878-2.028 5.246-.012 9.25 9.676 9.9 11.242 7.2 17.417.814 37.338-2.076 45.994a114.258 114.258 0 0 1-14.447 28.785z" class="cls-1" transform="translate(-564.444 -851.708)"/>
            <g id="Group_4270" clip-path="url(#clip-path)" transform="translate(7.117 18.922)">
                <g id="Group_4269" class="cls-6" transform="translate(-1.865 -3.051)">
                    <path id="Path_4233" d="M741.96 930.555l-.242-.158a84.24 84.24 0 0 0 10-20.318c3.023-9.539 3.072-18 .147-25.138-2.29-5.593-6.277-10.208-11.795-16.6a113.919 113.919 0 0 0-11.145-11.153c-4.125-3.7-7.383-6.632-10.523-12.03a47.288 47.288 0 0 1-5.96-18.7l.288-.032a46.977 46.977 0 0 0 5.923 18.583c3.116 5.357 6.36 8.271 10.466 11.959a114.186 114.186 0 0 1 11.171 11.179c2.735 3.166 5.1 5.9 7.087 8.577a36.951 36.951 0 0 1 4.755 8.1c2.951 7.206 2.9 15.73-.139 25.335a84.469 84.469 0 0 1-10.033 20.396z" class="cls-7" transform="translate(-704.77 -825.2)"/>
                    <path id="Path_4234" d="M553.12 836.508a34.547 34.547 0 0 1-5.867-.5 32.664 32.664 0 0 1-10.4-3.66 34.412 34.412 0 0 1-10.553-9.278l.23-.176a34.146 34.146 0 0 0 10.459 9.2 33.14 33.14 0 0 0 21.165 3.716 51.336 51.336 0 0 1-1.993-28.284 37.05 37.05 0 0 1 4.139-10.946l.243.157a36.792 36.792 0 0 0-4.1 10.865 51.092 51.092 0 0 0 2.042 28.269l.055.154-.16.035a27.254 27.254 0 0 1-5.26.448z" class="cls-7" transform="translate(-526.3 -796.58)"/>
                    <path id="Path_4235" d="M730.026 992l-.136-.256a60.2 60.2 0 0 1 6.985-3.03c6.613-2.386 10.738-2.481 13.034-2.143a93.058 93.058 0 0 1 15.276 3.78c4.574-6.045 4.762-18.472 4.113-27.855a162.5 162.5 0 0 0-2.558-19.232l.283-.059a162.954 162.954 0 0 1 2.563 19.271 87.168 87.168 0 0 1-.143 15.733c-.641 5.536-2.019 9.708-4.093 12.4l-.064.082-.1-.035a92.67 92.67 0 0 0-15.321-3.8c-2.263-.335-6.336-.239-12.889 2.125a59.992 59.992 0 0 0-6.95 3.019z" class="cls-7" transform="translate(-721.501 -937.168)"/>
                    <path id="Path_4236" d="M1136.486 1202.719l-.031-.288a16.039 16.039 0 0 0-4.495-9.815 20.894 20.894 0 0 0-8.12-4.9 35.9 35.9 0 0 0-11.274-1.876l-.007-.288a36.277 36.277 0 0 1 11.376 1.892 21.2 21.2 0 0 1 8.231 4.975 16.26 16.26 0 0 1 4.542 9.7 83.875 83.875 0 0 0 9.962-11.953c4.828-6.961 10.948-17.96 12.682-30.828l3.366-24.97.288.039-3.365 24.97c-1.743 12.928-7.887 23.972-12.736 30.961a81.947 81.947 0 0 1-10.208 12.193z" class="cls-7" transform="translate(-1088.403 -1120.442)"/>
                </g>
            </g>
            <path id="Path_4238" d="M1529.454 778.426c12.261-3.472 27.135-9.55 39.128-20.273 3.061-2.737 21.969-19.643 14.532-28.977-2.62-3.288-6.3-2.86-9.876-7.208-4.244-5.153-1.8-9.053-2.431-16.827-.378-4.639-1.483-18.213-12.365-22.745-6.5-2.709-16.2-2.067-22.231 1.364-8.846 5.034-8.066 15.081-6.424 32.1 1.456 15.084 4.239 18.082 5.079 28.939.622 8.055.106 19.548-5.412 33.627z" class="cls-2" transform="translate(-1482.196 -669.619)"/>
            <g id="Group_4272" clip-path="url(#clip-path-2)" transform="translate(46.558 11.096)">
                <g id="Group_4271" class="cls-6" transform="translate(-50.116 -11.088)">
                    <path id="Path_4239" d="M312.5 539.039l-.01-.288a92.478 92.478 0 0 0 24.719-4.087 72.49 72.49 0 0 0 14.438-6.321 60.68 60.68 0 0 0 19.119-17.356 71.354 71.354 0 0 0 10.488-22.564c5.161-18.719 3.606-37.68 1.393-50.289-1.534-8.743-6.079-17.6-13.507-26.315l.22-.188c7.463 8.758 12.029 17.658 13.573 26.454 2.218 12.639 3.776 31.646-1.4 50.416A71.536 71.536 0 0 1 371 511.155a60.921 60.921 0 0 1-19.208 17.439 72.724 72.724 0 0 1-14.5 6.346 92.767 92.767 0 0 1-24.792 4.099z" class="cls-7" transform="translate(-312.49 -411.63)"/>
                    <path id="Path_4240" d="M1501.907 567.469l-.107-.061a63.246 63.246 0 0 1-10.916-8.424c-5.166-4.947-11.675-12.942-13.344-22.937l.285-.047c1.656 9.912 8.122 17.853 13.254 22.769a63.656 63.656 0 0 0 10.757 8.323c18.707-23.56 10.031-41.809 6.922-46.846-.088-.143-.124-.2-.14-.238l.264-.118c.01.021.064.11.124.206 3.139 5.085 11.908 23.521-7.02 47.276z" class="cls-7" transform="translate(-1429.534 -515.429)"/>
                    <path id="Path_4241" d="M1325.489 1061.908l-.05-.045a71.463 71.463 0 0 1-7.691-8.51 89.084 89.084 0 0 1-13.237-23.458l-7.39-19.9.272-.1 7.39 19.907a88.792 88.792 0 0 0 13.193 23.381 72.278 72.278 0 0 0 7.606 8.428 63.048 63.048 0 0 0 19.372-5.705 36.592 36.592 0 0 0 10.813-8.02 26.309 26.309 0 0 0 4.676-7.144 15.016 15.016 0 0 0 1.01-3.09l.285.047c-.008.049-.863 4.957-5.742 10.364a36.876 36.876 0 0 1-10.9 8.093 63.384 63.384 0 0 1-19.543 5.75z" class="cls-7" transform="translate(-1256.548 -985.238)"/>
                </g>
            </g>
            <path id="Path_4243" fill="url(#linear-gradient-5)" d="M915.376 2025.468a7.653 7.653 0 0 1-6.526-4.646l-15.905-38.2a6.677 6.677 0 0 1 3.667-8.811c3.506-1.406 8.971.25 10.457 3.765l16.318 38.617a6.529 6.529 0 0 1-3.855 8.875 15.946 15.946 0 0 1-4.156.4z" transform="translate(-872.08 -1908.951)"/>
            <path id="Path_4244" fill="url(#linear-gradient-6)" d="M896.611 1973.809c3.506-1.406 8.971.25 10.457 3.765l14.916 35.308c-2.5-.642-5.452-.584-8.29-3.072-4.723-4.141-2.4-9.449-6.143-14.175-1.711-2.161-4.878-4.436-11.323-5.12l-3.286-7.894a6.681 6.681 0 0 1 3.669-8.812z" opacity="0.3" transform="translate(-872.078 -1908.951)"/>
            <path id="Path_4245" fill="url(#linear-gradient-7)" d="M619.9 1799.619a2.944 2.944 0 0 1 .407.029l9.832-.108v25.56l-9.494-.13a3 3 0 0 1-.745.095c-3.37 0-6.1-5.7-6.1-12.724s2.731-12.722 6.1-12.722z" transform="translate(-604.943 -1742.342)"/>
            <path id="Path_4246" fill="url(#linear-gradient-8)" d="M945.348 1272a30.641 30.641 0 0 0 0 25.563l73.132 23.512.755-71.747z" transform="translate(-920.152 -1214.804)"/>
            <path id="Path_4247" fill="url(#linear-gradient-9)" d="M998.719 2047.553c-6.953-2.634-9.114-12.722-17.187-13.062-6.334-.266-8.241 5.884-14.449 5.221-6.353-.679-7.42-7.529-14.535-9.943a16.523 16.523 0 0 0-9.9.033 31.279 31.279 0 0 0 2.685 15.328l73.132 23.513-4.327-24.36c-7.214 4.206-12.048 4.547-15.419 3.27z" opacity="0.3" transform="translate(-920.133 -1962.369)"/>
            <ellipse id="Ellipse_69" cx="17.79" cy="37.101" fill="url(#linear-gradient-10)" rx="17.79" ry="37.101" transform="translate(84.085 33.016)"/>
            <path id="Path_4248" fill="url(#linear-gradient-11)" d="M2522.073 1314.9a9.2 9.2 0 0 0 6.092-2.6 23.553 23.553 0 0 0 5.352-7.551c3.28-6.84 5.087-15.965 5.087-25.69s-1.807-18.849-5.087-25.69a23.531 23.531 0 0 0-5.352-7.551 8.434 8.434 0 0 0-12.183 0 23.555 23.555 0 0 0-5.352 7.551 47.683 47.683 0 0 0-3.317 9.656c-1.158 4.92 2.188 10.056 2.188 15.716 0 6.016-3.266 12.123-1.962 17.281a46.82 46.82 0 0 0 3.09 8.727 23.532 23.532 0 0 0 5.352 7.551 9.2 9.2 0 0 0 6.092 2.6z" transform="translate(-2420.199 -1208.945)"/>
            <g id="Group_4273" clip-path="url(#clip-path-3)" transform="translate(85.344 34.275)">
                <path id="Path_4249" fill="url(#linear-gradient-12)" d="M2273.763 1731.944c0 9.4-6.222 16.863-13.794 16.672-7.452-.187-13.409-7.747-13.409-16.883s5.957-16.606 13.409-16.676c7.57-.072 13.794 7.487 13.794 16.887z" transform="translate(-2255.769 -1695.615)"/>
                <path id="Path_4250" fill="url(#linear-gradient-13)" d="M2569.3 1829.39c0 6.98-3.033 12.522-6.721 12.381-3.631-.139-6.534-5.752-6.534-12.537s2.9-12.329 6.534-12.383c3.692-.051 6.721 5.559 6.721 12.539z" opacity="0.3" transform="translate(-2552.506 -1793.214)"/>
            </g>
            <path id="Path_4252" fill="url(#linear-gradient-14)" d="M2644.88 485.361a10.25 10.25 0 0 0 3-3.018 10.253 10.253 0 0 1-2.663-6.769c0-6.008 5.663-11.05 12.958-11.27 7.462-.226 13.821 4.63 14.146 10.949v.007c0 .078.007.157.01.236v.267a9.791 9.791 0 0 1-.058 1.065c-.016.148-.036.3-.059.444q-.068.443-.177.874-.055.215-.118.427-.041.141-.089.281a11.177 11.177 0 0 1-4.2 5.5l-.127.09a13.8 13.8 0 0 1-2.205 1.248l-.147.066q-.519.227-1.063.418-.233.082-.47.155c-.105.033-.212.065-.318.1q-.24.069-.484.131-.163.041-.326.079a16.073 16.073 0 0 1-4.316.388q-.167-.007-.33-.018l-.1-.007-.234-.018-.1-.01-.227-.022-.1-.011-.234-.028-.083-.011-.247-.035-.064-.009-.272-.044-.037-.006-.3-.055a15.459 15.459 0 0 1-2.451-.68q-.691-.257-1.337-.573c-1.042.811-3.707 2.31-7.178-.141z" transform="translate(-2552.332 -462.118)"/>
            <path id="Path_4253" fill="url(#linear-gradient-15)" d="M2629.41 474.546c0 6.008 5.663 11.128 12.959 11.45 7.661.338 14.159-4.7 14.159-11.262s-6.5-11.691-14.159-11.46c-7.296.226-12.959 5.263-12.959 11.272z" transform="translate(-2537.5 -461.13)"/>
            <path id="Path_4254" fill="url(#linear-gradient-16)" d="M2629.41 474.546c0 6.008 5.663 11.128 12.959 11.45 7.661.338 14.159-4.7 14.159-11.262s-6.5-11.691-14.159-11.46c-7.296.226-12.959 5.263-12.959 11.272z" transform="translate(-2537.5 -461.13)"/>
            <path id="Path_4255" fill="url(#linear-gradient-17)" d="M2628.933 849.2s-3.147 3.476-7.652.293c0 0 3.6-2.238 3.766-5.373z" transform="translate(-2529.705 -826.29)"/>
            <path id="Path_4256" d="M2756.739 600.274a3.871 3.871 0 0 1 3.537-2.706 4.06 4.06 0 0 1 3.893 4.252 4.207 4.207 0 0 1 4-4.347 4.069 4.069 0 0 1 3.815 2.754c2.312 5.9-7.812 11.071-7.812 11.071s-9.497-5.48-7.433-11.024z" class="cls-7" transform="translate(-2659.3 -589.807)"/>
            <g id="Group_4274" opacity="0.3" transform="translate(100.088 6.438)">
                <path id="Path_4257" fill="url(#linear-gradient-18)" d="M2829.4 583.09c1.607-3.281-.017-6.422 2.158-8.553 2.243-2.2 5.207-.124 8.462-1.942a8.8 8.8 0 0 0 3.781-4.924 10.325 10.325 0 0 1 3.008 7.164c0 6.565-6.5 11.6-14.16 11.262a15.794 15.794 0 0 1-4.78-.953 7 7 0 0 0 1.53-2.053z" transform="translate(-2827.87 -567.67)"/>
            </g>
        </g>
    </g>
</svg>
