<svg xmlns="http://www.w3.org/2000/svg" xmlns:xlink="http://www.w3.org/1999/xlink" width="118.005" height="112.05" viewBox="0 0 118.005 112.05">
    <defs>
        <linearGradient id="linear-gradient" x2="1" y1=".5" y2=".5" gradientUnits="objectBoundingBox">
            <stop offset="0" stop-color="#311944"/>
            <stop offset="1" stop-color="#893976"/>
        </linearGradient>
        <linearGradient id="linear-gradient-3" x1=".78" x2="-.177" y1="-.462" y2="2.769" gradientUnits="objectBoundingBox">
            <stop offset="0" stop-color="#ffc444"/>
            <stop offset="1" stop-color="#f36f56"/>
        </linearGradient>
        <linearGradient id="linear-gradient-4" x1="6.138" x2="6.668" y1="1.59" y2="1.59" gradientUnits="objectBoundingBox">
            <stop offset="0" stop-color="#ffc444"/>
            <stop offset=".31" stop-color="#fba94a"/>
            <stop offset="1" stop-color="#f36f56"/>
        </linearGradient>
        <linearGradient id="linear-gradient-5" x1="22.828" x2="23.758" y1="15.423" y2="15.423" xlink:href="#linear-gradient-4"/>
        <linearGradient id="linear-gradient-6" x1="26.466" x2="27.376" y1="16.004" y2="16.004" xlink:href="#linear-gradient-4"/>
        <linearGradient id="linear-gradient-7" x1="36.403" x2="37.271" y1="17.306" y2="17.306" xlink:href="#linear-gradient-4"/>
        <linearGradient id="linear-gradient-8" x1="34.514" x2="35.544" y1="16.119" y2="16.119" xlink:href="#linear-gradient-4"/>
        <linearGradient id="linear-gradient-9" x1="50.83" x2="52.067" y1="17.023" y2="17.023" xlink:href="#linear-gradient-4"/>
        <linearGradient id="linear-gradient-10" x1="7.002" x2="7.23" y1="1.592" y2="1.592" xlink:href="#linear-gradient-4"/>
        <linearGradient id="linear-gradient-11" x2="1" y1=".5" y2=".5" gradientUnits="objectBoundingBox">
            <stop offset="0" stop-color="#e38ddd"/>
            <stop offset="1" stop-color="#9571f6"/>
        </linearGradient>
        <linearGradient id="linear-gradient-12" x1="14.914" x2="15.014" y1="13.371" y2="15.004" xlink:href="#linear-gradient-11"/>
        <linearGradient id="linear-gradient-13" x1="12.852" x2="14.071" y1="6.073" y2="8.845" xlink:href="#linear-gradient-11"/>
        <linearGradient id="linear-gradient-14" x2="1" y1=".5" y2=".5" gradientUnits="objectBoundingBox">
            <stop offset="0" stop-color="#b7de68"/>
            <stop offset="1" stop-color="#9c3"/>
        </linearGradient>
        <linearGradient id="linear-gradient-15" x1="10.475" x2="11.425" y1="15.288" y2="15.288" xlink:href="#linear-gradient-14"/>
        <linearGradient id="linear-gradient-16" x1="8.72" x2="9.902" y1="5.574" y2="5.574" xlink:href="#linear-gradient-14"/>
        <linearGradient id="linear-gradient-17" x1="14.529" x2="19.51" y1="6.51" y2="4.587" xlink:href="#linear-gradient-3"/>
        <linearGradient id="linear-gradient-18" x1="0" x2="1" y1=".5" y2=".5" xlink:href="#linear-gradient-14"/>
        <linearGradient id="linear-gradient-19" x1="15.133" x2="15.982" y1="16.379" y2="16.379" xlink:href="#linear-gradient-14"/>
        <linearGradient id="linear-gradient-20" x1="0" x2="1" y1=".5" y2=".5" xlink:href="#linear-gradient-11"/>
        <linearGradient id="linear-gradient-21" x1="20.894" x2="22.171" y1="8.951" y2="8.951" xlink:href="#linear-gradient-11"/>
        <linearGradient id="linear-gradient-22" x1="0" x2="1" y1=".5" y2=".5" xlink:href="#linear-gradient-14"/>
        <linearGradient id="linear-gradient-23" x1="12.29" x2="13.207" y1="9.417" y2="9.417" xlink:href="#linear-gradient-14"/>
        <linearGradient id="linear-gradient-24" x1="31.869" x2="31.83" y1="26.352" y2="29.723" xlink:href="#linear-gradient-3"/>
        <linearGradient id="linear-gradient-25" x1=".477" x2=".555" y1="1.506" y2="-1.696" gradientUnits="objectBoundingBox">
            <stop offset="0" stop-color="#aa80f9"/>
            <stop offset="1" stop-color="#6165d7"/>
        </linearGradient>
        <linearGradient id="linear-gradient-26" x1=".208" x2=".894" y1=".496" y2=".511" gradientUnits="objectBoundingBox">
            <stop offset="0" stop-color="#ebeff2"/>
            <stop offset="1" stop-color="#fff"/>
        </linearGradient>
        <linearGradient id="linear-gradient-28" x1=".248" x2=".663" y1=".336" y2=".612" xlink:href="#linear-gradient-26"/>
        <linearGradient id="linear-gradient-29" x1="0" x2="1" y1=".5" y2=".5" xlink:href="#linear-gradient-26"/>
        <linearGradient id="linear-gradient-30" x1="0" x2="1" y1=".5" y2=".5" xlink:href="#linear-gradient-26"/>
        <linearGradient id="linear-gradient-31" x1="0" x2="1" y1=".5" y2=".5" xlink:href="#linear-gradient-26"/>
        <linearGradient id="linear-gradient-32" x1="0" x2="1" y1=".5" y2=".5" xlink:href="#linear-gradient-26"/>
        <linearGradient id="linear-gradient-33" x1=".461" x2=".586" y1="1.297" y2="-1.443" xlink:href="#linear-gradient-26"/>
        <linearGradient id="linear-gradient-34" x1="0" x2="1" y1=".5" y2=".5" xlink:href="#linear-gradient"/>
        <linearGradient id="linear-gradient-35" x2="1" y1=".5" y2=".5" gradientUnits="objectBoundingBox">
            <stop offset="0" stop-color="#ff9085"/>
            <stop offset="1" stop-color="#fb6fbb"/>
        </linearGradient>
        <linearGradient id="linear-gradient-37" x1=".342" x2="1.168" y1=".665" y2="-.105" xlink:href="#linear-gradient-35"/>
        <linearGradient id="linear-gradient-38" x1=".294" x2=".908" y1=".71" y2=".142" xlink:href="#linear-gradient-35"/>
        <linearGradient id="linear-gradient-39" x1=".386" x2="1.092" y1=".647" y2="-.008" xlink:href="#linear-gradient-35"/>
        <linearGradient id="linear-gradient-40" x1="-4.523" x2="-4.969" y1="-2.98" y2="-2.177" gradientUnits="objectBoundingBox">
            <stop offset="0" stop-color="#21633c"/>
            <stop offset="1" stop-color="#3aa668"/>
        </linearGradient>
        <linearGradient id="linear-gradient-41" x1="-11.66" x2="-11.66" y1="-6.154" y2="-3.327" xlink:href="#linear-gradient-40"/>
        <linearGradient id="linear-gradient-42" x1="0" x2="1" y1=".5" y2=".5" xlink:href="#linear-gradient-3"/>
        <linearGradient id="linear-gradient-43" x1="-.416" x2=".839" y1=".5" y2=".5" xlink:href="#linear-gradient-3"/>
        <linearGradient id="linear-gradient-46" x1=".641" x2="-.421" y1=".148" y2="2.372" xlink:href="#linear-gradient-3"/>
        <style>
            .cls-1{fill:#c2c2c2}.cls-2{fill:url(#linear-gradient)}.cls-15{opacity:.3}.cls-23{fill:url(#linear-gradient-22)}.cls-27{fill:#d8dee8}.cls-30{fill:#e6e6e6}
        </style>
    </defs>
    <g id="KlikGO_Illustrations-07" transform="translate(-46.34 -41.039)">
        <g id="Layer_2" transform="translate(46.34 41.039)">
            <g id="Illustration">
                <path id="Path_4425" d="M1051.826 1313.294a1.2 1.2 0 0 1-1.152-.871l-13.646-47.749a1.2 1.2 0 1 1 2.3-.659l13.645 47.748a1.2 1.2 0 0 1-1.153 1.529z" class="cls-1" transform="translate(-1007.096 -1209.388)"/>
                <path id="Path_4426" d="M1289 1293.338a1.2 1.2 0 0 1-1.178-.989l-8.417-47.3a1.2 1.2 0 1 1 2.36-.42l8.417 47.3a1.2 1.2 0 0 1-.97 1.389 1.149 1.149 0 0 1-.211.019z" class="cls-1" transform="translate(-1230.307 -1191.428)"/>
                <path id="Path_4427" d="M1496.455 1279.576h-.051a1.2 1.2 0 0 1-1.147-1.247l1.942-46.8a1.174 1.174 0 0 1 1.248-1.148 1.2 1.2 0 0 1 1.147 1.248l-1.942 46.8a1.2 1.2 0 0 1-1.197 1.147z" class="cls-1" transform="translate(-1429.092 -1179.217)"/>
                <path id="Path_4428" d="M783.653 1335.137a1.2 1.2 0 0 1-1.136-.818l-16.025-47.77a1.2 1.2 0 0 1 2.273-.762l16.022 47.77a1.2 1.2 0 0 1-.755 1.518 1.216 1.216 0 0 1-.379.062z" class="cls-1" transform="translate(-757.962 -1229.484)"/>
                <path id="Path_4440" d="M815.32 1162.449l57.916-4.979v48.871z" class="cls-2" transform="translate(-802.982 -1112.078)"/>
                <path id="Path_4441" d="M1546.92 1157.47l32 10.26-32 8.817z" class="cls-2" transform="translate(-1476.666 -1112.078)"/>
                <path id="Path_4442" fill="url(#linear-gradient-3)" d="M1546.2 1087.625l16-6 31.808 9.729-15.809 6.536z" transform="translate(-1476.002 -1042.232)"/>
                <path id="Path_4443" fill="url(#linear-gradient-4)" d="M1302.767 635.646c-7.9 25.742-11.63 43.943-18.588 41.808a3.937 3.937 0 0 1-1.53-.906c-1.767-1.639-2.8-5.094-3.121-9.856a57.861 57.861 0 0 1-.04-6.412c.122-2.715.4-5.674.832-8.827.287-2.083.554-4.275.983-6.511.7-3.721 1.694-7.616 2.528-11.729l.005-.02v-.008l1.917-6.246a82.785 82.785 0 0 1 3.337-9.511.739.739 0 0 1 .032-.079c.142-.462.294-.917.46-1.362.015-.047.035-.1.053-.142.281-.778.591-1.536.91-2.282.038-.095.079-.185.115-.277l.816-1.908.051-.126c1.548-3.7 3.156-7.133 4.781-10.223 1.084-2.066 2.179-3.978 3.266-5.717 4.908-7.837 9.7-12.158 13.2-11.083a2.451 2.451 0 0 1 .293.107c6.408 2.707-2.517 25.936-10.3 51.31z" transform="translate(-1230.339 -584.067)"/>
                <path id="Path_4444" fill="url(#linear-gradient-5)" d="M1501.732 731.25c-.529 1.726-3.786 2.264-7.269 1.2a12.424 12.424 0 0 1-1.662-.638c1.084-2.066 2.179-3.978 3.266-5.717.107.029.213.061.317.093 3.483 1.064 5.88 3.332 5.348 5.062z" opacity="0.4" transform="translate(-1426.83 -714.847)"/>
                <path id="Path_4445" fill="url(#linear-gradient-6)" d="M1408.859 933.975c-.53 1.727-3.776 2.232-7.26 1.164-.208-.063-.428-.079-.629-.158.782-2.1 1.618-4.144 2.418-6.04l.1.032c3.486 1.069 5.901 3.272 5.371 5.002z" opacity="0.4" transform="translate(-1342.269 -901.639)"/>
                <path id="Path_4446" fill="url(#linear-gradient-7)" d="M1340.978 1132.29c-.456 1.487-2.941 2.091-5.848 1.546l.006-.02v-.008l1.865-6.078c2.717 1.176 4.436 3.07 3.977 4.56z" opacity="0.4" transform="translate(-1281.642 -1084.692)"/>
                <path id="Path_4447" fill="url(#linear-gradient-8)" d="M1297.114 1358.078c-.481 1.566-3.2 2.153-6.3 1.453.287-2.083.554-4.275.983-6.511 3.461 1.073 5.846 3.332 5.317 5.058z" opacity="0.4" transform="translate(-1240.83 -1292.147)"/>
                <path id="Path_4448" fill="url(#linear-gradient-9)" d="M1283.746 1551.479c-.369 1.2-2.058 1.828-4.219 1.734a57.832 57.832 0 0 1-.04-6.412c2.879 1.163 4.732 3.136 4.259 4.678z" opacity="0.4" transform="translate(-1230.339 -1470.587)"/>
                <path id="Path_4449" fill="url(#linear-gradient-10)" d="M1340.358 638.752c-7.9 25.742-11.63 43.943-18.589 41.808a3.937 3.937 0 0 1-1.53-.906c1.2-1.986 3.054-4.416 5.105-7.332 4.146-5.906 9.871-22.166 11.752-35.435s8.732-32.679 12.169-42.544a19.5 19.5 0 0 0 1.394-6.9c6.407 2.707-2.518 25.936-10.301 51.309z" opacity="0.4" transform="translate(-1267.93 -587.173)"/>
                <path id="Path_4450" fill="url(#linear-gradient-11)" d="M1422.705 1357.608a8.5 8.5 0 0 0 .055 2.742 3.156 3.156 0 0 0 1.121 2.3 2.523 2.523 0 0 0 .53.3 2.96 2.96 0 0 1 .644.247c.3.219.429.688.667.974a3.309 3.309 0 0 0 2.257 1.179 1.906 1.906 0 0 1 .633.122 3.366 3.366 0 0 1 .581.457 1.95 1.95 0 0 0 1.224.418 4.51 4.51 0 0 0 1.256-.226c.48-.142.958-.287 1.437-.431s.959-.277 1.432-.431a2.8 2.8 0 0 0 1.081-.583 2.85 2.85 0 0 0 .622-1.127 1.457 1.457 0 0 1 .317-.554 1.286 1.286 0 0 1 .579-.237 4.205 4.205 0 0 0 2.173-1.151 2.539 2.539 0 0 0 .655-2.068c-.01-.066-.025-.13-.04-.2a.367.367 0 0 0 .176-.2 3.736 3.736 0 0 0-1.359-4.166 6.517 6.517 0 0 0-1.156-.554c-.386-.17-.572-.554-.847-.851a2.216 2.216 0 0 0-2.161-.464 1.882 1.882 0 0 1-1.053-.056c-.4-.169-.746-.435-1.141-.607a2.122 2.122 0 0 0-1.267-.163 9.138 9.138 0 0 1-1.154.275 5.252 5.252 0 0 1-1.293-.278 4.353 4.353 0 0 0-1.187-.067 4.173 4.173 0 0 0-2.313.895 2.6 2.6 0 0 0-.806 1.069 2.7 2.7 0 0 0-.141.656 1 1 0 0 1-.158.554 6.068 6.068 0 0 1-.492.462 2.853 2.853 0 0 0-.407.522 3.58 3.58 0 0 0-.465 1.242z" transform="translate(-1362.201 -1291.385)"/>
                <path id="Path_4451" fill="url(#linear-gradient-12)" d="M1423.719 1397.42c.755 1.419 1.662 2.771 2.4 4.205a5.789 5.789 0 0 0 2.1 1.831 3.268 3.268 0 0 0 2.86.108c1.821-.672 2.958-2.338 5.005-2.571a10.331 10.331 0 0 1 3.963.276 2.547 2.547 0 0 1-.666 1.985 4.191 4.191 0 0 1-2.173 1.151 1.389 1.389 0 0 0-.579.238 1.292 1.292 0 0 0-.317.554 2.23 2.23 0 0 1-1.7 1.71c-.475.158-.955.288-1.432.431s-.957.289-1.437.431a4.364 4.364 0 0 1-1.256.226 1.947 1.947 0 0 1-1.224-.418 3.387 3.387 0 0 0-.581-.457 1.922 1.922 0 0 0-.633-.122 3.309 3.309 0 0 1-2.257-1.179c-.238-.286-.366-.755-.667-.974a3.183 3.183 0 0 0-.645-.247 2.548 2.548 0 0 1-.53-.3 3.154 3.154 0 0 1-1.121-2.3 8.5 8.5 0 0 1-.055-2.742 3.578 3.578 0 0 1 .463-1.24 2.854 2.854 0 0 1 .407-.522.44.44 0 0 1 .075-.074z" opacity="0.3" transform="translate(-1362.265 -1333.032)"/>
                <path id="Path_4452" fill="url(#linear-gradient-13)" d="M1368.222 1212.187a5.122 5.122 0 0 0-2.995-1.724 3.008 3.008 0 0 0-1.154-3.219 4.426 4.426 0 0 0-4.423-.183 5.271 5.271 0 0 0-6.589 6.74 3.463 3.463 0 0 0-2.349 2.343 3.67 3.67 0 0 0 1.318 3.866 21.815 21.815 0 0 0 1.875 1.241 7.565 7.565 0 0 1 1.642 1.639 5.1 5.1 0 0 0 4.166 1.833 5 5 0 0 0 3.576-1.889 4.049 4.049 0 0 0 2.888.377 4.689 4.689 0 0 0 3.167-2.51 8.253 8.253 0 0 0-1.122-8.514z" transform="translate(-1295.864 -1157.281)"/>
                <path id="Path_4453" fill="url(#linear-gradient-14)" d="M1451.093 1088.573a8.38 8.38 0 0 0 3.958-1.821c1.164-1.161.968-3.507 1.441-4.1s1.867-1.014 2.776-2.137c1.318-1.623 1.75-3.857.8-5.225-.409-.59-1.606-1.535-1.443-2.4a4.732 4.732 0 0 0 1.351-3.852 6.557 6.557 0 0 0-5.524-6.149c-.815-.475-.713-2.3-2.844-3.183s-3.471.475-4.249.025a10.3 10.3 0 0 0-4.556-1.64 7.822 7.822 0 0 0-5.964 2.74 8.5 8.5 0 0 0-1.036 1.425c-.124.21-.158.287-.4.3-.286.013-.564.01-.854.04a7.616 7.616 0 0 0-3.158.9 6.88 6.88 0 0 0-3.1 5.269c-.119 1.844 1.729 5.146 1.534 5.7s-2.1 2.354-2.015 4.563a7.071 7.071 0 0 0 4.045 6.356c1.121.542 4.215 1.258 5.032 1.8s.656 3.167 1.939 4.335c1.392 1.267 2.918 1.181 5.055.572 1.157-.328 1.854-.176 2.81-.969a3.86 3.86 0 0 0 3.475-1.172c.426-.407.175-1.271.927-1.377z" transform="translate(-1366.988 -1020.562)"/>
                <g id="Group_4386" class="cls-15" transform="translate(60.83 37.525)">
                    <path id="Path_4454" fill="url(#linear-gradient-15)" d="M1553.78 1065.694c-2.934-.422-5.056 2.023-7.783 2.364s-3.379-3.232-4.877-5.069a3.954 3.954 0 0 0-1.932-1.525 6.934 6.934 0 0 0-3.309-.057 7.071 7.071 0 0 1 .475-.576 7.823 7.823 0 0 1 5.964-2.741 10.226 10.226 0 0 1 4.556 1.64c.776.452 2.118-.906 4.249-.025s2.029 2.709 2.843 3.183a6.5 6.5 0 0 1 5.383 5.161l-.173-.132a10.445 10.445 0 0 0-5.396-2.223z" transform="translate(-1527.33 -1058.088)"/>
                    <path id="Path_4455" fill="url(#linear-gradient-16)" d="M1431.45 1117.549a6.25 6.25 0 0 1 2.156-.759c-1.151.975-2.783 2.264-2.02 3.651 1.267 2.32 3.93 3.779 4.684 6.514.772 2.917-2.1 4.741-4.433 5.827a1.379 1.379 0 0 0-.6 1.94 6.7 6.7 0 0 0 4.75 4.21c5.107 1.051 9.939-.4 15.1-.732 1.367-.124 2.561.871 3.6 1.649.487-.432.957-.881 1.415-1.342a4.362 4.362 0 0 1-.986 2.3 8.375 8.375 0 0 1-3.958 1.821c-.748.1-.5.971-.918 1.378a3.863 3.863 0 0 1-3.475 1.172c-.956.792-1.654.64-2.81.969-2.137.609-3.663.692-5.055-.573-1.282-1.165-1.122-3.788-1.939-4.335s-3.911-1.262-5.032-1.8a7.067 7.067 0 0 1-4.045-6.356c-.087-2.209 1.821-4.011 2.015-4.563s-1.653-3.855-1.534-5.7a6.865 6.865 0 0 1 3.085-5.271z" transform="translate(-1427.874 -1112.143)"/>
                </g>
                <path id="Path_4456" fill="url(#linear-gradient-17)" d="M1509.311 1206.723c7.52 6.028 9.665 16.87 9.665 16.87l7-4.382c-9.591-11.01-7.354-15.557-7.435-20.26 0 0-.583-1.145-.988.169a19.569 19.569 0 0 0-.028 6.629c-2.265-3.353-1.909-6.282-2.7-7.178-.268-.3-1.014-.219-1.014-.219a58.807 58.807 0 0 0 5.4 16.466s-4.806-8.336-7.506-10.223c-.5-.343-.853.089-.449.886a25.706 25.706 0 0 1 2.6 3.888c-2.413-2.088-2.817-2.59-3.668-3.3s-1.265-.139-.877.654z" transform="translate(-1441.9 -1149.712)"/>
                <path id="Path_4457" fill="url(#linear-gradient-18)" d="M1704.891 1185.619a2.517 2.517 0 0 0 1.809-2.093 5.189 5.189 0 0 0-.8-3.576 5.392 5.392 0 0 0-5.709-2.31 2.205 2.205 0 0 0-1.746-1.21 2.074 2.074 0 0 0-1.727.713 3.944 3.944 0 0 0-1.139.1 2.205 2.205 0 0 0-1.7 1.979c-1.262.456-1.935 2.035-2.025 3.308a3.222 3.222 0 0 0 .752 2.589c.284.276.665.333.7.762a3.883 3.883 0 0 0 .238 1.188 3.588 3.588 0 0 0 1.63 1.777 3.229 3.229 0 0 0 1.013.339 11.388 11.388 0 0 1 1.266.015 2.543 2.543 0 0 1 .607.423 2.56 2.56 0 0 0 1.716.49 4.682 4.682 0 0 0 2.137-.757c1.327-.808 2.75-2.125 2.978-3.737z" transform="translate(-1610.11 -1129.531)"/>
                <path id="Path_4458" fill="url(#linear-gradient-19)" d="M1694 1243.618c.357.381.879 1.069 1.136.861 2.345-2.006 5.371-.581 7.991-.084 1.541.273 2.353-1.41 2.8-2.554a8.789 8.789 0 0 0 .546-1.742 4.7 4.7 0 0 1 .127 2.058 2.514 2.514 0 0 1-1.809 2.093c-.227 1.613-1.651 2.929-2.989 3.739a4.675 4.675 0 0 1-2.137.757 2.559 2.559 0 0 1-1.716-.49 2.542 2.542 0 0 0-.607-.423 11.392 11.392 0 0 0-1.266-.015 3.222 3.222 0 0 1-1.013-.339 3.588 3.588 0 0 1-1.631-1.777 4 4 0 0 1-.238-1.187c-.035-.428-.416-.485-.7-.761a3.221 3.221 0 0 1-.752-2.59c0-.067.012-.135.02-.2.738.874 1.43 1.778 2.238 2.654z" opacity="0.3" transform="translate(-1610.008 -1188.166)"/>
                <path id="Path_4459" fill="url(#linear-gradient-20)" d="M1378.129 1234.892a9.784 9.784 0 0 0-2.8-1.442 3.619 3.619 0 0 0-2.929-.123 2.984 2.984 0 0 0-.6.37 3.564 3.564 0 0 1-.6.515c-.385.184-.929.058-1.346.141a3.8 3.8 0 0 0-2.422 1.636 2.223 2.223 0 0 1-.47.575 3.882 3.882 0 0 1-.779.337 2.239 2.239 0 0 0-1.091 1.007 4.953 4.953 0 0 0-.458 1.391q-.179.843-.351 1.686c-.113.562-.244 1.119-.346 1.681a3.185 3.185 0 0 0 0 1.409 3.294 3.294 0 0 0 .8 1.243 1.531 1.531 0 0 1 .38.624 1.565 1.565 0 0 1-.074.713 4.846 4.846 0 0 0-.026 2.821 2.9 2.9 0 0 0 1.73 1.792c.072.025.145.047.219.066a.422.422 0 0 0 .11.289 4.286 4.286 0 0 0 4.946.9 7.19 7.19 0 0 0 1.187-.864 3.323 3.323 0 0 1 1.322-.391c.976-.249 1.332-1.061 1.647-1.927a2.127 2.127 0 0 1 .633-1.029c.388-.309.845-.516 1.236-.819a2.434 2.434 0 0 0 .855-1.187 10.027 10.027 0 0 1 .353-1.314 6.036 6.036 0 0 1 .987-1.153 4.977 4.977 0 0 0 .718-1.165 4.788 4.788 0 0 0 .36-2.824 2.981 2.981 0 0 0-.639-1.4 3.078 3.078 0 0 0-.585-.5 1.16 1.16 0 0 1-.475-.468 6.936 6.936 0 0 1-.2-.749 3.206 3.206 0 0 0-.3-.7 4.1 4.1 0 0 0-.992-1.141z" transform="translate(-1308.101 -1181.687)"/>
                <path id="Path_4460" fill="url(#linear-gradient-21)" d="M1366.2 1253.847a3.826 3.826 0 0 0 .779-.337 2.192 2.192 0 0 0 .469-.575 3.849 3.849 0 0 1 1.834-1.465l-.189.3a2.17 2.17 0 0 0-.223.572c-.829 1.5-2.329 3.2-1.5 4.733.4.838 1.533 1.194 1.973 1.979.747 1.127.283 2.594.539 3.9.133.95-.041 2.072 1.054 2.478a8.772 8.772 0 0 0 5.638.084 2.9 2.9 0 0 0-.378.769c-.317.871-.671 1.678-1.647 1.928a3.323 3.323 0 0 0-1.322.39 7.316 7.316 0 0 1-1.187.864 4.286 4.286 0 0 1-4.947-.9.421.421 0 0 1-.11-.289c-.074-.019-.147-.04-.219-.066a2.911 2.911 0 0 1-1.73-1.791 4.827 4.827 0 0 1 .026-2.821 1.57 1.57 0 0 0 .074-.712 1.542 1.542 0 0 0-.38-.624 3.269 3.269 0 0 1-.8-1.243 3.32 3.32 0 0 1 0-1.409c.1-.562.23-1.121.346-1.681s.231-1.124.351-1.686a5.014 5.014 0 0 1 .458-1.391 2.237 2.237 0 0 1 1.091-1.007z" transform="translate(-1308.118 -1198.636)"/>
                <path id="Path_4461" d="M1523.3 1109.726a5.32 5.32 0 0 0-3.4 1.108 3.112 3.112 0 0 0-3.273-1.339 4.584 4.584 0 0 0-3.2 3.275 5.644 5.644 0 0 0-2.426 2.993 5.585 5.585 0 0 0 3.052 6.734 3.583 3.583 0 0 0 .177 3.427 3.8 3.8 0 0 0 3.885 1.662 21.823 21.823 0 0 0 2.251-.583 7.845 7.845 0 0 1 2.4-.129 5.269 5.269 0 0 0 4.29-1.932 5.166 5.166 0 0 0 1.02-4.056 4.176 4.176 0 0 0 2.287-1.959 4.859 4.859 0 0 0 .262-4.174 8.54 8.54 0 0 0-7.325-5.027z" class="cls-23" transform="translate(-1443.351 -1067.834)"/>
                <path id="Path_4462" fill="url(#linear-gradient-23)" d="M1512.328 1139.492c.771 1.906 2.96 2.217 4.841 2.179 2.2-.108 3.1 2.246 4.849 3.281a.828.828 0 0 0 1.053-.05c1.5-1.609 1.127-3.78.895-5.827-.166-.812.475-1.376 1.276-1.633a2.25 2.25 0 0 1 1.856.7 6.329 6.329 0 0 0 .5-6.617 7.875 7.875 0 0 1 3.018 3.581 4.866 4.866 0 0 1-.262 4.174 4.186 4.186 0 0 1-2.287 1.959 5.162 5.162 0 0 1-1.021 4.056 5.269 5.269 0 0 1-4.29 1.931 7.826 7.826 0 0 0-2.4.129 21.934 21.934 0 0 1-2.251.583 3.794 3.794 0 0 1-3.885-1.662 3.583 3.583 0 0 1-.177-3.427 5.58 5.58 0 0 1-3.052-6.734 5.5 5.5 0 0 1 1.3-2.1 7.69 7.69 0 0 0 .037 5.477z" opacity="0.3" transform="translate(-1443.334 -1088.191)"/>
                <path id="Path_4463" fill="url(#linear-gradient-24)" d="M1639.026 1457.7c-.983-.818-7.225 1.941-7 4.382s8.935-2.762 7-4.382z" transform="translate(-1555.026 -1388.409)"/>
                <path id="Path_4464" fill="url(#linear-gradient-25)" d="M1077.511 840.348l-20.381-.128v-3.89a.709.709 0 0 1 .778-.647l18.841.712a.733.733 0 0 1 .764.663z" transform="translate(-1025.649 -815.764)"/>
                <path id="Path_4465" d="M1080.344 840.32l-20.4-.961V836.3a.708.708 0 0 1 .779-.647l18.861.713a.733.733 0 0 1 .764.663z" class="cls-27" transform="translate(-1028.237 -815.735)"/>
                <path id="Path_4466" d="M1206.334 1074.545l-19.954 1.109v-54.36l19.954-1.534z" class="cls-27" transform="translate(-1144.667 -985.269)"/>
                <path id="Path_4467" fill="url(#linear-gradient-26)" d="M1199.753 1103.536c-5.095 1.289 2.882 7.9-1.62 9.286-3.574 1.1-3.148-8.857-6.418-6.031-3.313 2.862 1.085 11.4 3.314 17.95 2.209 6.5 2.325 15.876-4.325 14.232a13.684 13.684 0 0 1-4.354-1.879v15.516l19.954-1.108v-45.756a6.419 6.419 0 0 0-6.551-2.21z" transform="translate(-1144.64 -1062.226)"/>
                <path id="Path_4468" d="M954.211 1046.887l-19.942-4.135-.029-54.233 19.971 4.007z" class="cls-23" transform="translate(-912.487 -956.502)"/>
                <path id="Path_4469" fill="url(#linear-gradient-28)" d="M954.882 890.875l-19.972-4.168 10.072-8.767z" transform="translate(-913.104 -854.676)"/>
                <g id="Group_4387" class="cls-15" transform="translate(21.806 23.264)">
                    <path id="Path_4470" d="M944.982 877.94l-10.072 8.767 11.869-6.42z" class="cls-30" transform="translate(-934.91 -877.94)"/>
                </g>
                <path id="Path_4471" d="M934.51 1451.918l.006 12.688 19.943 4.135v-15.48c-3.072-2.508-4.553-5.188-9.927-6.463-3.707-.88-7.371 2.06-10.022 5.12z" class="cls-27" transform="translate(-912.736 -1378.356)"/>
                <path id="Path_4472" fill="url(#linear-gradient-29)" d="M967.891 1268.314v.021l3.246 2.209v1.7l-3.246.573v.021l5.212 1.346v1.78l-8.44-2.217v-1.884l4.93-.85v-.022l-4.932-3.332v-1.929l8.444 2.041v1.826z" transform="translate(-940.499 -1211.767)"/>
                <path id="Path_4473" fill="url(#linear-gradient-30)" d="M973.074 1221.3l-8.444-2v-2.026l8.444 1.958z" transform="translate(-940.472 -1167.143)"/>
                <path id="Path_4474" fill="url(#linear-gradient-31)" d="M964.59 1148.533l6.787 1.513v-3.4l1.662.356v5.347l-8.445-1.922z" transform="translate(-940.435 -1102.114)"/>
                <path id="Path_4475" fill="url(#linear-gradient-32)" d="M964.541 1034.558l3.579.739v-.021l-3.58-3.138V1030l4.007 3.63 4.441-2.092v2.183l-4.012 1.73v.022l4.013.828v1.882l-8.447-1.783z" transform="translate(-940.389 -994.698)"/>
                <path id="Path_4476" fill="url(#linear-gradient-33)" d="M1060.86 879.29h20.331l9.56 11.12-19.889 1.708z" transform="translate(-1029.084 -855.919)"/>
                <path id="Path_4477" d="M1070.846 892.035l-9.986-12.745 1.227 3.711z" class="cls-30" transform="translate(-1029.084 -855.919)"/>
                <path id="Path_4478" fill="url(#linear-gradient-34)" d="M1319.225 1062.1a.961.961 0 0 0-.62-.549 1.626 1.626 0 0 0-1.737.866c-1.583 2.733-.158 9.489-.158 9.489h1.066c-.55-4.926.623-7.338 1.41-8.815a1.348 1.348 0 0 0 .039-.991z" transform="translate(-1264.138 -1023.71)"/>
                <path id="Path_4479" fill="url(#linear-gradient-35)" d="M1208.762 1167.006a65.028 65.028 0 0 1-1.435 6.808 19.212 19.212 0 0 1-3.443 7.193c-2.627 3.087-5.253 1.37-11.192 1.37-3.818 0-5.046-1.648-7.1-4.517-2.327-3.246-5.23-5.975-6.146-10-.838-3.691.564-7.806 3.721-8.787.919-1.149 1.988-.792 3.193-.74.932.042 1.821.007 2.682.026a17.242 17.242 0 0 0 6.064-.829c3.108-1.036 10.152-2.753 12.574.617 1.649 2.285 1.52 6.253 1.082 8.859z" transform="translate(-1138.062 -1110.868)"/>
                <path id="Path_4480" fill="url(#linear-gradient-35)" d="M1207.327 1207.676a19.211 19.211 0 0 1-3.443 7.193c-2.627 3.087-5.253 1.37-11.192 1.37-3.818 0-5.046-1.648-7.1-4.517-2.327-3.246-5.23-5.975-6.146-10-.838-3.691.564-7.805 3.721-8.787s-3.893 9.544 3.187 11.543 7.595 10.025 13.876 6.541a35.218 35.218 0 0 1 7.097-3.343z" opacity="0.3" transform="translate(-1138.062 -1144.73)"/>
                <path id="Path_4481" fill="#fff" d="M1421.949 1182.289s-5.711-.968-4 3.151 6.4 8.075 8 5.24-.689-7.326-4-8.391z" opacity="0.5" transform="translate(-1357.611 -1134.84)"/>
                <g id="Group_4434" transform="translate(64.728 45.512)">
                    <path id="Path_4487" fill="url(#linear-gradient-37)" d="M1796.985 1693.125a10 10 0 0 0-2.137-3.377 8.265 8.265 0 0 0-3.376-2.018 13.318 13.318 0 0 0-10.059.849c-3.8 2.122-5.117 4.648-5.372 7.362a9.832 9.832 0 0 0 2.019 7.023 9.531 9.531 0 0 0 2.825 2.472 9.7 9.7 0 0 0 3.833 1.141c4.661.455 11.035-.841 12.733-5.925a11.141 11.141 0 0 0-.466-7.527z" transform="translate(-1775.989 -1684.74)"/>
                    <path id="Path_4488" fill="url(#linear-gradient-38)" d="M1796.127 1711.049c-.923-.462-.83-1.754-1.569-2.308-1.476-1.108-3.508.184-5.261.369-3.046.277-5.541-1.662-7.2-3.969-1.384-1.938-.461-4.433.185-6.554a8.809 8.809 0 0 1 .607-1.437 11.411 11.411 0 0 0-1.492.667c-3.8 2.122-5.117 4.649-5.372 7.362a9.83 9.83 0 0 0 2.02 7.022 9.524 9.524 0 0 0 2.824 2.471 9.7 9.7 0 0 0 3.833 1.142c4.249.415 9.92-.626 12.175-4.663a2.161 2.161 0 0 1-.75-.102z" opacity="0.25" transform="translate(-1775.97 -1693.978)"/>
                    <path id="Path_4489" fill="url(#linear-gradient-39)" d="M1859.821 1693.126a10 10 0 0 0-2.137-3.377 8.269 8.269 0 0 0-3.376-2.018 13.472 13.472 0 0 0-8.567.182 8.827 8.827 0 0 0-.607 1.437c-.646 2.123-1.569 4.616-.184 6.554 1.662 2.308 4.154 4.246 7.2 3.969 1.753-.185 3.785-1.477 5.261-.369.739.554.646 1.846 1.569 2.308a2.153 2.153 0 0 0 .75.1 7.361 7.361 0 0 0 .554-1.262 11.148 11.148 0 0 0-.463-7.524z" transform="translate(-1838.824 -1684.741)"/>
                    <path id="Path_4490" fill="url(#linear-gradient-40)" d="M1847.82 1663.517a5.283 5.283 0 0 1 2.829-1.1c2.209-.158 2.922.742 2.922.742s.261-.361-1.37-2.1a4.031 4.031 0 0 1-.778-3.979 10.475 10.475 0 0 0 1.177 2.745c.735 1.064 1.947.882 2.426 2.5a2.46 2.46 0 0 0 .645-2.062 5.289 5.289 0 0 1 .123-2.521 6.006 6.006 0 0 0 1.2 2.387c1.011 1.3-.1 2.89-.449 3.345a2.393 2.393 0 0 1 2.478.1c1.51.8 3.939-.882 3.939-.882s-1.174 1.759-2.528 1.964c-2.779.628-4.13-.18-4.13-.18s-.494.347 1.256 1.688-.066 3.454-.066 3.454a4.213 4.213 0 0 0-1.284-3c-1.267-.948-1.792-1.44-1.792-1.44s-3.038.475-2.731 2.454a8.68 8.68 0 0 0 1.04 2.436s-2.538-.955-2.405-2.748 2.4-3.043 2.4-3.043a5.779 5.779 0 0 0-2.184-.834 12.3 12.3 0 0 0-2.718.074z" transform="translate(-1842.132 -1657.08)"/>
                    <path id="Path_4491" fill="url(#linear-gradient-41)" d="M1931.34 1679.954s2.7-4.5 6.1-5.334a1.281 1.281 0 0 1 .669 1.4s-4.1 1.828-5.558 4.136c-.6.876-1.211-.202-1.211-.202z" transform="translate(-1919.041 -1673.231)"/>
                </g>
                <path id="Path_4482" fill="url(#linear-gradient-42)" d="M1267.673 1337.91l-58.843 5.576v-51.3l53.464-4.637 5.226-.454z" transform="translate(-1165.34 -1231.436)"/>
                <path id="Path_4483" fill="url(#linear-gradient-43)" d="M845.938 1230.791v51.247l-30.026-7.291-1.172-54.388 1.231.186z" transform="translate(-802.448 -1169.989)"/>
                <path id="Path_4484" fill="url(#linear-gradient-42)" d="M1267.673 1337.91l-58.843 5.576v-2.921a18.661 18.661 0 0 1 3.879-1.238c4.564-.971 12.721.723 15.572-4.025 3.662-6.106.521-13.933 7.8-18.109 3.436-1.97 7.531-1.809 11.315-2.292 3.231-.415 6.24-1.3 8.436-4.387 3.525-4.964 3.781-11.412 4.684-17.217a18.883 18.883 0 0 1 1.792-5.753l5.219-.454z" opacity="0.5" transform="translate(-1165.34 -1231.436)"/>
                <path id="Path_4485" fill="url(#linear-gradient-42)" d="M846.8 1279.367v2.985l-30.026-7.29-1.1-54.362c1.562 3.384 1.942 7.465 2.179 11.217.475 7.51 3.528 14.671 10.118 16.948q1.3.451 2.621.969c6.738 2.673 13.356 6.991 13.691 16.317.207 5.488.717 9.7 2.517 13.216z" opacity="0.4" transform="translate(-803.313 -1170.302)"/>
                <path id="Path_4486" fill="url(#linear-gradient-46)" d="M702.979 1230.734l-17.754 13.485-25.765-13.111 12.281-10.749z" transform="translate(-659.46 -1169.989)"/>
            </g>
        </g>
    </g>
</svg>
