<?xml version="1.0" encoding="utf-8"?>
<!-- Generator: Adobe Illustrator 22.0.1, SVG Export Plug-In . SVG Version: 6.00 Build 0)  -->
<svg version="1.1" id="_x31__x2C_5" xmlns="http://www.w3.org/2000/svg" xmlns:xlink="http://www.w3.org/1999/xlink" x="0px"
	 y="0px" viewBox="0 0 512 512" style="enable-background:new 0 0 512 512;" xml:space="preserve">
<path d="M501.3,272H10.7c-8.8,0-16-7.2-16-16c0-8.8,7.2-16,16-16h490.7c8.8,0,16,7.2,16,16C517.3,264.8,510.2,272,501.3,272z"/>
<path d="M16,138.7c-8.8,0-16-7.2-16-16v-64C0,26.3,26.3,0,58.7,0h64c8.8,0,16,7.2,16,16s-7.2,16-16,16h-64C44,32,32,44,32,58.7v64
	C32,131.5,24.8,138.7,16,138.7z"/>
<path d="M122.7,512h-64C26.3,512,0,485.7,0,453.3v-64c0-8.8,7.2-16,16-16s16,7.2,16,16v64C32,468,44,480,58.7,480h64
	c8.8,0,16,7.2,16,16C138.7,504.8,131.5,512,122.7,512z"/>
<path d="M496,138.7c-8.8,0-16-7.2-16-16v-64C480,44,468,32,453.3,32h-64c-8.8,0-16-7.2-16-16s7.2-16,16-16h64
	C485.7,0,512,26.3,512,58.7v64C512,131.5,504.8,138.7,496,138.7z"/>
<path d="M453.3,512h-64c-8.8,0-16-7.2-16-16c0-8.8,7.2-16,16-16h64c14.7,0,26.7-12,26.7-26.7v-64c0-8.8,7.2-16,16-16
	c8.8,0,16,7.2,16,16v64C512,485.7,485.7,512,453.3,512z"/>
</svg>
